
<svg viewBox="0 0 1050.1079 207.239021" version="1.1" xmlns="http://www.w3.org/2000/svg" xmlns:xlink="http://www.w3.org/1999/xlink">
    <g id="icons" stroke="none" stroke-width="1" fill="none" fill-rule="evenodd">
        <g id="01-container" transform="translate(0, 19)" fill-rule="nonzero">
            <path d="M499.583764,149.653963 C500.355107,147.398424 500.462702,144.968858 499.893764,142.653963 C503.223764,137.653963 504.983764,131.253963 503.593764,127.253963 C501.747001,122.062277 500.407414,116.703928 499.593764,111.253963 C500.325353,103.940284 500.35549,96.5733832 499.683764,89.2539632 C499.583787,87.3690689 498.964268,85.5485834 497.893764,83.9939632 C500.473764,79.1439632 502.793764,71.5439632 499.393764,66.7339632 C498.887067,65.9916733 498.246054,65.3506606 497.503764,64.8439632 C501.903764,58.9739632 507.253764,42.0239632 494.503764,43.6539632 C479.373764,45.5839632 463.983764,42.8039632 449.053764,40.5039632 C434.25902,38.0977647 419.292883,36.9004738 404.303764,36.9236242 C374.043764,37.1939632 343.873764,41.1539632 313.663764,42.7339632 C252.083764,45.9439632 190.393764,44.8939632 128.763764,44.1039632 C94.7637642,43.6639632 60.6537642,43.3339632 26.6037642,43.7939632 C23.7570975,43.5539632 20.9137642,43.2839632 18.0737642,42.9839632 C7.16376416,41.8539632 -4.18623584,66.1239632 5.79376416,70.0039632 C2.55203225,73.8670629 0.681267649,78.6951828 0.473764164,83.7339632 C0.183764164,89.9339632 3.32376416,93.3839632 7.67376416,95.4639632 C4.4885146,98.6434668 2.34687637,102.717463 1.53376416,107.143963 C-0.973132475,122.940917 -0.402667323,139.073536 3.21376416,154.653963 C3.79579309,157.186172 5.88822353,159.09128 8.46376416,159.433963 L9.99376416,159.493963 L9.99376416,159.493963 C5.99376416,163.443963 2.64376416,168.493963 2.27376416,174.273963 C2.02376416,178.193963 3.03376416,183.103963 7.78376416,183.653963 C37.2737642,187.083963 66.9537642,186.113963 96.5937642,185.473963 C129.023764,184.763963 161.443764,183.593963 193.873764,183.223963 C225.583764,182.873963 257.333764,183.303963 288.963764,185.713963 C305.303764,186.963963 321.503764,188.233963 337.903764,188.224022 C353.563764,188.224022 369.233764,187.683963 384.903764,187.083963 C402.543764,186.403963 420.183764,185.573963 437.833764,185.833963 C455.483764,186.093963 472.963764,188.273963 490.353764,184.483963 C499.353764,182.483963 504.903764,170.353963 503.353764,162.053963 C502.56001,157.793812 501.295594,153.634989 499.583764,149.653963 L499.583764,149.653963 Z M310.813764,73.6539632 L300.163764,73.6539632 L302.863764,73.5139632 C319.673764,72.7839632 336.513764,72.5139632 353.323764,73.3139632 C359.323764,73.6039632 365.323764,74.0639632 371.323764,74.6339632 C351.177097,74.0872965 331.007097,73.7806299 310.813764,73.7139632 L310.813764,73.6539632 Z M82.8137642,158.523963 L96.4237642,155.773963 C97.599989,156.731148 98.8979735,157.528097 100.283764,158.143963 C94.4937642,158.353963 88.6637642,158.493963 82.8437642,158.583963 L82.8137642,158.523963 Z" id="形状" fill="#995DB5"></path>
            <path d="M7.40376416,56.0439632 C7.56376416,52.1839632 6.48376416,47.7439632 10.4037642,45.3639632 C13.0637642,43.7639632 16.7637642,43.9339632 19.7937642,43.8539632 C25.3937642,43.6939632 30.9837642,43.7839632 36.5837642,43.8539632 L48.2837642,43.8539632 L92.0837642,43.8539632 L239.083764,43.8539632 L393.393764,43.8539632 C419.313764,43.8539632 445.243764,43.5939632 471.153764,43.8539632 C476.653764,43.9139632 482.153764,44.0439632 487.653764,44.2939632 C493.533764,44.5539632 497.773764,46.1639632 497.953764,52.5939632 C498.013764,54.7539632 497.753764,56.9139632 497.733764,59.0739632 C497.733764,59.6439632 497.733764,60.2139632 497.733764,60.7939632 C497.793764,69.4039632 497.963764,78.0239632 498.073764,86.6439632 C498.380431,110.683963 498.687097,134.72063 498.993764,158.753963 C498.993764,160.583963 499.123764,162.433963 499.063764,164.263963 C499.013764,166.263963 498.793764,168.263963 498.653764,170.263963 C498.343764,174.793963 497.703764,178.363963 492.913764,179.483963 C486.543764,180.973963 479.203764,180.223963 472.693764,180.353963 C469.933764,180.413963 467.173764,180.433963 464.413764,180.443963 L427.963764,180.653963 L287.163764,181.003963 L131.163764,181.413963 C104.433764,181.493963 77.5137642,182.603963 50.7937642,181.733963 C45.4137642,181.553963 40.1837642,181.383963 34.7937642,181.623963 C28.586974,181.969765 22.3610835,181.678241 16.2137642,180.753963 C12.8037642,180.193963 9.07376416,179.353963 7.82376416,175.663963 C6.75376416,172.463963 7.04376416,168.213963 6.96376416,164.843963 C6.83376416,159.183963 6.96376416,153.503963 7.03376416,147.843963 L7.30376416,72.3039632 C7.30376416,66.8839632 7.30376416,61.4639632 7.36376416,56.0439632 C7.32116422,55.6869083 7.01835135,55.4180762 6.65876416,55.4180762 C6.29917698,55.4180762 5.99636411,55.6869083 5.95376416,56.0439632 C5.8470975,75.1706299 5.7070975,94.2972965 5.53376416,113.423963 L5.25376416,151.423963 C5.20376416,159.003963 4.47376416,167.423963 5.79376416,174.873963 C7.27376416,183.293963 18.0637642,183.163963 24.7937642,183.553963 C33.3537642,184.043963 41.9837642,183.493963 50.5537642,183.743963 C52.9937642,183.813963 55.4537642,183.743963 57.8937642,183.743963 L99.9637642,183.743963 C149.903764,183.743963 199.840431,183.633963 249.773764,183.413963 L405.373764,183.023963 L454.723764,182.903963 L466.883764,182.903963 C475.633764,182.903963 485.073764,183.743963 493.603764,181.903963 C502.133764,180.063963 501.223764,171.803963 501.403764,164.443963 C501.463764,162.213963 501.343764,159.963963 501.313764,157.743963 C501.160431,146.41063 501.003764,135.103963 500.843764,123.823963 C500.543764,102.483963 499.843764,81.0939632 499.973764,59.7439632 C499.973764,53.9439632 501.523764,46.3239632 494.973764,43.4339632 C490.703764,41.5539632 485.133764,42.3139632 480.593764,42.1939632 C477.593764,42.1139632 474.593764,41.9839632 471.533764,41.9539632 C469.243764,41.9539632 466.953764,41.9539632 464.663764,41.9539632 L277.553764,41.9539632 L117.553764,41.9539632 C90.6837642,41.9539632 63.8037642,42.0739632 36.9237642,42.0139632 C30.7437642,42.0139632 24.5437642,41.8339632 18.3637642,42.1839632 C14.9937642,42.3739632 10.9637642,42.5739632 8.29376416,44.9339632 C4.91376416,47.9339632 6.04376416,52.0739632 5.93376416,56.1039632 C5.89376416,56.9939632 7.36376416,56.9939632 7.40376416,56.0439632 Z" fill="#1E1E1E"></path>
            <path d="M488.233764,129.063963 C488.003764,110.443963 488.343764,91.8239632 488.233764,73.2139632 C488.233764,69.9139632 485.513764,68.6439632 482.723764,70.0239632 C479.603764,71.5739632 477.393764,75.8139632 477.413764,79.2139632 C477.553764,95.6139632 477.353764,112.003963 477.413764,128.403963 C477.413764,136.693963 478.133764,144.813963 478.663764,153.063963 C478.803764,155.263963 478.893764,157.463963 478.833764,159.673963 C478.833764,160.283963 478.633764,161.283963 478.483764,162.303963 L478.373764,162.303963 C477.102117,162.847962 475.751805,163.18554 474.373764,163.303963 C470.503764,163.503963 466.493764,162.893963 462.583764,163.013963 C458.333764,163.143963 454.083764,163.513963 449.853764,163.913963 C441.756884,164.624078 433.611273,164.573858 425.523764,163.763963 C409.413764,162.293963 393.153764,162.293963 376.983764,161.883963 C371.143764,161.733963 365.343764,175.433963 371.823764,175.603963 C389.883764,176.063963 407.823764,176.603963 425.823764,177.973963 C435.213764,178.683963 444.243764,177.463963 453.593764,176.913963 C461.793764,176.433963 470.173764,178.263963 477.893764,174.913963 C485.893764,171.483963 488.823764,165.623963 489.393764,157.263963 C490.063764,147.863963 488.353764,138.513963 488.233764,129.063963 Z" fill="#000000" opacity="0.15"></path>
            <path d="M352.673764,137.593963 C352.103764,130.403963 352.213764,123.163963 352.213764,115.953963 C352.213764,101.703963 352.343764,87.4539632 352.213764,73.2139632 C352.213764,69.9139632 349.483764,68.6439632 346.693764,70.0239632 C343.583764,71.5739632 341.363764,75.8139632 341.393764,79.2139632 C341.593764,102.873963 340.493764,126.633963 342.393764,150.213963 C342.623764,153.043963 342.823764,155.883963 342.803764,158.713963 C342.803764,159.713963 342.743764,160.713963 342.673764,161.713963 C341.621443,162.350438 340.487821,162.841562 339.303764,163.173963 C337.871257,163.280497 336.432045,163.257068 335.003764,163.103963 C327.643764,162.763963 320.233764,162.953963 312.873764,163.103963 C300.353764,163.443963 289.493764,164.623963 277.673764,164.563963 C263.103764,164.493963 248.523764,163.903963 233.963764,163.363963 C215.033764,162.663963 196.103764,162.303963 177.163764,161.833963 C171.323764,161.683963 165.523764,175.393963 172.003764,175.553963 C205.633764,176.403963 239.343764,178.163963 273.003764,178.293963 C286.113764,178.343963 299.203764,176.973963 312.313764,176.723963 C319.473764,176.583963 326.663764,177.153963 333.793764,176.983963 C338.136446,176.714425 342.320291,175.250599 345.883764,172.753963 C350.883764,169.363963 352.883764,164.753963 353.303764,158.863963 C353.883764,151.743963 353.243764,144.773963 352.673764,137.593963 Z M344.453764,161.163963 C344.539752,161.148619 344.627777,161.148619 344.713764,161.163963 C344.627362,161.154386 344.540166,161.154386 344.453764,161.163963 L344.453764,161.163963 Z" id="形状" fill="#000000" opacity="0.15"></path>
            <path d="M152.983764,151.783963 C152.913764,143.543963 151.643764,135.383963 151.583764,127.133963 C151.463764,109.133963 151.713764,91.1839632 151.583764,73.2139632 C151.583764,69.9139632 148.853764,68.6439632 146.073764,70.0239632 C142.953764,71.5739632 140.733764,75.8139632 140.763764,79.2139632 C140.913764,97.5039632 140.603764,115.803963 140.763764,134.093963 C140.863764,143.413963 142.573764,152.713963 142.043764,162.043963 C140.969374,162.562776 139.838505,162.955392 138.673764,163.213963 C136.003764,163.573963 133.233764,162.873963 130.523764,163.053963 C125.183764,163.393963 120.093764,164.673963 114.683764,164.663963 C107.413764,164.663963 100.153764,164.093963 92.9137642,163.603963 C75.9137642,162.453963 58.8637642,162.353963 41.8437642,161.923963 C36.0037642,161.773963 30.2037642,175.473963 36.6837642,175.643963 C51.8437642,176.023963 67.0737642,176.033963 82.2037642,176.963963 C94.0437642,177.693963 106.103764,179.193963 117.953764,177.963963 C122.313764,177.523963 126.093764,176.593963 130.473764,176.873963 C136.285928,177.278007 142.039178,175.494607 146.603764,171.873963 C152.803764,166.893963 153.053764,159.153963 152.983764,151.783963 Z" fill="#000000" opacity="0.15"></path>
            <path d="M28.3937642,69.2539632 C28.6137642,67.2539632 31.3937642,64.6439632 33.8437642,63.5539632 C35.7837642,62.6739632 135.503764,62.7839632 137.043764,63.3739632 C139.483764,64.3039632 142.683764,68.4439632 142.823764,69.4739632 C143.123764,71.6639632 143.613764,158.313963 143.433764,161.353963 C143.353764,162.723963 141.303764,166.563963 139.853764,167.163963 C136.553764,168.513963 37.8537642,171.723963 31.5437642,166.773963 C29.45318,165.122927 28.2575432,162.587289 28.3137642,159.923963 C28.1637642,157.493963 28.1637642,71.2339632 28.3937642,69.2539632 Z" fill="#F7941F"></path>
            <path d="M344.213764,69.2539632 C343.993764,67.2539632 339.133764,63.7439632 338.443764,63.6139632 C336.963764,63.3339632 177.323764,63.4139632 173.133764,63.5439632 C171.323764,63.6039632 165.973764,65.7739632 165.443764,66.6639632 C164.163764,68.8239632 163.893764,158.313963 163.863764,161.353963 C163.863764,165.983963 171.223764,167.693963 174.863764,167.783963 C179.143764,167.883963 333.733764,169.323963 338.363764,168.493963 C341.503764,167.923963 344.223764,162.403963 344.363764,159.923963 C344.503764,157.443963 344.443764,71.2339632 344.213764,69.2539632 Z" fill="#F7941F"></path>
            <path d="M473.663764,62.7339632 C475.663764,62.9639632 479.553764,66.0739632 480.013764,70.7339632 C480.163764,72.2339632 481.123764,160.273963 478.533764,165.193963 C477.943764,166.323963 475.353764,168.193963 474.463764,168.673963 C472.303764,169.953963 371.193764,170.373963 370.043764,169.313963 C367.943764,167.373963 365.223764,161.893963 365.133764,158.313963 C365.033764,154.033963 364.133764,74.0839632 364.863764,70.0239632 C365.133764,68.5539632 367.583764,62.8839632 372.993764,62.6439632 C375.423764,62.5539632 471.683764,62.5139632 473.663764,62.7339632 Z" fill="#F7941F"></path>
            <path d="M134.163764,65.5139632 C115.715762,64.1125244 97.2061789,63.695266 78.7137642,64.2639632 C74.1537642,64.4039632 69.5937642,64.6072965 65.0337642,64.8739632 C64.6703481,63.6997457 63.5927927,62.8925881 62.3637642,62.8739632 C56.1160636,62.3240275 49.8210855,62.7252607 43.6937642,64.0639632 C42.3345457,64.425599 41.1087381,65.1721957 40.1637642,66.2139632 C32.4537642,64.3639632 22.7837642,76.2139632 29.0937642,83.8139632 C29.6644269,84.5042846 30.3391906,85.1014506 31.0937642,85.5839632 C30.7137642,89.5839632 30.8537642,93.7739632 30.8037642,97.5839632 C30.7370975,103.723963 30.8504308,109.863963 31.1437642,116.003963 C30.4537642,119.543963 29.7537642,123.093963 29.0837642,126.643963 C26.3337642,141.223963 26.0837642,162.793963 44.6737642,166.433963 C49.8337642,167.433963 55.7837642,156.223963 51.0037642,153.073963 C46.5637642,150.143963 45.6637642,144.673963 44.8737642,139.763963 C43.7237642,132.543963 42.9837642,125.233963 42.4337642,117.943963 C42.2737642,115.803963 42.1404308,113.663963 42.0337642,111.523963 C43.2937642,105.123963 44.5470975,98.7206299 45.7937642,92.3139632 C46.7640519,88.1724441 47.3234271,83.9453094 47.4637642,79.6939632 C48.9437642,79.4639632 50.4637642,79.1839632 51.7537642,79.0839632 C55.7137642,78.7906299 59.6704308,78.5439632 63.6237642,78.3439632 C70.8837642,77.9772965 78.1470975,77.7606299 85.4137642,77.6939632 C99.9537642,77.5739632 114.483764,78.1039632 128.973764,79.1939632 C134.803764,79.6539632 140.743764,66.0139632 134.163764,65.5139632 Z" fill="#FFFFFF" opacity="0.25"></path>
            <path d="M339.213764,64.8539632 C310.963764,63.3439632 282.783764,65.6539632 254.593764,67.6539632 C249.983764,67.2539632 245.373764,66.9139632 240.783764,66.7239632 C224.593764,66.0739632 208.223764,69.5939632 192.113764,67.7239632 C188.853764,67.3439632 185.353764,65.9639632 182.113764,67.0139632 C180.767023,67.4682962 179.539967,68.2202526 178.523764,69.2139632 C176.523764,69.0739632 174.523764,68.9239632 172.573764,68.7339632 C168.723764,68.3839632 165.103764,73.6239632 164.743764,76.9339632 C161.730284,103.478828 161.535867,130.268158 164.163764,156.853963 C164.413764,159.433963 165.843764,160.673963 167.603764,160.613963 C168.123764,162.973963 170.803764,163.613963 173.033764,162.543963 C176.383764,160.883963 178.033764,156.833963 178.333764,153.353963 L181.603764,113.543963 C182.123764,107.243963 182.640431,100.943963 183.153764,94.6439632 C183.433764,91.3106299 183.707097,87.9939632 183.973764,84.6939632 C183.973764,84.3039632 184.033764,83.9139632 184.073764,83.5139632 C205.803764,84.3139632 227.513764,82.9739632 249.213764,81.4339632 C252.127097,81.6739632 255.030431,81.9406299 257.923764,82.2339632 C283.713764,84.8339632 310.483764,87.8439632 335.333764,78.4539632 C338.457601,77.2011013 340.792446,74.527926 341.613764,71.2639632 C342.213764,69.1539632 342.383764,65.0239632 339.213764,64.8539632 Z" fill="#FFFFFF" opacity="0.25"></path>
            <path d="M345.633764,151.013963 C345.633764,147.823963 345.573764,144.633963 345.543764,141.433963 C345.337097,121.00063 345.130431,100.57063 344.923764,80.1439632 C344.923764,78.5539632 344.923764,76.9739632 344.873764,75.3839632 C344.882911,75.3276657 344.882911,75.2702607 344.873764,75.2139632 C344.763764,68.4439632 344.923764,63.4339632 336.873764,62.4739632 C331.303764,61.8039632 325.553764,62.1639632 319.943764,62.1639632 L303.743764,62.1639632 C281.930431,62.1639632 260.120431,62.1639632 238.313764,62.1639632 L187.803764,62.1639632 C185.303764,62.1639632 182.803764,62.2539632 180.313764,62.3339632 C173.953764,62.5339632 165.193764,61.1439632 163.443764,69.1339632 C162.663764,72.6739632 163.383764,76.5339632 163.333764,80.1339632 C163.273764,83.5739632 163.220431,87.0172965 163.173764,90.4639632 C162.860431,110.277297 162.550431,130.087297 162.243764,149.893963 C162.173764,154.083963 161.943764,158.723963 162.863764,162.763963 C164.463764,169.763963 173.053764,168.913963 178.773764,169.023963 C185.603764,169.153963 192.433764,169.273963 199.263764,169.333963 C235.473764,169.693963 271.673764,170.103963 307.883764,169.843963 C313.413764,169.843963 318.883764,170.053963 324.443764,170.153963 C330.373764,170.273963 342.073764,170.913963 344.703764,164.003963 C346.163764,160.083963 345.643764,155.153963 345.633764,151.013963 Z M343.633764,152.613963 C343.583764,155.043963 343.463764,157.513963 343.263764,159.923963 C342.913764,164.133963 340.573764,166.163963 336.633764,166.993963 C331.473764,168.093963 326.123764,167.993963 320.883764,167.763963 C306.823764,167.233963 292.773764,167.943963 278.713764,167.763963 C258.393764,167.55063 238.077097,167.35063 217.763764,167.163963 L194.343764,166.943963 L190.223764,166.943963 C187.393764,166.943963 184.573764,166.833963 181.743764,166.783963 C176.183764,166.683963 167.213764,168.213963 165.013764,161.353963 C163.953764,158.043963 164.463764,153.643963 164.513764,150.043963 L164.633764,140.653963 C164.767097,130.173963 164.910431,119.70063 165.063764,109.233963 C165.190431,100.38063 165.317097,91.5372965 165.443764,82.7039632 C165.443764,81.1639632 165.513764,79.6339632 165.503764,78.0939632 C165.503764,72.5339632 164.203764,65.3539632 171.793764,64.6539632 C176.373764,64.2339632 181.123764,64.2639632 185.723764,64.1939632 C197.343764,64.0239632 208.973764,64.1939632 220.593764,64.1939632 C253.993764,64.1939632 287.393764,64.3139632 320.783764,64.1039632 C324.853764,64.1039632 328.913764,63.9939632 332.973764,64.1039632 C336.053764,64.1939632 338.473764,64.1639632 340.973764,66.0339632 C344.193764,68.4139632 343.263764,71.6939632 343.413764,75.2139632 C343.413764,75.2139632 343.413764,75.3039632 343.413764,75.3439632 C343.503764,90.9939632 343.473764,106.643963 343.503764,122.293963 C343.503764,131.00063 343.520431,139.71063 343.553764,148.423963 C343.613764,149.823963 343.643764,151.223963 343.613764,152.653963 L343.633764,152.613963 Z" id="形状" fill="#1E1E1E"></path>
            <path d="M144.593764,121.593963 C144.383764,107.643963 144.063764,93.7039632 143.953764,79.7639632 C143.953764,74.3539632 145.743764,66.2039632 139.653764,63.3739632 C137.463764,62.3739632 134.713764,62.5239632 132.373764,62.4539632 C128.773764,62.3339632 125.173764,62.1639632 121.583764,62.1139632 C120.453764,62.1139632 119.333764,62.1139632 118.203764,62.1139632 L73.0837642,62.1139632 L54.5537642,62.1139632 L49.9437642,62.1139632 C44.4537642,62.1139632 36.8737642,60.9739632 31.7237642,63.3539632 C26.5737642,65.7339632 27.7237642,70.5939632 27.7237642,75.2039632 C27.7189388,75.2605271 27.7189388,75.3173993 27.7237642,75.3739632 C27.5737642,100.373963 27.1537642,125.373963 26.8837642,150.373963 C26.8237642,155.853963 25.5837642,164.543963 30.9837642,167.773963 C36.0537642,170.773963 44.3737642,170.333963 49.9837642,170.103963 C54.4637642,169.903963 58.8337642,170.103963 63.2937642,170.193963 C77.4337642,170.503963 91.6837642,169.733963 105.823764,169.483963 C110.413764,169.403963 114.993764,169.343963 119.583764,169.243963 C125.733764,169.123963 132.983764,169.943963 138.943764,168.243963 C144.363764,166.703963 144.443764,162.733963 144.733764,157.723963 C145.473764,145.703963 144.783764,133.653963 144.593764,121.593963 Z M142.593764,155.883963 C142.503764,157.483963 142.753764,159.883963 142.273764,161.353963 C140.693764,166.353963 137.853764,166.353963 134.023764,166.593963 C129.853764,166.893963 125.623764,166.803963 121.453764,166.903963 C117.743764,166.983963 114.033764,167.033963 110.323764,167.093963 L67.7037642,167.813963 C61.1637642,167.923963 54.7037642,167.723963 48.1337642,167.873963 C44.0551758,168.067395 39.9682315,167.761798 35.9637642,166.963963 C30.8937642,165.823963 29.6237642,163.043963 29.3137642,158.093963 C29.1637642,155.733963 29.0737642,153.383963 29.0537642,151.013963 C28.8637642,125.803963 28.9637642,100.563963 29.1137642,75.3439632 C29.1194215,75.3008145 29.1194215,75.2571119 29.1137642,75.2139632 C29.3437642,70.5339632 28.3437642,66.0539632 34.3437642,64.5139632 C37.9837642,63.5739632 42.4137642,64.0539632 46.1437642,64.0639632 C48.4937642,64.0639632 50.8537642,64.0639632 53.2037642,64.0639632 C58.1704308,64.0639632 63.1370975,64.0639632 68.1037642,64.0639632 L112.263764,64.0639632 C115.353764,64.0639632 118.453764,64.0639632 121.533764,64.0639632 C127.973764,64.1639632 140.853764,62.1639632 141.903764,70.6239632 C142.233764,73.3039632 141.783764,76.1039632 141.773764,78.8039632 C141.773764,90.5539632 142.103764,102.303963 142.263764,114.053963 C142.443764,126.283963 142.793764,138.523963 142.763764,150.753963 C142.823764,152.553963 142.723764,154.203963 142.623764,155.883963 L142.593764,155.883963 Z" id="形状" fill="#1E1E1E"></path>
            <path d="M474.353764,66.2339632 C473.193254,65.8593006 471.944274,65.8593006 470.783764,66.2339632 C455.223764,66.3039632 439.723764,64.4239632 424.173764,63.8339632 C415.683764,63.5139632 407.173764,63.4339632 398.673764,63.3939632 L387.263764,63.3939632 C383.973764,63.3939632 380.263764,62.9639632 377.113764,64.0439632 C376.906333,64.116925 376.702738,64.2003656 376.503764,64.2939632 C375.783764,62.6539632 374.323764,61.8739632 372.163764,62.6539632 C369.073764,63.7939632 366.943764,67.3739632 366.323764,70.4539632 C362.763764,88.0739632 363.693764,106.033963 365.833764,123.773963 C364.613764,136.333963 364.753764,148.623963 367.463764,161.203963 C368.643764,166.713963 375.303764,161.543963 376.563764,158.983963 C383.013764,145.883963 381.493764,128.743963 380.883764,114.523963 C380.563764,107.123963 380.033764,99.7339632 379.593764,92.3339632 C379.373764,88.4739632 379.163764,84.6139632 379.013764,80.7539632 C379.013764,79.6539632 379.013764,78.5139632 379.013764,77.3939632 C381.653764,77.7539632 385.403764,77.1039632 387.673764,77.1039632 C391.603764,77.1039632 395.523764,77.1039632 399.453764,77.1539632 C407.293764,77.2139632 415.143764,77.3539632 422.983764,77.7239632 C438.413764,78.4539632 453.773764,80.2939632 469.243764,79.9139632 C474.573764,79.8239632 481.343764,68.2839632 474.353764,66.2339632 Z" fill="#FFFFFF" opacity="0.25"></path>
            <path d="M480.773764,89.4839632 C480.773764,88.0639632 480.773764,86.6439632 480.773764,85.2239632 C480.773764,79.4139632 482.073764,71.5339632 479.543764,66.0739632 C477.213764,61.0739632 472.313764,62.0739632 467.693764,62.0739632 C467.6372,62.0691378 467.580328,62.0691378 467.523764,62.0739632 C441.293764,61.9339632 415.053764,61.4339632 388.823764,61.2539632 C385.363764,61.2539632 381.913764,61.1339632 378.463764,61.2539632 C373.903764,61.4439632 367.873764,60.7439632 365.153764,65.2539632 C361.963764,70.5939632 362.593764,79.3439632 362.883764,85.2539632 C363.573764,99.2539632 363.073764,113.643963 363.343764,127.753963 C363.463764,133.543963 363.563764,139.343963 363.683764,145.143963 C363.803764,150.783963 363.543764,156.613963 364.253764,162.223963 C364.853764,167.053963 366.583764,169.823963 371.553764,170.363963 C383.433764,171.663963 395.733764,170.673963 407.643764,170.513963 C423.643764,170.293963 439.643764,170.073963 455.643764,169.853963 C459.193764,169.803963 462.743764,169.693963 466.293764,169.773963 C470.493764,169.873963 475.863764,170.603963 478.763764,166.773963 C480.073764,165.023963 480.223764,162.773963 480.333764,160.673963 C480.563764,156.563963 480.653764,152.433963 480.733764,148.323963 C480.993764,135.673963 480.733764,122.993963 480.733764,110.323963 C480.767097,103.383963 480.780431,96.4372965 480.773764,89.4839632 Z M478.853764,80.5439632 C478.853764,83.0939632 478.803764,85.6339632 478.793764,88.1739632 L478.793764,105.083963 C478.793764,118.53063 478.793764,131.98063 478.793764,145.433963 C478.793764,147.303963 478.733764,149.163963 478.673764,151.033963 C478.563764,154.463963 478.673764,157.963963 478.333764,161.373963 C477.693764,168.433963 471.723764,167.843963 466.393764,167.723963 C463.463764,167.653963 460.533764,167.723963 457.603764,167.723963 L415.393764,168.243963 C404.103764,168.383963 392.773764,168.763963 381.483764,168.643963 C378.809709,168.729562 376.133238,168.585702 373.483764,168.213963 C366.403764,166.873963 366.483764,162.153963 366.323764,156.453963 C366.233764,152.783963 366.153764,149.103963 366.073764,145.453963 C365.993764,141.233963 365.917097,137.02063 365.843764,132.813963 C365.603764,120.173963 364.483764,107.213963 365.123764,94.5939632 C365.323764,90.5239632 365.233764,86.5939632 365.123764,82.4939632 C364.935383,78.4154452 365.240935,74.3291121 366.033764,70.3239632 C367.583764,63.4939632 372.723764,63.7639632 378.553764,63.5039632 C381.503764,63.3739632 384.463764,63.4339632 387.413764,63.4539632 C414.163764,63.5739632 440.903764,63.3339632 467.653764,63.4539632 C467.696913,63.4596205 467.740615,63.4596205 467.783764,63.4539632 C472.463764,63.6839632 476.943764,62.6839632 478.483764,68.6839632 C479.343764,72.3939632 478.863764,76.8239632 478.853764,80.5439632 Z" id="形状" fill="#1E1E1E"></path>
            <path d="M493.323764,42.4839632 C477.043764,44.6739632 460.233764,43.9839632 443.853764,43.8839632 C432.503764,43.8139632 421.153764,43.8839632 409.803764,43.7839632 C381.473764,43.6739632 353.143764,43.4539632 324.803764,43.2839632 C298.363764,43.1339632 271.923764,42.9239632 245.483764,43.1539632 C216.173764,43.4039632 186.933764,44.8339632 157.593764,44.5139632 C109.593764,43.9839632 61.5937642,42.0939632 13.5137642,42.0739632 C9.08376416,42.0739632 5.19376416,47.7739632 5.51376416,51.9339632 C8.83376416,93.9339632 4.51376416,136.043963 6.91376416,178.023963 C7.10376416,181.273963 9.52376416,182.633963 12.4237642,181.203963 C15.6740215,179.276322 17.6831147,175.79263 17.7237642,172.013963 C15.4937642,133.343963 18.9937642,94.5139632 16.9637642,55.8339632 C57.3437642,56.0239632 97.6937642,57.3339632 138.063764,58.0339632 C170.333764,58.5839632 202.453764,57.3839632 234.693764,56.9339632 C289.053764,56.1739632 343.443764,57.2239632 397.803764,57.4839632 C410.133764,57.4839632 422.463764,57.4839632 434.803764,57.5739632 C453.373764,57.7039632 472.333764,58.4539632 490.803764,55.9739632 C496.333764,55.2239632 501.033764,41.4539632 493.323764,42.4839632 Z" fill="#000000" opacity="0.2"></path>
            <path d="M39.6337642,9.7839632 C38.5037642,6.6639632 34.6337642,6.4839632 31.9037642,7.5239632 C28.9969993,8.50965256 26.9715708,11.1510009 26.7737642,14.2139632 C26.5337642,17.1339632 27.0837642,20.6839632 29.9137642,22.1539632 C33.0237642,23.7739632 36.8437642,22.8739632 39.6437642,21.0939632 C41.1137642,20.1639632 39.6437642,17.7839632 38.2937642,18.7839632 C36.591411,20.1490159 34.3800732,20.7073239 32.2337642,20.3139632 C29.8037642,19.7339632 29.2337642,17.6339632 29.2337642,15.3839632 C29.0105657,13.1999061 30.1830863,11.1109786 32.1637642,10.1639632 C34.5537642,8.9739632 36.1637642,9.6539632 38.3337642,10.8039632 C38.9737642,11.1339632 39.9337642,10.5639632 39.6537642,9.8039632 L39.6337642,9.7839632 Z" fill="#7F3F98"></path>
            <path d="M56.5737642,10.4739632 C56.5072378,10.167094 56.3149496,9.90224425 56.0437642,9.7439632 C54.1337642,6.7439632 49.6937642,6.2939632 46.7437642,8.0639632 C43.1637642,10.2339632 41.0637642,15.4939632 42.9837642,19.4039632 C44.7137642,22.9439632 50.1837642,24.2039632 53.6437642,22.5939632 C58.3537642,20.4039632 57.5637642,14.5639632 56.5737642,10.4739632 Z M53.4437642,19.6539632 C51.3537642,21.4939632 46.3637642,20.7939632 45.1337642,18.2939632 C43.7437642,15.4939632 45.4237642,11.6339632 47.9537642,10.1039632 C50.1837642,8.7439632 52.4537642,9.3939632 54.2337642,10.9739632 C54.2386929,11.0071143 54.2386929,11.0408121 54.2337642,11.0739632 C54.8937642,13.7639632 55.8437642,17.5739632 53.4437642,19.6539632 Z" id="形状" fill="#7F3F98"></path>
            <path d="M73.9537642,13.8339632 C73.9537642,11.9739632 74.0737642,9.5139632 72.5837642,8.1239632 C70.3837642,6.1239632 66.2237642,7.3639632 64.0537642,9.4339632 C63.9888363,8.98260874 63.8986953,8.53524235 63.7837642,8.0939632 C63.6276929,7.59734668 63.1368598,7.28511426 62.6209061,7.35423724 C62.1049525,7.42336023 61.7136132,7.85377841 61.6937642,8.3739632 C61.6337642,11.0939632 61.6937642,13.8139632 61.6937642,16.5339632 C61.6937642,18.1339632 61.0137642,21.1739632 62.0237642,22.5339632 C62.2653372,22.9294378 62.6953446,23.1706559 63.1587642,23.1706559 C63.6221837,23.1706559 64.0521911,22.9294378 64.2937642,22.5339632 L64.2937642,22.4539632 C64.4782642,22.0752384 64.4782642,21.632688 64.2937642,21.2539632 C63.8537642,19.1639632 64.2937642,16.6039632 64.2937642,14.4939632 C64.2937642,13.5739632 64.2937642,12.6539632 64.2937642,11.7339632 C66.7837642,10.6239632 71.2237642,7.4439632 71.3937642,12.4139632 C71.5037642,15.4139632 71.0437642,18.4139632 70.9037642,21.4139632 C70.8337642,22.8839632 73.2037642,23.2439632 73.4937642,21.7639632 C73.9152787,19.1430316 74.0694035,16.4860538 73.9537642,13.8339632 L73.9537642,13.8339632 Z" fill="#7F3F98"></path>
            <path d="M83.8637642,20.2939632 C81.8637642,21.2239632 81.7537642,13.3639632 81.6937642,12.1339632 C81.6937642,11.2539632 81.6937642,10.3739632 81.6937642,9.5039632 C82.6123229,9.59709838 83.5401266,9.52598934 84.4337642,9.2939632 C84.9439509,9.13535385 85.2915833,8.66323601 85.2915833,8.1289632 C85.2915833,7.59469038 84.9439509,7.12257254 84.4337642,6.9639632 C83.5408077,6.74398403 82.6135831,6.69983047 81.7037642,6.8339632 C81.7037642,5.8339632 81.7037642,4.8339632 81.6337642,3.8339632 C81.5637642,2.8339632 79.8637642,2.3439632 79.5737642,3.5539632 C79.3323884,4.69981622 79.1554441,5.85830072 79.0437642,7.0239632 C78.2894276,7.07798358 77.5493291,7.25709418 76.8537642,7.5539632 C76.5114927,7.75876254 76.3236575,8.14737447 76.3758035,8.54281515 C76.4279495,8.93825584 76.7101031,9.26489123 77.0937642,9.3739632 C77.6667666,9.50993487 78.2550805,9.57044716 78.8437642,9.5539632 C78.4737642,16.3039632 79.2837642,25.3739632 85.3337642,22.7239632 C86.9537642,22.0139632 85.5237642,19.5539632 83.8637642,20.2939632 Z" fill="#7F3F98"></path>
            <path d="M100.003764,13.1839632 C99.7737642,11.3639632 99.3637642,9.3039632 97.8637642,8.0839632 C95.7937642,6.4139632 89.8637642,6.2739632 89.0937642,9.4339632 C89.0478714,9.59842037 89.0695951,9.77439745 89.1541037,9.92275711 C89.2386124,10.0711168 89.3788991,10.1795579 89.5437642,10.2239632 C92.2637642,10.7739632 95.6237642,7.4039632 97.0737642,11.7639632 C97.296453,12.4753956 97.4570541,13.2047923 97.5537642,13.9439632 C95.763189,12.7539589 93.5133277,12.4866486 91.4937642,13.2239632 C88.5637642,14.3639632 87.0437642,16.3339632 87.5537642,19.6239632 C88.3037642,24.3639632 94.1737642,24.0039632 97.6537642,21.4039632 C97.6537642,21.6239632 97.6537642,21.8539632 97.6537642,22.0739632 L97.6537642,22.0739632 C97.7237642,23.8539632 100.573764,23.9739632 100.483764,22.0739632 C100.373764,19.1139632 100.373764,16.1239632 100.003764,13.1839632 Z M94.5737642,20.1839632 C92.7937642,20.8339632 89.9837642,20.9239632 90.0637642,18.3339632 C90.0637642,16.4639632 91.7537642,15.4939632 93.5237642,15.3339632 C95.2937642,15.1739632 96.4037642,16.2339632 97.7637642,17.0439632 L97.7637642,17.0439632 C97.2902936,18.5632705 96.0960192,19.7500573 94.5737642,20.2139632 L94.5737642,20.1839632 Z" id="形状" fill="#7F3F98"></path>
            <path d="M107.383764,8.7939632 C107.234639,8.24912172 106.738642,7.87199986 106.173764,7.87395557 L106.003764,7.87395557 C105.654269,7.87753007 105.331998,8.0633102 105.153764,8.3639632 C104.463764,9.8139632 104.823764,12.0139632 104.783764,13.5839632 C104.733764,16.3239632 104.653764,19.0839632 104.703764,21.8339632 C104.703764,23.7239632 107.603764,23.3839632 107.393764,21.7439632 C107.583764,17.6539632 108.163764,12.8239632 107.383764,8.7939632 Z" fill="#7F3F98"></path>
            <path d="M107.433764,2.8539632 C107.218988,2.2526657 106.66917,1.835108 106.032289,1.78961647 C105.395408,1.74412494 104.791823,2.07929679 104.493764,2.6439632 C104.205914,3.23470709 104.288923,3.9390495 104.70622,4.44668983 C105.123518,4.95433016 105.798486,5.17206216 106.433764,5.0039632 C106.944647,4.9000477 107.326789,4.47318677 107.373764,3.9539632 C107.528713,3.60723771 107.550082,3.21548504 107.433764,2.8539632 Z" fill="#7F3F98"></path>
            <path d="M124.103764,12.5739632 C124.013764,10.9239632 123.883764,9.0039632 122.323764,8.0239632 C120.153764,6.6539632 116.553764,8.1939632 114.323764,10.1539632 C114.260637,9.50696741 114.12306,8.86941722 113.913764,8.2539632 C113.818356,7.96140199 113.563598,7.74949736 113.258554,7.70896699 C112.95351,7.66843663 112.652257,7.80646573 112.483764,8.0639632 C111.143764,10.3439632 111.693764,13.4639632 111.863764,16.0039632 C111.963764,17.5139632 112.073764,19.0039632 112.143764,20.5339632 C112.143764,21.3939632 112.073764,22.0939632 112.773764,22.6939632 C113.473764,23.2939632 114.773764,23.1539632 114.893764,22.1339632 L114.893764,22.0339632 C114.903265,21.9509006 114.903265,21.8670258 114.893764,21.7839632 L114.893764,21.7839632 C114.783764,19.5139632 114.603764,17.2539632 114.443764,14.9839632 C114.393764,14.3539632 114.393764,13.7039632 114.383764,13.0439632 C116.533764,11.6739632 120.473764,8.2939632 121.383764,11.5939632 C121.783764,12.9739632 121.513764,14.8439632 121.553764,16.2739632 C121.603764,17.9239632 121.553764,19.5939632 121.743764,21.2739632 C121.403764,22.8339632 124.413764,23.4339632 124.453764,21.4139632 C124.563764,18.4639632 124.273764,15.4939632 124.103764,12.5739632 Z" fill="#7F3F98"></path>
            <path d="M141.023764,19.2139632 C139.243764,20.6539632 135.873764,21.4639632 133.753764,20.2939632 C132.321373,19.3924488 131.395604,17.8704849 131.253764,16.1839632 C134.773764,16.1239632 138.253764,15.8539632 141.793764,15.6339632 C142.231576,15.6393127 142.646678,15.4395269 142.915624,15.094019 C143.184571,14.7485112 143.276385,14.2970758 143.163764,13.8739632 C142.323764,10.0139632 140.613764,6.6339632 136.163764,6.9439632 C132.422866,7.18223729 129.335603,9.95911919 128.703764,13.6539632 C128.153764,16.9539632 129.383764,20.8139632 132.413764,22.5439632 C135.663764,24.4139632 140.193764,23.3139632 142.963764,21.1139632 C144.343764,20.0639632 142.393764,18.1139632 141.023764,19.2139632 Z M135.353764,9.8239632 C138.163764,9.1839632 139.353764,10.8239632 140.033764,12.9939632 C137.143764,13.1939632 134.263764,13.4139632 131.393764,13.7539632 C131.865899,11.8013724 133.397639,10.2812364 135.353764,9.8239632 L135.353764,9.8239632 Z" id="形状" fill="#7F3F98"></path>
            <path d="M155.273764,7.7339632 C153.823764,6.9439632 151.793764,8.1039632 150.603764,8.9939632 C150.281017,9.241554 149.973773,9.50872308 149.683764,9.7939632 C149.582221,9.26275327 149.40012,8.75017366 149.143764,8.2739632 C148.996378,8.03426258 148.735152,7.88822726 148.453764,7.88822726 C148.172376,7.88822726 147.91115,8.03426258 147.763764,8.2739632 C146.673764,10.2739632 147.083764,12.7039632 147.063764,14.9039632 C147.043764,17.1039632 146.583764,20.0339632 147.323764,22.2739632 C147.512574,22.8784181 148.109454,23.2588839 148.737113,23.1748666 C149.364773,23.0908492 149.840575,22.5667959 149.863764,21.9339632 C149.783764,19.4239632 149.863764,16.9339632 149.863764,14.3939632 C149.863764,14.0139632 149.863764,13.6439632 149.863764,13.2639632 C150.519696,12.4085487 151.294142,11.6509381 152.163764,11.0139632 C153.213764,10.3639632 154.613764,10.4539632 155.503764,9.6339632 C155.766428,9.36909445 155.893482,8.99861397 155.848654,8.62829233 C155.803826,8.25797068 155.592041,7.92850755 155.273764,7.7339632 L155.273764,7.7339632 Z" fill="#7F3F98"></path>
            <path d="M237.513764,24.6539632 C236.313893,25.8942176 235.194923,27.2102601 234.163764,28.5939632 L233.723764,29.2239632 C235.633764,15.9339632 227.823764,4.5139632 214.303764,1.2239632 C197.803764,-2.8460368 178.303764,3.8839632 163.993764,11.8539632 C163.636697,12.1317424 163.510591,12.6146432 163.686249,13.0315396 C163.861908,13.448436 164.295574,13.695478 164.743764,13.6339632 C171.083764,11.6339632 177.023764,8.4439632 183.373764,6.3739632 C190.554826,3.94395832 198.092991,2.7371759 205.673764,2.8039632 C212.843764,2.9739632 220.123764,5.0239632 225.393764,10.0939632 C230.973764,15.4639632 231.633764,22.3239632 230.873764,29.4439632 C229.943764,27.5839632 229.153764,25.6139632 227.633764,24.2639632 C227.123764,23.8139632 226.103764,24.0839632 226.163764,24.8739632 C226.323764,26.8739632 227.603764,28.5739632 228.533764,30.2739632 C229.193764,31.4839632 229.993764,34.3339632 231.533764,34.6439632 C233.073764,34.9539632 234.173764,32.9239632 234.983764,31.9139632 C236.580093,30.1151481 238.053429,28.2108367 239.393764,26.2139632 C239.692882,25.6910187 239.572853,25.0287463 239.109232,24.6440401 C238.645612,24.2593339 237.972563,24.2635199 237.513764,24.6539632 L237.513764,24.6539632 Z" fill="#7F3F98"></path>
        </g>
        <g id="02-items" transform="translate(544, 0)" fill-rule="nonzero">
            <path d="M89.1310755,206.534943 C124.731075,205.434943 159.971075,201.744943 195.431075,198.974943 C272.217742,203.314943 349.094409,205.648276 426.061075,205.974943 C427.061075,205.974943 427.841075,203.324943 428.261075,199.764943 C441.941075,200.924943 455.607742,202.278276 469.261075,203.824943 C477.261075,204.734943 487.491075,207.824943 495.441075,206.164943 C501.441075,204.874943 502.371075,200.374943 502.791075,195.164943 C503.051075,191.854943 504.971075,178.584943 500.791075,176.634943 C500.091075,176.304943 499.381075,176.004943 498.671075,175.684943 C499.481075,169.184943 499.071075,159.464943 497.111075,157.424943 C499.211075,157.114943 501.281075,156.734943 503.321075,156.264943 C506.871075,155.444943 506.831075,137.574943 504.321075,132.734943 C505.551075,125.884943 506.001075,113.144943 502.551075,112.544943 L501.391075,112.344943 C502.859977,110.848589 503.89661,108.98265 504.391075,106.944943 C506.201075,99.3349431 507.031075,87.8949431 502.031075,80.7949431 C503.701075,74.6249431 503.411075,59.6449431 500.381075,58.7949431 L491.031075,56.2049431 C490.801075,56.1349431 490.381075,57.4249431 489.941075,59.4349431 C423.811075,63.2249431 357.751075,61.9549431 291.561075,59.4349431 C221.561075,56.8049431 151.391075,53.7849431 81.3710755,58.0549431 C62.5710755,59.2049431 63.1010755,60.7649431 44.3710755,62.3749431 C31.0010755,63.5349431 15.5310755,58.4549431 6.83107547,69.1349431 C4.13107547,72.4649431 3.98107547,97.1349431 7.92107547,99.5649431 C11.1155964,101.678051 14.5538765,103.397191 18.1610755,104.684943 C15.6410755,104.524943 14.0610755,103.624943 5.37107547,104.344943 C1.84107547,104.644943 1.54107547,131.814943 4.98107547,132.034943 L5.89107547,132.034943 C3.97107547,134.324943 1.69107547,147.264943 3.15107547,153.254943 C1.52107547,157.084943 1.45107547,161.644943 1.34107547,165.644943 C1.22107547,170.274943 1.20107547,175.904943 2.72107547,180.734943 C2.1894263,181.654523 1.70870184,182.602619 1.28107547,183.574943 C0.221075472,186.014943 -1.44892453,206.444943 2.44107547,206.514943 C37.7510755,207.314943 53.8010755,207.624943 89.1310755,206.534943 Z M215.401075,157.164943 L230.011075,157.164943 C230.011075,157.284943 229.961075,157.404943 229.941075,157.534943 C225.091075,157.454943 220.241075,157.304943 215.401075,157.164943 L215.401075,157.164943 Z M17.4810755,158.024943 C17.0492326,158.664364 16.6616602,159.332592 16.3210755,160.024943 C15.1127224,159.308932 13.9831563,158.467623 12.9510755,157.514943 C14.4610755,157.714943 15.9710755,157.894943 17.4810755,158.024943 L17.4810755,158.024943 Z" id="形状" fill="#995DB5"></path>
            <path d="M493.531075,61.1149431 C477.251075,63.3049431 460.441075,62.6149431 444.051075,62.5049431 C432.711075,62.4349431 421.361075,62.5049431 410.051075,62.4149431 C381.711075,62.3049431 353.381075,62.0749431 325.051075,61.9149431 C298.611075,61.7549431 272.171075,61.5449431 245.731075,61.7749431 C216.421075,62.0349431 187.171075,63.4649431 157.841075,63.1449431 C109.841075,62.6149431 61.8410755,60.7249431 13.7510755,60.7049431 C9.32107547,60.7049431 5.44107547,66.4049431 5.75107547,70.5649431 C9.07107547,112.564943 4.75107547,154.664943 7.16107547,196.644943 C7.34107547,199.894943 9.77107547,201.264943 12.6710755,199.834943 C15.9141471,197.900212 17.9206909,194.420941 17.9710755,190.644943 C15.7410755,151.964943 19.2310755,113.134943 17.2010755,74.4649431 C57.5810755,74.6549431 97.9410755,75.9649431 138.311075,76.6549431 C170.571075,77.2149431 202.701075,76.0149431 234.941075,75.5649431 C289.291075,74.8049431 343.691075,75.8549431 398.051075,76.1049431 C410.381075,76.1649431 422.711075,76.1049431 435.051075,76.2049431 C453.621075,76.3249431 472.571075,77.0749431 491.051075,74.6049431 C496.541075,73.8949431 501.241075,60.0749431 493.531075,61.1149431 Z" fill="#000000" opacity="0.2"></path>
            <path d="M488.441075,147.684943 C488.201075,129.074943 488.551075,110.454943 488.441075,91.8349431 C488.441075,88.5349431 485.711075,87.2749431 482.931075,88.6549431 C479.811075,90.1949431 477.591075,94.4349431 477.621075,97.8349431 C477.761075,114.234943 477.561075,130.634943 477.621075,147.034943 C477.621075,155.314943 478.341075,163.434943 478.861075,171.694943 C479.001075,173.894943 479.091075,176.094943 479.041075,178.294943 C478.968088,179.180717 478.847918,180.061968 478.681075,180.934943 L478.581075,180.934943 C477.310998,181.483592 475.95992,181.821362 474.581075,181.934943 C470.711075,182.144943 466.711075,181.524943 462.801075,181.654943 C458.541075,181.784943 454.301075,182.154943 450.061075,182.544943 C441.967845,183.258343 433.825557,183.211471 425.741075,182.404943 C409.631075,180.934943 393.371075,180.934943 377.201075,180.514943 C371.361075,180.364943 365.561075,194.074943 372.041075,194.234943 C390.091075,194.704943 408.041075,195.234943 426.041075,196.604943 C435.441075,197.314943 444.461075,196.094943 453.821075,195.554943 C462.021075,195.074943 470.391075,196.904943 478.111075,193.554943 C486.111075,190.124943 489.051075,184.254943 489.621075,175.904943 C490.261075,166.484943 488.551075,157.134943 488.441075,147.684943 Z" fill="#000000" opacity="0.15"></path>
            <path d="M352.881075,156.224943 C352.301075,149.024943 352.421075,141.794943 352.421075,134.574943 C352.421075,120.324943 352.551075,106.084943 352.421075,91.8349431 C352.421075,88.5349431 349.701075,87.2749431 346.911075,88.6549431 C343.791075,90.1949431 341.581075,94.4349431 341.611075,97.8349431 C341.801075,121.494943 340.711075,145.264943 342.611075,168.834943 C342.841075,171.664943 343.051075,174.494943 343.021075,177.334943 C343.021075,178.334943 342.961075,179.334943 342.901075,180.334943 C341.847863,180.96969 340.714481,181.46071 339.531075,181.794943 C338.098429,181.896519 336.659657,181.873098 335.231075,181.724943 C327.861075,181.374943 320.461075,181.574943 313.091075,181.774943 C300.581075,182.104943 289.721075,183.294943 277.901075,183.234943 C263.321075,183.164943 248.751075,182.574943 234.181075,182.034943 C215.261075,181.334943 196.321075,180.974943 177.391075,180.494943 C171.551075,180.344943 165.751075,194.054943 172.231075,194.214943 C205.861075,195.064943 239.571075,196.834943 273.231075,196.954943 C286.331075,196.954943 299.421075,195.644943 312.541075,195.384943 C319.691075,195.244943 326.891075,195.824943 334.021075,195.644943 C338.362567,195.377337 342.546059,193.917094 346.111075,191.424943 C351.111075,188.024943 353.111075,183.424943 353.521075,177.524943 C354.091075,170.374943 353.451075,163.404943 352.881075,156.224943 Z M344.651075,179.794943 C344.740807,179.785116 344.831344,179.785116 344.921075,179.794943 L344.651075,179.794943 Z" id="形状" fill="#000000" opacity="0.15"></path>
            <path d="M153.191075,170.404943 C153.111075,162.174943 151.841075,154.004943 151.791075,145.764943 C151.661075,127.764943 151.911075,109.814943 151.791075,91.8349431 C151.791075,88.5349431 149.071075,87.2749431 146.281075,88.6549431 C143.161075,90.1949431 140.951075,94.4349431 140.981075,97.8349431 C141.131075,116.134943 140.811075,134.424943 140.981075,152.724943 C141.081075,162.044943 142.791075,171.344943 142.251075,180.664943 C141.179891,181.185487 140.052519,181.581409 138.891075,181.844943 C136.221075,182.204943 133.451075,181.504943 130.731075,181.684943 C125.401075,182.024943 120.311075,183.294943 114.901075,183.284943 C107.631075,183.284943 100.371075,182.714943 93.1210755,182.284943 C76.1210755,181.134943 59.1210755,181.024943 42.0610755,180.594943 C36.2210755,180.444943 30.4210755,194.154943 36.9010755,194.314943 C52.0610755,194.704943 67.2810755,194.704943 82.4210755,195.634943 C94.2610755,196.364943 106.321075,197.864943 118.171075,196.634943 C122.531075,196.194943 126.311075,195.264943 130.681075,195.554943 C136.496266,195.958594 142.252503,194.175373 146.821075,190.554943 C153.031075,185.524943 153.261075,177.784943 153.191075,170.404943 Z" fill="#000000" opacity="0.15"></path>
            <path d="M28.5910755,87.8949431 C28.8210755,85.8949431 33.0210755,81.8949431 35.3910755,81.7949431 C36.9010755,81.7949431 132.571075,81.0849431 138.581075,82.5149431 C139.821075,82.8149431 142.831075,86.7249431 143.031075,87.7449431 C143.231075,88.7649431 143.811075,176.954943 143.641075,179.994943 C143.561075,181.354943 141.471075,186.544943 132.641075,186.414943 C128.361075,186.354943 41.9610755,187.474943 37.8410755,187.494943 C31.7610755,187.494943 28.5810755,181.044943 28.4710755,178.564943 C28.3610755,176.084943 28.3710755,89.8949431 28.5910755,87.8949431 Z" fill="#F7941F"></path>
            <path d="M344.421075,87.8949431 C344.201075,85.8949431 339.231075,82.1349431 337.691075,82.0849431 C333.331075,81.9249431 177.091075,81.8549431 172.901075,81.9849431 C171.101075,82.0449431 166.181075,84.4049431 165.651075,85.3049431 C164.361075,87.4549431 164.421075,89.8649431 164.491075,92.1949431 C164.491075,93.7049431 163.891075,176.954943 164.071075,179.994943 C164.151075,181.354943 168.561075,186.634943 172.151075,186.724943 C176.431075,186.824943 322.151075,187.574943 324.651075,187.644943 C328.841075,187.764943 339.431075,186.644943 340.651075,185.974943 C343.431075,184.404943 344.411075,181.044943 344.531075,178.564943 C344.651075,176.084943 344.641075,89.8949431 344.421075,87.8949431 Z" fill="#F7941F"></path>
            <path d="M473.861075,81.3649431 C475.861075,81.5849431 478.961075,84.6849431 479.971075,87.1649431 C480.221075,87.7749431 480.341075,179.424943 479.641075,180.934943 C479.111075,182.094943 477.351075,185.794943 476.461075,186.324943 C474.301075,187.614943 371.921075,188.704943 370.771075,187.644943 C368.671075,185.704943 365.421075,180.544943 365.341075,176.954943 C365.241075,172.674943 363.521075,95.4749431 364.271075,91.4249431 C364.74254,89.0638145 365.439054,86.7532661 366.351075,84.5249431 C367.911075,81.7349431 370.711075,81.4049431 373.191075,81.2849431 C375.671075,81.1649431 471.881075,81.1449431 473.861075,81.3649431 Z" fill="#F7941F"></path>
            <path d="M477.251075,83.0149431 C459.251075,84.2349431 441.491075,84.9249431 423.491075,83.6849431 C414.321075,83.0549431 405.151075,82.2249431 395.951075,81.9249431 C391.691075,81.7949431 387.431075,81.7649431 383.181075,81.9249431 C379.621075,82.0549431 375.441075,81.7749431 372.181075,83.2949431 C364.961075,86.5949431 363.811075,95.1049431 366.641075,101.574943 C366.741075,101.804943 366.831075,102.054943 366.931075,102.294943 C366.827821,102.822518 366.767623,103.357614 366.751075,103.894943 C366.271075,117.494943 365.261075,131.204943 365.491075,144.824943 C365.601075,151.764943 367.011075,158.594943 367.031075,165.544943 C367.031075,171.684943 366.511075,177.644943 368.521075,183.544943 C370.271075,188.724943 376.101075,184.254943 377.621075,181.314943 C381.121075,174.534943 380.221075,167.734943 380.801075,160.374943 C381.461075,151.934943 382.481075,143.584943 382.551075,135.104943 C382.599938,126.765128 382.072012,118.431916 380.971075,110.164943 C380.471075,106.384943 379.971075,102.544943 379.121075,98.8149431 C378.861075,97.6849431 378.571075,96.5549431 378.221075,95.4449431 C379.881075,95.4449431 381.521075,95.5049431 382.971075,95.4449431 C386.901075,95.4449431 390.831075,95.5349431 394.761075,95.7149431 C403.631075,96.1349431 412.471075,96.9449431 421.331075,97.5149431 C438.331075,98.5949431 455.171075,97.7949431 472.131075,96.6449431 C475.651075,96.4049431 478.301075,93.4249431 479.461075,90.2249431 C480.091075,88.4849431 480.831075,82.7749431 477.251075,83.0149431 Z" fill="#FFFFFF" opacity="0.25"></path>
            <path d="M338.271075,85.3049431 C335.321075,82.4549431 329.761075,83.0349431 325.971075,82.7749431 C320.751075,82.4282764 315.527742,82.1949431 310.301075,82.0749431 C299.831075,81.8349431 289.371075,82.0749431 278.921075,82.7449431 C277.905102,82.8168065 276.917879,83.1139982 276.031075,83.6149431 C269.581075,83.1049431 263.111075,82.6149431 256.651075,82.3349431 C233.351075,81.1449431 209.981075,81.4249431 186.841075,84.3349431 C185.521075,84.1249431 184.201075,83.9349431 182.841075,83.7749431 C178.071075,83.1849431 173.701075,82.6549431 169.931075,86.1749431 C166.161075,89.6949431 165.391075,94.1749431 165.591075,99.0249431 C165.831075,104.964943 166.081075,110.904943 166.231075,116.844943 C166.497742,128.064943 166.541075,139.288276 166.361075,150.514943 C166.191075,160.994943 165.061075,171.854943 168.641075,181.924943 C171.211075,189.164943 180.941075,178.294943 179.051075,172.974943 C176.861075,166.824943 176.811075,160.604943 176.961075,154.154943 C177.121075,146.974943 177.271075,139.804943 177.291075,132.624943 C177.311075,125.444943 177.221075,118.104943 177.041075,110.844943 C176.961075,107.51161 176.857742,104.208276 176.731075,100.934943 C176.731075,100.304943 176.651075,99.6149431 176.581075,98.9349431 C178.401075,98.6649431 180.211075,98.3949431 182.031075,98.1549431 C185.591075,98.7249431 189.101075,99.4649431 192.601075,100.334943 C194.671075,100.844943 197.031075,98.9649431 198.691075,96.4349431 C232.001075,93.9149431 265.561075,96.5349431 298.771075,99.9549431 C308.151075,100.954943 318.221075,103.144943 327.651075,101.874943 C332.001075,101.284943 335.651075,99.7449431 338.001075,95.8749431 C339.911075,92.7249431 341.191075,88.1249431 338.271075,85.3049431 Z" fill="#FFFFFF" opacity="0.25"></path>
            <path d="M139.091075,86.8949431 C139.241075,84.8949431 138.431075,83.3049431 136.141075,83.0149431 C117.071075,80.6349431 97.9210755,84.0149431 78.8110755,83.5749431 C69.0010755,83.3249431 59.1910755,82.5749431 49.3710755,82.8049431 C45.1810755,82.9249431 39.3110755,82.4349431 35.5310755,84.5849431 C31.9410755,86.5849431 30.1910755,90.7949431 29.7510755,94.6949431 C28.6610755,104.284943 28.8510755,114.194943 28.4310755,123.834943 C28.0110755,133.474943 27.6510755,143.124943 27.8010755,152.774943 C27.9310755,161.044943 27.8010755,170.164943 30.1610755,178.154943 C31.8410755,183.774943 36.8310755,191.974943 43.1610755,186.314943 C45.7610755,183.984943 47.6810755,180.174943 46.8910755,176.624943 C46.8910755,176.424943 46.8010755,176.234943 46.7610755,176.034943 C46.2510755,173.784943 44.4410755,173.464943 42.7010755,173.944943 C41.5310755,172.524943 40.6510755,169.504943 40.3910755,168.544943 C39.6911273,165.507146 39.2793031,162.410094 39.1610755,159.294943 C38.6110755,151.594943 38.5210755,143.874943 38.6510755,136.164943 C38.7810755,128.454943 39.1410755,120.704943 39.4810755,112.984943 C39.6410755,109.394943 39.7910755,105.814943 39.9510755,102.234943 C40.0410755,100.234943 40.1210755,98.3249431 40.2110755,96.3649431 L40.2110755,96.3649431 C46.3610755,95.7349431 53.2110755,96.5449431 58.9410755,96.7649431 C67.1010755,97.0749431 75.2610755,97.5549431 83.4310755,97.3849431 C87.0210755,97.3049431 90.6110755,97.1249431 94.2010755,96.9249431 C94.4358857,96.9874443 94.6781052,97.0177218 94.9210755,97.0149431 L110.411075,96.9149431 C118.175726,97.3593125 125.878701,98.5582972 133.411075,100.494943 C138.781075,101.784943 144.951075,89.1149431 139.091075,86.8949431 Z" fill="#FFFFFF" opacity="0.25"></path>
            <path d="M144.801075,140.214943 C144.591075,126.274943 144.271075,112.334943 144.151075,98.3849431 C144.151075,92.9849431 145.951075,84.8349431 139.861075,82.0049431 C137.671075,81.0049431 134.921075,81.1549431 132.571075,81.0749431 C128.981075,80.9549431 125.381075,80.7849431 121.781075,80.7349431 C120.661075,80.7349431 119.531075,80.7349431 118.411075,80.7349431 L73.2910755,80.7349431 L50.1510755,80.7349431 C44.6610755,80.7349431 37.0810755,79.5849431 31.9310755,81.9749431 C26.7810755,84.3649431 27.9310755,89.2149431 27.9310755,93.8149431 C27.9245449,93.8714216 27.9245449,93.9284646 27.9310755,93.9849431 C27.7810755,118.984943 27.3610755,143.984943 27.0910755,168.984943 C27.0310755,174.464943 25.7910755,183.164943 31.1810755,186.394943 C36.2510755,189.394943 44.5810755,188.954943 50.2310755,188.714943 C54.7110755,188.524943 59.0810755,188.714943 63.5410755,188.814943 C77.6810755,189.124943 91.9310755,188.344943 106.071075,188.104943 L119.831075,187.894943 C125.971075,187.774943 133.221075,188.594943 139.181075,186.894943 C144.611075,185.354943 144.681075,181.394943 144.981075,176.384943 C145.671075,164.334943 145.031075,152.234943 144.801075,140.214943 Z M142.801075,174.514943 C142.701075,176.114943 142.961075,178.454943 142.481075,179.984943 C140.901075,184.984943 138.061075,184.984943 134.221075,185.224943 C130.061075,185.514943 125.831075,185.434943 121.661075,185.524943 C117.941075,185.604943 114.231075,185.664943 110.521075,185.724943 C96.3210755,185.95161 82.1177421,186.19161 67.9110755,186.444943 C61.3710755,186.554943 54.9110755,186.354943 48.3410755,186.504943 C44.2625575,186.693324 40.1762244,186.387772 36.1710755,185.594943 C31.1010755,184.444943 29.8210755,181.664943 29.5210755,176.724943 C29.3677421,174.364943 29.2810755,172.004943 29.2610755,169.644943 C29.0710755,144.424943 29.1710755,119.184943 29.3210755,93.9749431 C29.3257539,93.9283937 29.3257539,93.8814925 29.3210755,93.8349431 C29.5510755,89.1649431 28.5510755,84.6849431 34.5510755,83.1349431 C38.1910755,82.2049431 42.6210755,82.6749431 46.3410755,82.6849431 C48.7010755,82.6849431 51.0510755,82.6849431 53.4110755,82.7449431 C58.4110755,82.7449431 63.3410755,82.7449431 68.3010755,82.7449431 L112.471075,82.7449431 C115.561075,82.7449431 118.651075,82.7449431 121.741075,82.7449431 C128.181075,82.8449431 141.061075,80.8449431 142.101075,89.3049431 C142.431075,91.9849431 141.981075,94.7849431 141.981075,97.4849431 C141.981075,109.224943 142.311075,120.984943 142.471075,132.724943 C142.641075,144.954943 143.001075,157.204943 142.971075,169.434943 C143.031075,171.174943 142.931075,172.824943 142.831075,174.514943 L142.801075,174.514943 Z" id="形状" fill="#1E1E1E"></path>
            <path d="M345.841075,169.644943 C345.841075,166.444943 345.781075,163.254943 345.741075,160.064943 C345.541075,139.638276 345.337742,119.208276 345.131075,98.7749431 C345.131075,97.1849431 345.131075,95.5949431 345.081075,94.0049431 C345.087606,93.9484646 345.087606,93.8914216 345.081075,93.8349431 C344.971075,87.0649431 345.141075,82.0549431 337.081075,81.0949431 C331.501075,80.4349431 325.761075,80.7849431 320.151075,80.7849431 L303.951075,80.7849431 C282.137742,80.7849431 260.327742,80.7849431 238.521075,80.7849431 L188.031075,80.7849431 C185.531075,80.7849431 183.031075,80.8749431 180.541075,80.9549431 C174.181075,81.1549431 165.421075,79.7749431 163.661075,87.7549431 C162.891075,91.2949431 163.611075,95.1549431 163.551075,98.7549431 C163.497742,102.20161 163.444409,105.644943 163.391075,109.084943 C163.091075,128.898276 162.784409,148.708276 162.471075,168.514943 C162.401075,172.714943 162.171075,177.344943 163.091075,181.384943 C164.681075,188.444943 173.281075,187.544943 178.991075,187.654943 C185.831075,187.788276 192.661075,187.89161 199.481075,187.964943 C235.701075,188.324943 271.901075,188.734943 308.101075,188.474943 C313.631075,188.474943 319.101075,188.674943 324.671075,188.784943 C330.601075,188.894943 342.301075,189.534943 344.921075,182.634943 C346.391075,178.714943 345.851075,173.784943 345.841075,169.644943 Z M343.841075,171.244943 C343.781075,173.664943 343.671075,176.134943 343.471075,178.554943 C343.121075,182.764943 340.771075,184.784943 336.841075,185.624943 C331.671075,186.724943 326.331075,186.624943 321.091075,186.394943 C307.031075,185.864943 292.971075,186.564943 278.911075,186.394943 L217.971075,185.794943 L194.541075,185.574943 L190.431075,185.574943 L181.951075,185.404943 C176.391075,185.304943 167.411075,186.844943 165.221075,179.984943 C164.161075,176.674943 164.661075,172.264943 164.711075,168.674943 L164.831075,159.274943 C164.971075,148.808276 165.117742,138.334943 165.271075,127.854943 C165.397742,119.014943 165.524409,110.17161 165.651075,101.324943 C165.651075,99.7949431 165.721075,98.2549431 165.711075,96.7249431 C165.711075,91.1549431 164.411075,83.9749431 171.991075,83.2849431 C176.581075,82.8649431 181.321075,82.8949431 185.931075,82.8249431 C197.551075,82.6549431 209.181075,82.8249431 220.801075,82.8249431 C254.201075,82.8249431 287.591075,82.9449431 320.991075,82.7449431 C325.051075,82.7449431 329.111075,82.6349431 333.181075,82.7449431 C336.261075,82.8249431 338.681075,82.8049431 341.181075,84.6649431 C344.411075,87.0549431 343.471075,90.3249431 343.631075,93.8449431 C343.625423,93.8914386 343.625423,93.9384476 343.631075,93.9849431 C343.731075,109.634943 343.701075,125.274943 343.731075,140.924943 C343.731075,149.63161 343.731075,158.344943 343.731075,167.064943 C343.811075,168.444943 343.851075,169.894943 343.821075,171.244943 L343.841075,171.244943 Z" id="形状" fill="#1E1E1E"></path>
            <path d="M481.031075,108.114943 C481.031075,106.694943 481.031075,105.274943 481.031075,103.854943 C481.031075,98.0449431 482.321075,90.1649431 479.791075,84.6949431 C477.461075,79.6949431 472.561075,80.6949431 467.951075,80.6949431 C467.89488,80.6846097 467.837271,80.6846097 467.781075,80.6949431 C441.541075,80.5549431 415.311075,80.0449431 389.071075,79.8649431 C385.621075,79.8649431 382.171075,79.7549431 378.721075,79.8649431 C374.161075,80.0649431 368.131075,79.3649431 365.411075,83.8649431 C362.221075,89.1949431 362.851075,97.9449431 363.141075,103.864943 C363.821075,117.864943 363.331075,132.254943 363.601075,146.354943 C363.711075,152.154943 363.811075,157.954943 363.941075,163.744943 C364.071075,169.534943 363.801075,175.224943 364.501075,180.834943 C365.111075,185.664943 366.841075,188.434943 371.801075,188.974943 C383.691075,190.274943 395.981075,189.274943 407.901075,189.114943 L455.901075,188.454943 C459.451075,188.404943 463.001075,188.294943 466.551075,188.384943 C470.751075,188.484943 476.121075,189.204943 479.021075,185.384943 C480.331075,183.644943 480.481075,181.384943 480.591075,179.294943 C480.821075,175.184943 480.901075,171.054943 480.991075,166.934943 C481.241075,154.284943 480.991075,141.604943 480.991075,128.934943 C481.017742,122.008276 481.031075,115.068276 481.031075,108.114943 Z M479.031075,99.1749431 C479.031075,101.714943 478.971075,104.264943 478.971075,106.804943 L478.971075,123.714943 C478.971075,137.168276 478.971075,150.614943 478.971075,164.054943 C478.971075,165.924943 478.911075,167.784943 478.851075,169.664943 C478.741075,173.094943 478.851075,176.584943 478.511075,180.004943 C477.861075,187.004943 471.891075,186.474943 466.571075,186.354943 C463.641075,186.284943 460.711075,186.354943 457.781075,186.354943 L415.571075,186.874943 C404.271075,187.004943 392.951075,187.384943 381.651075,187.264943 C378.977301,187.354396 376.300785,187.213879 373.651075,186.844943 C366.571075,185.504943 366.651075,180.784943 366.491075,175.084943 C366.401075,171.404943 366.311075,167.734943 366.241075,164.084943 C366.151075,159.874943 366.081075,155.664943 366.001075,151.444943 C365.771075,138.814943 364.651075,125.854943 365.281075,113.234943 C365.491075,109.164943 365.401075,105.234943 365.281075,101.124943 C365.08806,97.0496758 365.393657,92.9660909 366.191075,88.9649431 C367.731075,82.1249431 372.881075,82.3949431 378.711075,82.1449431 C381.711075,82.0149431 384.611075,82.0749431 387.571075,82.0849431 C414.321075,82.2049431 441.061075,81.9649431 467.801075,82.0849431 L467.941075,82.0849431 C472.611075,82.3149431 477.101075,81.3149431 478.641075,87.3049431 C479.551075,91.0149431 479.031075,95.4449431 479.031075,99.1749431 Z" id="形状" fill="#1E1E1E"></path>
            <path d="M501.501075,176.244943 C501.354409,164.944943 501.197742,153.64161 501.031075,142.334943 C500.731075,120.984943 500.031075,99.5949431 500.161075,78.2549431 C500.161075,72.4549431 501.711075,64.8349431 495.161075,61.9449431 C490.881075,60.0649431 485.321075,60.8149431 480.771075,60.6949431 C477.771075,60.6149431 474.771075,60.4849431 471.721075,60.4549431 C469.431075,60.4549431 467.141075,60.4549431 464.851075,60.4549431 L424.701075,60.4549431 L277.751075,60.4549431 L117.751075,60.4549431 C90.8710755,60.4549431 63.9910755,60.5849431 37.1210755,60.5249431 C30.9410755,60.5249431 24.7410755,60.3449431 18.5610755,60.6949431 C15.1810755,60.8849431 11.1510755,61.0749431 8.49107547,63.4449431 C5.10107547,66.4449431 6.24107547,70.5849431 6.12107547,74.6049431 C6.11549367,74.6681535 6.11549367,74.7317328 6.12107547,74.7949431 C6.02107547,93.8549431 5.85107547,112.924943 5.71107547,131.994943 C5.61774214,144.66161 5.52440881,157.328276 5.43107547,169.994943 C5.43107547,177.584943 4.65107547,185.994943 5.96107547,193.454943 C7.44107547,201.864943 18.2310755,201.744943 24.9610755,202.124943 C33.5110755,202.614943 42.1510755,202.074943 50.7210755,202.324943 C53.1610755,202.394943 55.6110755,202.324943 58.0610755,202.324943 L100.131075,202.324943 C150.064409,202.284943 199.997742,202.174943 249.931075,201.994943 C301.804409,201.874943 353.674409,201.744943 405.541075,201.604943 L454.891075,201.474943 L467.041075,201.474943 C475.801075,201.474943 485.231075,202.304943 493.771075,200.474943 C502.311075,198.644943 501.391075,190.364943 501.571075,183.004943 C501.651075,180.714943 501.531075,178.474943 501.501075,176.244943 Z M499.341075,183.004943 C499.281075,185.004943 499.071075,187.004943 498.931075,189.004943 C498.621075,193.534943 497.931075,197.094943 493.191075,198.214943 C486.811075,199.714943 479.481075,198.964943 472.971075,199.094943 C470.201075,199.144943 467.451075,199.164943 464.681075,199.174943 L428.161075,199.264943 L287.331075,199.604943 L131.331075,200.024943 C104.611075,200.104943 77.6910755,201.204943 50.9710755,200.334943 C45.5910755,200.164943 40.3610755,199.994943 34.9710755,200.224943 C28.7676345,200.575733 22.5445473,200.284183 16.4010755,199.354943 C12.9810755,198.804943 9.26107547,197.964943 8.01107547,194.264943 C6.94107547,191.074943 7.23107547,186.824943 7.15107547,183.454943 C7.02107547,177.794943 7.15107547,172.114943 7.21107547,166.454943 C7.31107547,141.274943 7.40440881,116.09161 7.49107547,90.9049431 C7.49107547,85.5349431 7.49107547,80.1549431 7.55107547,74.7849431 C7.55575386,74.7383937 7.55575386,74.6914925 7.55107547,74.6449431 C7.72107547,70.7949431 6.64107547,66.3449431 10.5510755,63.9649431 C13.2010755,62.3649431 16.9110755,62.5449431 19.9410755,62.4549431 C25.5310755,62.2949431 31.1310755,62.3949431 36.7310755,62.4549431 L48.5310755,62.4549431 C63.1310755,62.4549431 77.7310755,62.4549431 92.3310755,62.4549431 L239.331075,62.5049431 L393.651075,62.5049431 C419.561075,62.5049431 445.501075,62.2449431 471.411075,62.5049431 C476.901075,62.5749431 482.411075,62.7049431 487.911075,62.9449431 C493.791075,63.2149431 498.031075,64.8149431 498.211075,71.2449431 C498.271075,73.4049431 498.001075,75.5749431 497.991075,77.7249431 C497.991075,78.3049431 497.991075,78.8749431 497.991075,79.4449431 C498.051075,88.0649431 498.221075,96.6849431 498.331075,105.304943 C498.637742,129.304943 498.944409,153.34161 499.251075,177.414943 C499.291075,179.334943 499.391075,181.174943 499.341075,183.004943 L499.341075,183.004943 Z" id="形状" fill="#1E1E1E"></path>
            <path d="M31.4910755,33.7349431 C31.4010755,31.6649431 31.4910755,29.4649431 30.7710755,27.5149431 C30.5010755,26.7849431 29.3310755,26.6249431 29.1310755,27.5149431 C28.6710755,29.5149431 29.0110755,31.6649431 29.1310755,33.7349431 C29.2310755,36.0649431 29.2910755,38.3949431 29.3310755,40.7349431 C29.3310755,41.3976848 29.8683338,41.9349431 30.5310755,41.9349431 C31.1938172,41.9349431 31.7310755,41.3976848 31.7310755,40.7349431 C31.6610755,38.3949431 31.6010755,36.0649431 31.4910755,33.7349431 Z" fill="#F7941F"></path>
            <path d="M40.7910755,39.1649431 C39.0210755,41.4349431 38.6610755,34.1649431 38.6510755,34.1049431 C38.6510755,32.9849431 38.6510755,31.8549431 38.6510755,30.7349431 C38.6510755,30.0949431 38.6510755,29.4649431 38.6510755,28.8249431 C39.5019402,28.836916 40.3508234,28.9104413 41.1910755,29.0449431 C43.1210755,29.3949431 43.2710755,26.3849431 41.5310755,26.5449431 C40.5717278,26.5949916 39.6104232,26.5949916 38.6510755,26.5449431 C38.6510755,25.4549431 38.6510755,24.3649431 38.5310755,23.2749431 C38.5310755,22.7557954 38.1102231,22.3349431 37.5910755,22.3349431 C37.0719278,22.3349431 36.6510755,22.7557954 36.6510755,23.2749431 C36.5010755,24.3749431 36.4210755,25.4749431 36.3510755,26.5749431 C35.4432405,26.5379125 34.5480596,26.7976904 33.8010755,27.3149431 C33.651409,27.4643134 33.5797459,27.6748077 33.6071786,27.8844717 C33.6346113,28.0941357 33.7580175,28.2791068 33.9410755,28.3849431 C34.665926,28.7187189 35.4676181,28.8500305 36.2610755,28.7649431 C36.2610755,30.0849431 36.2610755,31.4049431 36.2610755,32.7649431 C36.2610755,34.9549431 36.0410755,37.6149431 36.9110755,39.6649431 C37.9710755,42.1349431 40.7110755,43.0149431 42.6310755,40.9749431 C43.7310755,39.7449431 41.7810755,37.8949431 40.7910755,39.1649431 Z" fill="#F7941F"></path>
            <path d="M58.1710755,34.2249431 C58.5871485,34.2039104 58.9631401,33.9703151 59.166323,33.6066177 C59.3695059,33.2429203 59.3713013,32.8002768 59.1710755,32.4349431 C58.4810755,30.8349431 57.9610755,28.7149431 56.4710755,27.6749431 C55.0495068,26.8768572 53.4063619,26.5643788 51.7910755,26.7849431 C48.3310755,26.9949431 45.3310755,28.8849431 44.5710755,32.4149431 C43.9460555,35.5637362 45.3669107,38.7656633 48.1210755,40.4149431 C51.2710755,42.4149431 55.0110755,41.8249431 58.1210755,40.0049431 C59.6210755,39.1249431 58.1210755,36.7149431 56.7810755,37.7149431 C54.9651301,39.1908331 52.5207165,39.6359578 50.3010755,38.8949431 C48.5552505,38.2458659 47.2444198,36.7739904 46.8010755,34.9649431 C50.6055061,35.0552209 54.4104407,34.8075822 58.1710755,34.2249431 L58.1710755,34.2249431 Z M52.6610755,29.1349431 C54.9810755,29.3149431 55.7510755,30.4649431 56.4610755,32.0449431 C53.2510755,32.3549431 49.9710755,32.4349431 46.8010755,32.9049431 C47.4010755,30.2649431 50.0310755,28.8949431 52.6610755,29.1349431 L52.6610755,29.1349431 Z" id="形状" fill="#F7941F"></path>
            <path d="M84.2910755,30.7449431 C84.2310755,29.2049431 84.1010755,27.3549431 82.5810755,26.5149431 C80.1210755,25.1649431 76.5110755,26.7849431 74.3310755,28.8549431 C74.2172106,28.0537087 73.7844635,27.3324636 73.1310755,26.8549431 C70.5710755,25.1449431 67.3510755,26.7849431 65.3910755,28.9449431 C65.3120605,28.4371867 65.1640241,27.9426106 64.9510755,27.4749431 C64.8327729,27.2722704 64.6157491,27.1476592 64.3810755,27.1476592 C64.1464019,27.1476592 63.929378,27.2722704 63.8110755,27.4749431 C62.9310755,29.2649431 63.2010755,31.3049431 63.1610755,33.2649431 C63.1610755,35.7449431 62.9910755,38.2649431 63.0810755,40.7149431 C63.0810755,41.3390249 63.5869937,41.8449431 64.2110755,41.8449431 C64.8351572,41.8449431 65.3410755,41.3390249 65.3410755,40.7149431 C65.4910755,38.2449431 65.4410755,35.7149431 65.4610755,33.2649431 C65.4610755,32.6449431 65.4610755,32.0249431 65.4610755,31.4049431 C66.4603465,30.1030058 67.8697066,29.1763515 69.4610755,28.7749431 C72.0210755,28.1349431 72.1310755,29.2249431 72.1410755,31.3549431 C72.1410755,34.5149431 72.2010755,37.7249431 71.9910755,40.8749431 C71.8810755,42.5049431 74.6310755,42.5149431 74.5310755,40.8749431 C74.3610755,37.8749431 74.5310755,34.8149431 74.4610755,31.7949431 L74.4610755,31.2949431 C75.3872264,30.3461302 76.5199952,29.6240328 77.7710755,29.1849431 C78.4084448,28.924353 79.0839029,28.7689976 79.7710755,28.7249431 C81.0610755,28.7249431 81.4410755,29.0549431 81.7710755,30.2349431 C81.9560782,31.7459681 81.9560782,33.2739181 81.7710755,34.7849431 C81.7710755,36.6349431 81.6410755,38.4849431 81.5210755,40.3349431 C81.4010755,42.1849431 84.1310755,42.0649431 84.2210755,40.3349431 C84.4043652,37.1414455 84.4277278,33.9407761 84.2910755,30.7449431 L84.2910755,30.7449431 Z" fill="#F7941F"></path>
            <path d="M99.0310755,28.1249431 C96.8810755,23.7849431 87.2810755,24.8149431 87.2610755,30.2049431 C87.2610755,32.6549431 89.4910755,34.2049431 91.6110755,34.8349431 C92.9710755,35.2049431 95.8410755,34.9249431 96.8910755,35.9549431 C99.5910755,38.5849431 95.4810755,39.7549431 94.0210755,40.0149431 C92.1810755,40.3549431 90.3810755,40.0749431 89.3310755,38.2749431 C89.0970665,37.8640877 88.6616446,37.6092839 88.1888288,37.6065139 C87.7160131,37.6037439 87.2776356,37.8534285 87.0388288,38.2615139 C86.8000221,38.6695993 86.7970665,39.1740877 87.0310755,39.5849431 C88.7610755,42.5849431 91.0910755,43.1549431 94.4910755,42.5849431 C97.0010755,42.1749431 100.541075,40.5849431 100.761075,37.5849431 C100.971075,34.8249431 98.0010755,33.3049431 95.7610755,32.8849431 C94.1610755,32.5849431 90.6410755,32.8849431 89.8410755,30.9649431 C89.0410755,29.0449431 91.1610755,28.2749431 92.4710755,27.9649431 C94.2250329,27.4865575 96.0987384,28.0401523 97.3110755,29.3949431 C98.1810755,30.3349431 99.5310755,29.1349431 99.0110755,28.0749431 L99.0310755,28.1249431 Z" fill="#F7941F"></path>
            <path d="M129.451075,68.9549431 L125.501075,71.5749431 C131.691075,56.2249431 127.741075,33.8049431 107.451075,33.9449431 C107.020562,34.0180087 106.687241,34.3619671 106.62773,34.7945623 C106.56822,35.2271574 106.796284,35.6483435 107.191075,35.8349431 C113.721075,37.2849431 119.731075,38.7749431 123.191075,45.1149431 C127.361075,52.7349431 126.471075,62.0349431 123.431075,69.8849431 C122.86516,68.6226634 122.117203,67.450191 121.211075,66.4049431 C120.907027,66.1122702 120.445194,66.0581064 120.081679,66.2724874 C119.718163,66.4868683 119.542081,66.9172387 119.651075,67.3249431 C120.311075,69.7549431 121.791075,72.0649431 122.751075,74.4049431 C122.857692,74.767945 123.124198,75.0624131 123.474798,75.2046008 C123.825397,75.3467885 124.221729,75.3211375 124.551075,75.1349431 C126.601075,73.8049431 128.641075,72.4449431 130.681075,71.1349431 C132.031075,70.2249431 130.781075,68.0749431 129.451075,68.9549431 Z" fill="#F7941F"></path>
            <path d="M231.421075,67.6949431 C230.411877,68.5774767 229.469308,69.5334155 228.601075,70.5549431 C227.461075,59.4549431 225.031075,48.7949431 217.031075,40.4449431 C209.311075,32.4449431 198.731075,27.6149431 188.321075,24.1349431 C175.59568,20.0538264 162.183525,18.5545209 148.871075,19.7249431 C134.561075,20.9849431 120.601075,25.4249431 106.951075,29.6549431 C106.526496,29.8696792 106.312009,30.3538322 106.438225,30.8125793 C106.564441,31.2713263 106.996405,31.5776196 107.471075,31.5449431 C119.531075,28.5449431 131.331075,24.4549431 143.671075,22.6949431 C156.351075,20.8849431 170.901075,21.5649431 183.221075,25.1549431 C193.421075,28.1549431 203.781075,32.3949431 211.961075,39.3249431 C221.621075,47.5049431 225.091075,58.9949431 225.961075,71.1949431 C224.837275,70.1936435 223.548122,69.3951129 222.151075,68.8349431 C221.151075,68.4949431 220.721075,69.7349431 221.251075,70.3849431 C222.691075,72.1449431 224.861075,73.4349431 226.571075,74.9649431 C226.844016,75.2225055 227.218235,75.343811 227.590374,75.2953554 C227.962513,75.2468999 228.293191,75.0338109 228.491075,74.7149431 C229.909448,72.8285615 231.492315,71.07168 233.221075,69.4649431 C234.371075,68.3549431 232.621075,66.6449431 231.421075,67.6949431 Z" fill="#F7941F"></path>
            <path d="M425.781075,67.3749431 C424.879833,68.2869654 424.078619,69.2926738 423.391075,70.3749431 C419.801075,51.7849431 403.841075,39.3149431 388.391075,30.1749431 C368.531075,18.4149431 345.871075,11.9049431 323.391075,7.32494311 C277.611075,-2.00505689 230.151075,-2.02505689 184.061075,5.01494311 C157.631075,9.01494311 131.181075,15.2249431 106.161075,24.7149431 C105.021075,25.1449431 105.471075,26.9649431 106.681075,26.5749431 C149.931075,12.5749431 194.171075,3.75494311 239.741075,2.80494311 C262.833698,2.26156066 285.928071,3.81122659 308.741075,7.43494311 C331.131075,11.0549431 353.741075,16.4349431 374.421075,26.0149431 C393.421075,34.8349431 416.091075,48.8149431 420.491075,70.9349431 C419.046337,69.6704438 417.400301,68.6564586 415.621075,67.9349431 C414.621075,67.5749431 413.991075,69.1349431 414.901075,69.6249431 C417.418159,71.199591 419.737954,73.0695276 421.811075,75.1949431 C422.089847,75.4752425 422.483248,75.6097407 422.875274,75.5587773 C423.2673,75.507814 423.613236,75.2772019 423.811075,74.9349431 C424.747076,72.8453337 426.009517,70.9179176 427.551075,69.2249431 C428.671075,67.9549431 426.951075,66.2049431 425.781075,67.3749431 Z" fill="#F7941F"></path>
            <path d="M30.1710755,21.5049431 C29.6235145,21.2541632 28.9802575,21.3432655 28.52148,21.7334408 C28.0627026,22.123616 27.8714701,22.7442197 28.0310755,23.3249431 C28.1907058,23.8902573 28.7250921,24.2659977 29.3110755,24.2249431 C29.5987278,24.2846234 29.8980916,24.2458822 30.1610755,24.1149431 C30.6266883,23.8462959 30.9143723,23.3503703 30.916443,22.812818 C30.9184915,22.2752658 30.634616,21.7771503 30.1710755,21.5049431 L30.1710755,21.5049431 Z" fill="#F7941F"></path>
        </g>
    </g>
</svg>