
<svg viewBox="0 0 504.072346 151.300785" version="1.1" xmlns="http://www.w3.org/2000/svg" xmlns:xlink="http://www.w3.org/1999/xlink">
    <g stroke="none" stroke-width="1" fill="none" fill-rule="evenodd">
        <g fill-rule="nonzero">
            <path d="M499.583764,112.730668 C500.355107,110.475129 500.462702,108.045563 499.893764,105.730668 C503.223764,100.730668 504.983764,94.3306683 503.593764,90.3306683 C501.747001,85.1389818 500.407414,79.7806331 499.593764,74.3306683 C500.325353,67.0169892 500.35549,59.6500884 499.683764,52.3306683 C499.583787,50.4457741 498.964268,48.6252886 497.893764,47.0706683 C500.473764,42.2206683 502.793764,34.6206683 499.393764,29.8106683 C498.887067,29.0683784 498.246054,28.4273658 497.503764,27.9206683 C501.903764,22.0506683 507.253764,5.10066835 494.503764,6.73066835 C479.373764,8.66066835 463.983764,5.88066835 449.053764,3.58066835 C434.25902,1.1744699 419.292883,-0.0228210132 404.303764,0.000329361942 C374.043764,0.270668346 343.873764,4.23066835 313.663764,5.81066835 C252.083764,9.02066835 190.393764,7.97066835 128.763764,7.18066835 C94.7637642,6.74066835 60.6537642,6.41066835 26.6037642,6.87066835 C23.7570975,6.63066835 20.9137642,6.36066835 18.0737642,6.06066835 C7.16376416,4.93066835 -4.18623584,29.2006683 5.79376416,33.0806683 C2.55203225,36.9437681 0.681267649,41.771888 0.473764164,46.8106683 C0.183764164,53.0106683 3.32376416,56.4606683 7.67376416,58.5406683 C4.4885146,61.720172 2.34687637,65.7941678 1.53376416,70.2206683 C-0.973132475,86.0176224 -0.402667323,102.150241 3.21376416,117.730668 C3.79579309,120.262878 5.88822353,122.167986 8.46376416,122.510668 L9.99376416,122.570668 L9.99376416,122.570668 C5.99376416,126.520668 2.64376416,131.570668 2.27376416,137.350668 C2.02376416,141.270668 3.03376416,146.180668 7.78376416,146.730668 C37.2737642,150.160668 66.9537642,149.190668 96.5937642,148.550668 C129.023764,147.840668 161.443764,146.670668 193.873764,146.300668 C225.583764,145.950668 257.333764,146.380668 288.963764,148.790668 C305.303764,150.040668 321.503764,151.310668 337.903764,151.300727 C353.563764,151.300727 369.233764,150.760668 384.903764,150.160668 C402.543764,149.480668 420.183764,148.650668 437.833764,148.910668 C455.483764,149.170668 472.963764,151.350668 490.353764,147.560668 C499.353764,145.560668 504.903764,133.430668 503.353764,125.130668 C502.56001,120.870518 501.295594,116.711694 499.583764,112.730668 L499.583764,112.730668 Z M310.813764,36.7306683 L300.163764,36.7306683 L302.863764,36.5906683 C319.673764,35.8606683 336.513764,35.5906683 353.323764,36.3906683 C359.323764,36.6806683 365.323764,37.1406683 371.323764,37.7106683 C351.177097,37.1640017 331.007097,36.857335 310.813764,36.7906683 L310.813764,36.7306683 Z M82.8137642,121.600668 L96.4237642,118.850668 C97.599989,119.807853 98.8979735,120.604802 100.283764,121.220668 C94.4937642,121.430668 88.6637642,121.570668 82.8437642,121.660668 L82.8137642,121.600668 Z" fill="#995DB5"></path>
            <path d="M7.40376416,19.1206683 C7.56376416,15.2606683 6.48376416,10.8206683 10.4037642,8.44066835 C13.0637642,6.84066835 16.7637642,7.01066835 19.7937642,6.93066835 C25.3937642,6.77066835 30.9837642,6.86066835 36.5837642,6.93066835 L48.2837642,6.93066835 L92.0837642,6.93066835 L239.083764,6.93066835 L393.393764,6.93066835 C419.313764,6.93066835 445.243764,6.67066835 471.153764,6.93066835 C476.653764,6.99066835 482.153764,7.12066835 487.653764,7.37066835 C493.533764,7.63066835 497.773764,9.24066835 497.953764,15.6706683 C498.013764,17.8306683 497.753764,19.9906683 497.733764,22.1506683 C497.733764,22.7206683 497.733764,23.2906683 497.733764,23.8706683 C497.793764,32.4806683 497.963764,41.1006683 498.073764,49.7206683 C498.380431,73.7606683 498.687097,97.797335 498.993764,121.830668 C498.993764,123.660668 499.123764,125.510668 499.063764,127.340668 C499.013764,129.340668 498.793764,131.340668 498.653764,133.340668 C498.343764,137.870668 497.703764,141.440668 492.913764,142.560668 C486.543764,144.050668 479.203764,143.300668 472.693764,143.430668 C469.933764,143.490668 467.173764,143.510668 464.413764,143.520668 L427.963764,143.730668 L287.163764,144.080668 L131.163764,144.490668 C104.433764,144.570668 77.5137642,145.680668 50.7937642,144.810668 C45.4137642,144.630668 40.1837642,144.460668 34.7937642,144.700668 C28.586974,145.04647 22.3610835,144.754946 16.2137642,143.830668 C12.8037642,143.270668 9.07376416,142.430668 7.82376416,138.740668 C6.75376416,135.540668 7.04376416,131.290668 6.96376416,127.920668 C6.83376416,122.260668 6.96376416,116.580668 7.03376416,110.920668 L7.30376416,35.3806683 C7.30376416,29.9606683 7.30376416,24.5406683 7.36376416,19.1206683 C7.32116422,18.7636135 7.01835135,18.4947814 6.65876416,18.4947814 C6.29917698,18.4947814 5.99636411,18.7636135 5.95376416,19.1206683 C5.8470975,38.247335 5.7070975,57.3740017 5.53376416,76.5006683 L5.25376416,114.500668 C5.20376416,122.080668 4.47376416,130.500668 5.79376416,137.950668 C7.27376416,146.370668 18.0637642,146.240668 24.7937642,146.630668 C33.3537642,147.120668 41.9837642,146.570668 50.5537642,146.820668 C52.9937642,146.890668 55.4537642,146.820668 57.8937642,146.820668 L99.9637642,146.820668 C149.903764,146.820668 199.840431,146.710668 249.773764,146.490668 L405.373764,146.100668 L454.723764,145.980668 L466.883764,145.980668 C475.633764,145.980668 485.073764,146.820668 493.603764,144.980668 C502.133764,143.140668 501.223764,134.880668 501.403764,127.520668 C501.463764,125.290668 501.343764,123.040668 501.313764,120.820668 C501.160431,109.487335 501.003764,98.1806683 500.843764,86.9006683 C500.543764,65.5606683 499.843764,44.1706683 499.973764,22.8206683 C499.973764,17.0206683 501.523764,9.40066835 494.973764,6.51066835 C490.703764,4.63066835 485.133764,5.39066835 480.593764,5.27066835 C477.593764,5.19066835 474.593764,5.06066835 471.533764,5.03066835 C469.243764,5.03066835 466.953764,5.03066835 464.663764,5.03066835 L277.553764,5.03066835 L117.553764,5.03066835 C90.6837642,5.03066835 63.8037642,5.15066835 36.9237642,5.09066835 C30.7437642,5.09066835 24.5437642,4.91066835 18.3637642,5.26066835 C14.9937642,5.45066835 10.9637642,5.65066835 8.29376416,8.01066835 C4.91376416,11.0106683 6.04376416,15.1506683 5.93376416,19.1806683 C5.89376416,20.0706683 7.36376416,20.0706683 7.40376416,19.1206683 Z"  fill="#1E1E1E"></path>
            <path d="M488.233764,92.1406683 C488.003764,73.5206683 488.343764,54.9006683 488.233764,36.2906683 C488.233764,32.9906683 485.513764,31.7206683 482.723764,33.1006683 C479.603764,34.6506683 477.393764,38.8906683 477.413764,42.2906683 C477.553764,58.6906683 477.353764,75.0806683 477.413764,91.4806683 C477.413764,99.7706683 478.133764,107.890668 478.663764,116.140668 C478.803764,118.340668 478.893764,120.540668 478.833764,122.750668 C478.833764,123.360668 478.633764,124.360668 478.483764,125.380668 L478.373764,125.380668 C477.102117,125.924667 475.751805,126.262245 474.373764,126.380668 C470.503764,126.580668 466.493764,125.970668 462.583764,126.090668 C458.333764,126.220668 454.083764,126.590668 449.853764,126.990668 C441.756884,127.700783 433.611273,127.650563 425.523764,126.840668 C409.413764,125.370668 393.153764,125.370668 376.983764,124.960668 C371.143764,124.810668 365.343764,138.510668 371.823764,138.680668 C389.883764,139.140668 407.823764,139.680668 425.823764,141.050668 C435.213764,141.760668 444.243764,140.540668 453.593764,139.990668 C461.793764,139.510668 470.173764,141.340668 477.893764,137.990668 C485.893764,134.560668 488.823764,128.700668 489.393764,120.340668 C490.063764,110.940668 488.353764,101.590668 488.233764,92.1406683 Z"  fill="#000000" opacity="0.15"></path>
            <path d="M352.673764,100.670668 C352.103764,93.4806683 352.213764,86.2406683 352.213764,79.0306683 C352.213764,64.7806683 352.343764,50.5306683 352.213764,36.2906683 C352.213764,32.9906683 349.483764,31.7206683 346.693764,33.1006683 C343.583764,34.6506683 341.363764,38.8906683 341.393764,42.2906683 C341.593764,65.9506683 340.493764,89.7106683 342.393764,113.290668 C342.623764,116.120668 342.823764,118.960668 342.803764,121.790668 C342.803764,122.790668 342.743764,123.790668 342.673764,124.790668 C341.621443,125.427143 340.487821,125.918267 339.303764,126.250668 C337.871257,126.357202 336.432045,126.333773 335.003764,126.180668 C327.643764,125.840668 320.233764,126.030668 312.873764,126.180668 C300.353764,126.520668 289.493764,127.700668 277.673764,127.640668 C263.103764,127.570668 248.523764,126.980668 233.963764,126.440668 C215.033764,125.740668 196.103764,125.380668 177.163764,124.910668 C171.323764,124.760668 165.523764,138.470668 172.003764,138.630668 C205.633764,139.480668 239.343764,141.240668 273.003764,141.370668 C286.113764,141.420668 299.203764,140.050668 312.313764,139.800668 C319.473764,139.660668 326.663764,140.230668 333.793764,140.060668 C338.136446,139.791131 342.320291,138.327304 345.883764,135.830668 C350.883764,132.440668 352.883764,127.830668 353.303764,121.940668 C353.883764,114.820668 353.243764,107.850668 352.673764,100.670668 Z M344.453764,124.240668 C344.539752,124.225324 344.627777,124.225324 344.713764,124.240668 C344.627362,124.231091 344.540166,124.231091 344.453764,124.240668 L344.453764,124.240668 Z" fill="#000000" opacity="0.15"></path>
            <path d="M152.983764,114.860668 C152.913764,106.620668 151.643764,98.4606683 151.583764,90.2106683 C151.463764,72.2106683 151.713764,54.2606683 151.583764,36.2906683 C151.583764,32.9906683 148.853764,31.7206683 146.073764,33.1006683 C142.953764,34.6506683 140.733764,38.8906683 140.763764,42.2906683 C140.913764,60.5806683 140.603764,78.8806683 140.763764,97.1706683 C140.863764,106.490668 142.573764,115.790668 142.043764,125.120668 C140.969374,125.639481 139.838505,126.032097 138.673764,126.290668 C136.003764,126.650668 133.233764,125.950668 130.523764,126.130668 C125.183764,126.470668 120.093764,127.750668 114.683764,127.740668 C107.413764,127.740668 100.153764,127.170668 92.9137642,126.680668 C75.9137642,125.530668 58.8637642,125.430668 41.8437642,125.000668 C36.0037642,124.850668 30.2037642,138.550668 36.6837642,138.720668 C51.8437642,139.100668 67.0737642,139.110668 82.2037642,140.040668 C94.0437642,140.770668 106.103764,142.270668 117.953764,141.040668 C122.313764,140.600668 126.093764,139.670668 130.473764,139.950668 C136.285928,140.354713 142.039178,138.571312 146.603764,134.950668 C152.803764,129.970668 153.053764,122.230668 152.983764,114.860668 Z"  fill="#000000" opacity="0.15"></path>
            <path d="M28.3937642,32.3306683 C28.6137642,30.3306683 31.3937642,27.7206683 33.8437642,26.6306683 C35.7837642,25.7506683 135.503764,25.8606683 137.043764,26.4506683 C139.483764,27.3806683 142.683764,31.5206683 142.823764,32.5506683 C143.123764,34.7406683 143.613764,121.390668 143.433764,124.430668 C143.353764,125.800668 141.303764,129.640668 139.853764,130.240668 C136.553764,131.590668 37.8537642,134.800668 31.5437642,129.850668 C29.45318,128.199632 28.2575432,125.663994 28.3137642,123.000668 C28.1637642,120.570668 28.1637642,34.3106683 28.3937642,32.3306683 Z"  fill="#F7941F"></path>
            <path d="M344.213764,32.3306683 C343.993764,30.3306683 339.133764,26.8206683 338.443764,26.6906683 C336.963764,26.4106683 177.323764,26.4906683 173.133764,26.6206683 C171.323764,26.6806683 165.973764,28.8506683 165.443764,29.7406683 C164.163764,31.9006683 163.893764,121.390668 163.863764,124.430668 C163.863764,129.060668 171.223764,130.770668 174.863764,130.860668 C179.143764,130.960668 333.733764,132.400668 338.363764,131.570668 C341.503764,131.000668 344.223764,125.480668 344.363764,123.000668 C344.503764,120.520668 344.443764,34.3106683 344.213764,32.3306683 Z"  fill="#F7941F"></path>
            <path d="M473.663764,25.8106683 C475.663764,26.0406683 479.553764,29.1506683 480.013764,33.8106683 C480.163764,35.3106683 481.123764,123.350668 478.533764,128.270668 C477.943764,129.400668 475.353764,131.270668 474.463764,131.750668 C472.303764,133.030668 371.193764,133.450668 370.043764,132.390668 C367.943764,130.450668 365.223764,124.970668 365.133764,121.390668 C365.033764,117.110668 364.133764,37.1606683 364.863764,33.1006683 C365.133764,31.6306683 367.583764,25.9606683 372.993764,25.7206683 C375.423764,25.6306683 471.683764,25.5906683 473.663764,25.8106683 Z"  fill="#F7941F"></path>
            <path d="M134.163764,28.5906683 C115.715762,27.1892296 97.2061789,26.7719712 78.7137642,27.3406683 C74.1537642,27.4806683 69.5937642,27.6840017 65.0337642,27.9506683 C64.6703481,26.7764508 63.5927927,25.9692933 62.3637642,25.9506683 C56.1160636,25.4007326 49.8210855,25.8019658 43.6937642,27.1406683 C42.3345457,27.5023042 41.1087381,28.2489008 40.1637642,29.2906683 C32.4537642,27.4406683 22.7837642,39.2906683 29.0937642,46.8906683 C29.6644269,47.5809898 30.3391906,48.1781557 31.0937642,48.6606683 C30.7137642,52.6606683 30.8537642,56.8506683 30.8037642,60.6606683 C30.7370975,66.8006683 30.8504308,72.9406683 31.1437642,79.0806683 C30.4537642,82.6206683 29.7537642,86.1706683 29.0837642,89.7206683 C26.3337642,104.300668 26.0837642,125.870668 44.6737642,129.510668 C49.8337642,130.510668 55.7837642,119.300668 51.0037642,116.150668 C46.5637642,113.220668 45.6637642,107.750668 44.8737642,102.840668 C43.7237642,95.6206683 42.9837642,88.3106683 42.4337642,81.0206683 C42.2737642,78.8806683 42.1404308,76.7406683 42.0337642,74.6006683 C43.2937642,68.2006683 44.5470975,61.797335 45.7937642,55.3906683 C46.7640519,51.2491492 47.3234271,47.0220145 47.4637642,42.7706683 C48.9437642,42.5406683 50.4637642,42.2606683 51.7537642,42.1606683 C55.7137642,41.867335 59.6704308,41.6206683 63.6237642,41.4206683 C70.8837642,41.0540017 78.1470975,40.837335 85.4137642,40.7706683 C99.9537642,40.6506683 114.483764,41.1806683 128.973764,42.2706683 C134.803764,42.7306683 140.743764,29.0906683 134.163764,28.5906683 Z"  fill="#FFFFFF" opacity="0.25"></path>
            <path d="M339.213764,27.9306683 C310.963764,26.4206683 282.783764,28.7306683 254.593764,30.7306683 C249.983764,30.3306683 245.373764,29.9906683 240.783764,29.8006683 C224.593764,29.1506683 208.223764,32.6706683 192.113764,30.8006683 C188.853764,30.4206683 185.353764,29.0406683 182.113764,30.0906683 C180.767023,30.5450014 179.539967,31.2969577 178.523764,32.2906683 C176.523764,32.1506683 174.523764,32.0006683 172.573764,31.8106683 C168.723764,31.4606683 165.103764,36.7006683 164.743764,40.0106683 C161.730284,66.555533 161.535867,93.3448627 164.163764,119.930668 C164.413764,122.510668 165.843764,123.750668 167.603764,123.690668 C168.123764,126.050668 170.803764,126.690668 173.033764,125.620668 C176.383764,123.960668 178.033764,119.910668 178.333764,116.430668 L181.603764,76.6206683 C182.123764,70.3206683 182.640431,64.0206683 183.153764,57.7206683 C183.433764,54.387335 183.707097,51.0706683 183.973764,47.7706683 C183.973764,47.3806683 184.033764,46.9906683 184.073764,46.5906683 C205.803764,47.3906683 227.513764,46.0506683 249.213764,44.5106683 C252.127097,44.7506683 255.030431,45.017335 257.923764,45.3106683 C283.713764,47.9106683 310.483764,50.9206683 335.333764,41.5306683 C338.457601,40.2778064 340.792446,37.6046312 341.613764,34.3406683 C342.213764,32.2306683 342.383764,28.1006683 339.213764,27.9306683 Z"  fill="#FFFFFF" opacity="0.25"></path>
            <path d="M345.633764,114.090668 C345.633764,110.900668 345.573764,107.710668 345.543764,104.510668 C345.337097,84.077335 345.130431,63.647335 344.923764,43.2206683 C344.923764,41.6306683 344.923764,40.0506683 344.873764,38.4606683 C344.882911,38.4043708 344.882911,38.3469659 344.873764,38.2906683 C344.763764,31.5206683 344.923764,26.5106683 336.873764,25.5506683 C331.303764,24.8806683 325.553764,25.2406683 319.943764,25.2406683 L303.743764,25.2406683 C281.930431,25.2406683 260.120431,25.2406683 238.313764,25.2406683 L187.803764,25.2406683 C185.303764,25.2406683 182.803764,25.3306683 180.313764,25.4106683 C173.953764,25.6106683 165.193764,24.2206683 163.443764,32.2106683 C162.663764,35.7506683 163.383764,39.6106683 163.333764,43.2106683 C163.273764,46.6506683 163.220431,50.0940017 163.173764,53.5406683 C162.860431,73.3540017 162.550431,93.1640017 162.243764,112.970668 C162.173764,117.160668 161.943764,121.800668 162.863764,125.840668 C164.463764,132.840668 173.053764,131.990668 178.773764,132.100668 C185.603764,132.230668 192.433764,132.350668 199.263764,132.410668 C235.473764,132.770668 271.673764,133.180668 307.883764,132.920668 C313.413764,132.920668 318.883764,133.130668 324.443764,133.230668 C330.373764,133.350668 342.073764,133.990668 344.703764,127.080668 C346.163764,123.160668 345.643764,118.230668 345.633764,114.090668 Z M343.633764,115.690668 C343.583764,118.120668 343.463764,120.590668 343.263764,123.000668 C342.913764,127.210668 340.573764,129.240668 336.633764,130.070668 C331.473764,131.170668 326.123764,131.070668 320.883764,130.840668 C306.823764,130.310668 292.773764,131.020668 278.713764,130.840668 C258.393764,130.627335 238.077097,130.427335 217.763764,130.240668 L194.343764,130.020668 L190.223764,130.020668 C187.393764,130.020668 184.573764,129.910668 181.743764,129.860668 C176.183764,129.760668 167.213764,131.290668 165.013764,124.430668 C163.953764,121.120668 164.463764,116.720668 164.513764,113.120668 L164.633764,103.730668 C164.767097,93.2506683 164.910431,82.777335 165.063764,72.3106683 C165.190431,63.457335 165.317097,54.6140017 165.443764,45.7806683 C165.443764,44.2406683 165.513764,42.7106683 165.503764,41.1706683 C165.503764,35.6106683 164.203764,28.4306683 171.793764,27.7306683 C176.373764,27.3106683 181.123764,27.3406683 185.723764,27.2706683 C197.343764,27.1006683 208.973764,27.2706683 220.593764,27.2706683 C253.993764,27.2706683 287.393764,27.3906683 320.783764,27.1806683 C324.853764,27.1806683 328.913764,27.0706683 332.973764,27.1806683 C336.053764,27.2706683 338.473764,27.2406683 340.973764,29.1106683 C344.193764,31.4906683 343.263764,34.7706683 343.413764,38.2906683 C343.413764,38.2906683 343.413764,38.3806683 343.413764,38.4206683 C343.503764,54.0706683 343.473764,69.7206683 343.503764,85.3706683 C343.503764,94.077335 343.520431,102.787335 343.553764,111.500668 C343.613764,112.900668 343.643764,114.300668 343.613764,115.730668 L343.633764,115.690668 Z" fill="#1E1E1E"></path>
            <path d="M144.593764,84.6706683 C144.383764,70.7206683 144.063764,56.7806683 143.953764,42.8406683 C143.953764,37.4306683 145.743764,29.2806683 139.653764,26.4506683 C137.463764,25.4506683 134.713764,25.6006683 132.373764,25.5306683 C128.773764,25.4106683 125.173764,25.2406683 121.583764,25.1906683 C120.453764,25.1906683 119.333764,25.1906683 118.203764,25.1906683 L73.0837642,25.1906683 L54.5537642,25.1906683 L49.9437642,25.1906683 C44.4537642,25.1906683 36.8737642,24.0506683 31.7237642,26.4306683 C26.5737642,28.8106683 27.7237642,33.6706683 27.7237642,38.2806683 C27.7189388,38.3372323 27.7189388,38.3941044 27.7237642,38.4506683 C27.5737642,63.4506683 27.1537642,88.4506683 26.8837642,113.450668 C26.8237642,118.930668 25.5837642,127.620668 30.9837642,130.850668 C36.0537642,133.850668 44.3737642,133.410668 49.9837642,133.180668 C54.4637642,132.980668 58.8337642,133.180668 63.2937642,133.270668 C77.4337642,133.580668 91.6837642,132.810668 105.823764,132.560668 C110.413764,132.480668 114.993764,132.420668 119.583764,132.320668 C125.733764,132.200668 132.983764,133.020668 138.943764,131.320668 C144.363764,129.780668 144.443764,125.810668 144.733764,120.800668 C145.473764,108.780668 144.783764,96.7306683 144.593764,84.6706683 Z M142.593764,118.960668 C142.503764,120.560668 142.753764,122.960668 142.273764,124.430668 C140.693764,129.430668 137.853764,129.430668 134.023764,129.670668 C129.853764,129.970668 125.623764,129.880668 121.453764,129.980668 C117.743764,130.060668 114.033764,130.110668 110.323764,130.170668 L67.7037642,130.890668 C61.1637642,131.000668 54.7037642,130.800668 48.1337642,130.950668 C44.0551758,131.1441 39.9682315,130.838503 35.9637642,130.040668 C30.8937642,128.900668 29.6237642,126.120668 29.3137642,121.170668 C29.1637642,118.810668 29.0737642,116.460668 29.0537642,114.090668 C28.8637642,88.8806683 28.9637642,63.6406683 29.1137642,38.4206683 C29.1194215,38.3775197 29.1194215,38.333817 29.1137642,38.2906683 C29.3437642,33.6106683 28.3437642,29.1306683 34.3437642,27.5906683 C37.9837642,26.6506683 42.4137642,27.1306683 46.1437642,27.1406683 C48.4937642,27.1406683 50.8537642,27.1406683 53.2037642,27.1406683 C58.1704308,27.1406683 63.1370975,27.1406683 68.1037642,27.1406683 L112.263764,27.1406683 C115.353764,27.1406683 118.453764,27.1406683 121.533764,27.1406683 C127.973764,27.2406683 140.853764,25.2406683 141.903764,33.7006683 C142.233764,36.3806683 141.783764,39.1806683 141.773764,41.8806683 C141.773764,53.6306683 142.103764,65.3806683 142.263764,77.1306683 C142.443764,89.3606683 142.793764,101.600668 142.763764,113.830668 C142.823764,115.630668 142.723764,117.280668 142.623764,118.960668 L142.593764,118.960668 Z" fill="#1E1E1E"></path>
            <path d="M474.353764,29.3106683 C473.193254,28.9360058 471.944274,28.9360058 470.783764,29.3106683 C455.223764,29.3806683 439.723764,27.5006683 424.173764,26.9106683 C415.683764,26.5906683 407.173764,26.5106683 398.673764,26.4706683 L387.263764,26.4706683 C383.973764,26.4706683 380.263764,26.0406683 377.113764,27.1206683 C376.906333,27.1936302 376.702738,27.2770708 376.503764,27.3706683 C375.783764,25.7306683 374.323764,24.9506683 372.163764,25.7306683 C369.073764,26.8706683 366.943764,30.4506683 366.323764,33.5306683 C362.763764,51.1506683 363.693764,69.1106683 365.833764,86.8506683 C364.613764,99.4106683 364.753764,111.700668 367.463764,124.280668 C368.643764,129.790668 375.303764,124.620668 376.563764,122.060668 C383.013764,108.960668 381.493764,91.8206683 380.883764,77.6006683 C380.563764,70.2006683 380.033764,62.8106683 379.593764,55.4106683 C379.373764,51.5506683 379.163764,47.6906683 379.013764,43.8306683 C379.013764,42.7306683 379.013764,41.5906683 379.013764,40.4706683 C381.653764,40.8306683 385.403764,40.1806683 387.673764,40.1806683 C391.603764,40.1806683 395.523764,40.1806683 399.453764,40.2306683 C407.293764,40.2906683 415.143764,40.4306683 422.983764,40.8006683 C438.413764,41.5306683 453.773764,43.3706683 469.243764,42.9906683 C474.573764,42.9006683 481.343764,31.3606683 474.353764,29.3106683 Z"  fill="#FFFFFF" opacity="0.25"></path>
            <path d="M480.773764,52.5606683 C480.773764,51.1406683 480.773764,49.7206683 480.773764,48.3006683 C480.773764,42.4906683 482.073764,34.6106683 479.543764,29.1506683 C477.213764,24.1506683 472.313764,25.1506683 467.693764,25.1506683 C467.6372,25.1458429 467.580328,25.1458429 467.523764,25.1506683 C441.293764,25.0106683 415.053764,24.5106683 388.823764,24.3306683 C385.363764,24.3306683 381.913764,24.2106683 378.463764,24.3306683 C373.903764,24.5206683 367.873764,23.8206683 365.153764,28.3306683 C361.963764,33.6706683 362.593764,42.4206683 362.883764,48.3306683 C363.573764,62.3306683 363.073764,76.7206683 363.343764,90.8306683 C363.463764,96.6206683 363.563764,102.420668 363.683764,108.220668 C363.803764,113.860668 363.543764,119.690668 364.253764,125.300668 C364.853764,130.130668 366.583764,132.900668 371.553764,133.440668 C383.433764,134.740668 395.733764,133.750668 407.643764,133.590668 C423.643764,133.370668 439.643764,133.150668 455.643764,132.930668 C459.193764,132.880668 462.743764,132.770668 466.293764,132.850668 C470.493764,132.950668 475.863764,133.680668 478.763764,129.850668 C480.073764,128.100668 480.223764,125.850668 480.333764,123.750668 C480.563764,119.640668 480.653764,115.510668 480.733764,111.400668 C480.993764,98.7506683 480.733764,86.0706683 480.733764,73.4006683 C480.767097,66.4606683 480.780431,59.5140017 480.773764,52.5606683 Z M478.853764,43.6206683 C478.853764,46.1706683 478.803764,48.7106683 478.793764,51.2506683 L478.793764,68.1606683 C478.793764,81.607335 478.793764,95.057335 478.793764,108.510668 C478.793764,110.380668 478.733764,112.240668 478.673764,114.110668 C478.563764,117.540668 478.673764,121.040668 478.333764,124.450668 C477.693764,131.510668 471.723764,130.920668 466.393764,130.800668 C463.463764,130.730668 460.533764,130.800668 457.603764,130.800668 L415.393764,131.320668 C404.103764,131.460668 392.773764,131.840668 381.483764,131.720668 C378.809709,131.806267 376.133238,131.662407 373.483764,131.290668 C366.403764,129.950668 366.483764,125.230668 366.323764,119.530668 C366.233764,115.860668 366.153764,112.180668 366.073764,108.530668 C365.993764,104.310668 365.917097,100.097335 365.843764,95.8906683 C365.603764,83.2506683 364.483764,70.2906683 365.123764,57.6706683 C365.323764,53.6006683 365.233764,49.6706683 365.123764,45.5706683 C364.935383,41.4921504 365.240935,37.4058173 366.033764,33.4006683 C367.583764,26.5706683 372.723764,26.8406683 378.553764,26.5806683 C381.503764,26.4506683 384.463764,26.5106683 387.413764,26.5306683 C414.163764,26.6506683 440.903764,26.4106683 467.653764,26.5306683 C467.696913,26.5363257 467.740615,26.5363257 467.783764,26.5306683 C472.463764,26.7606683 476.943764,25.7606683 478.483764,31.7606683 C479.343764,35.4706683 478.863764,39.9006683 478.853764,43.6206683 Z" fill="#1E1E1E"></path>
            <path d="M493.323764,5.56066835 C477.043764,7.75066835 460.233764,7.06066835 443.853764,6.96066835 C432.503764,6.89066835 421.153764,6.96066835 409.803764,6.86066835 C381.473764,6.75066835 353.143764,6.53066835 324.803764,6.36066835 C298.363764,6.21066835 271.923764,6.00066835 245.483764,6.23066835 C216.173764,6.48066835 186.933764,7.91066835 157.593764,7.59066835 C109.593764,7.06066835 61.5937642,5.17066835 13.5137642,5.15066835 C9.08376416,5.15066835 5.19376416,10.8506683 5.51376416,15.0106683 C8.83376416,57.0106683 4.51376416,99.1206683 6.91376416,141.100668 C7.10376416,144.350668 9.52376416,145.710668 12.4237642,144.280668 C15.6740215,142.353027 17.6831147,138.869335 17.7237642,135.090668 C15.4937642,96.4206683 18.9937642,57.5906683 16.9637642,18.9106683 C57.3437642,19.1006683 97.6937642,20.4106683 138.063764,21.1106683 C170.333764,21.6606683 202.453764,20.4606683 234.693764,20.0106683 C289.053764,19.2506683 343.443764,20.3006683 397.803764,20.5606683 C410.133764,20.5606683 422.463764,20.5606683 434.803764,20.6506683 C453.373764,20.7806683 472.333764,21.5306683 490.803764,19.0506683 C496.333764,18.3006683 501.033764,4.53066835 493.323764,5.56066835 Z"  fill="#000000" opacity="0.2"></path>
            <g transform="translate(207.32, 104.7487)" fill="#FFFFFF">
                <path d="M5.92,1.968 C5.92,1.712 5.856,1.472 5.76,1.264 C5.664,1.072 5.536,0.896 5.376,0.752 C5.216,0.624 5.024,0.512 4.816,0.432 C4.592,0.368 4.384,0.336 4.16,0.336 C3.712,0.336 3.344,0.48 3.04,0.736 C2.72,1.008 2.48,1.36 2.288,1.776 C2.096,2.192 1.952,2.672 1.856,3.184 C1.76,3.696 1.728,4.208 1.728,4.688 L1.728,4.832 C1.712,4.896 1.712,4.976 1.712,5.056 C1.6,5.056 1.488,5.072 1.376,5.072 L1.024,5.072 C0.896,5.088 0.8,5.104 0.72,5.104 C0.624,5.104 0.576,5.12 0.544,5.12 C0.352,5.168 0.224,5.264 0.128,5.392 C0.032,5.52 0,5.68 0,5.856 C0,6.096 0.08,6.272 0.272,6.4 C0.352,6.464 0.448,6.512 0.544,6.544 C0.64,6.592 0.736,6.608 0.864,6.608 L1.184,6.608 L1.44,6.576 L1.68,6.576 L1.648,7.696 C1.632,8.08 1.632,8.432 1.632,8.752 L1.6,9.6 L1.6,10.128 C1.6,10.288 1.616,10.448 1.648,10.608 C1.68,10.784 1.728,10.944 1.824,11.088 C1.888,11.248 1.984,11.376 2.112,11.472 C2.224,11.568 2.368,11.632 2.56,11.632 C2.624,11.632 2.704,11.616 2.816,11.6 C2.912,11.568 3.008,11.52 3.104,11.472 C3.184,11.408 3.264,11.36 3.328,11.296 C3.392,11.232 3.44,11.168 3.456,11.072 C3.424,10.928 3.392,10.736 3.36,10.48 C3.312,10.224 3.296,9.856 3.296,9.36 L3.296,8.912 L3.264,8.192 L3.264,7.344 C3.248,7.056 3.248,6.768 3.248,6.496 L3.824,6.496 C4.08,6.496 4.288,6.48 4.448,6.448 C4.608,6.416 4.752,6.384 4.912,6.32 C4.944,6.304 4.992,6.24 5.072,6.128 C5.136,6.032 5.184,5.904 5.184,5.744 L5.184,5.648 C5.168,5.616 5.168,5.568 5.168,5.536 C5.104,5.344 4.992,5.2 4.816,5.104 C4.624,5.04 4.416,4.992 4.176,4.992 L3.84,4.992 C3.616,4.992 3.424,5.008 3.248,5.008 C3.264,4.544 3.296,4.112 3.36,3.712 C3.408,3.328 3.472,2.976 3.552,2.688 C3.632,2.4 3.728,2.176 3.824,2 C3.92,1.84 4.016,1.76 4.112,1.76 C4.224,1.76 4.32,1.824 4.4,1.936 C4.464,2.064 4.512,2.208 4.512,2.352 C4.576,2.432 4.656,2.496 4.768,2.56 C4.864,2.624 4.944,2.656 5.04,2.656 C5.136,2.656 5.232,2.64 5.344,2.608 C5.44,2.576 5.52,2.512 5.616,2.448 C5.696,2.384 5.76,2.32 5.824,2.224 C5.888,2.16 5.92,2.064 5.92,1.968 Z" ></path>
                <path d="M9.168,10.592 C9.168,10.56 9.152,10.512 9.152,10.448 C9.136,10.4 9.104,10.336 9.072,10.24 C8.96,9.968 8.864,9.568 8.8,9.056 C8.736,8.544 8.704,7.92 8.704,7.184 L8.704,3.472 C8.704,3.248 8.72,3.024 8.752,2.832 C8.768,2.656 8.8,2.496 8.832,2.352 C8.848,2.208 8.88,2.064 8.944,1.92 L9.088,1.504 C9.136,1.312 9.168,1.168 9.168,1.072 C9.168,0.816 9.04,0.608 8.816,0.448 C8.56,0.288 8.304,0.192 8.048,0.192 C7.936,0.192 7.792,0.224 7.616,0.272 C7.44,0.336 7.248,0.448 7.04,0.576 C7.04,0.784 7.056,0.992 7.088,1.2 C7.12,1.424 7.136,1.6 7.136,1.712 L7.136,3.616 L7.104,5.216 L7.104,6.8 C7.088,7.296 7.088,7.712 7.088,8.048 L7.088,8.608 C7.088,9.52 7.2,10.208 7.424,10.656 C7.648,11.12 7.936,11.344 8.32,11.344 C8.544,11.344 8.736,11.28 8.912,11.136 C9.072,11.008 9.168,10.816 9.168,10.592 Z" ></path>
                <path d="M17.984,10.016 C17.984,9.888 17.904,9.776 17.76,9.68 C17.6,9.6 17.456,9.552 17.296,9.552 C17.264,9.552 17.2,9.568 17.12,9.584 C17.024,9.616 16.944,9.664 16.848,9.712 C16.56,9.904 16.24,10.064 15.872,10.192 C15.488,10.352 15.104,10.416 14.72,10.416 C14.08,10.416 13.616,10.224 13.296,9.84 C12.976,9.456 12.8,8.992 12.768,8.416 C12.976,8.528 13.216,8.624 13.488,8.688 C13.744,8.768 14.048,8.8 14.4,8.8 C14.848,8.8 15.28,8.752 15.728,8.624 C16.144,8.496 16.528,8.336 16.864,8.112 C17.184,7.92 17.456,7.68 17.664,7.408 C17.856,7.152 17.968,6.864 17.968,6.56 C17.968,6.112 17.824,5.728 17.552,5.392 C17.264,5.072 16.896,4.816 16.464,4.592 C16.096,4.432 15.712,4.304 15.312,4.208 C14.896,4.128 14.48,4.08 14.08,4.08 C13.648,4.08 13.248,4.208 12.88,4.464 C12.496,4.736 12.16,5.072 11.872,5.488 C11.584,5.904 11.344,6.352 11.184,6.864 C11.008,7.376 10.928,7.872 10.928,8.368 C10.928,8.752 10.992,9.136 11.12,9.504 C11.248,9.888 11.44,10.224 11.728,10.512 C12.016,10.8 12.384,11.04 12.832,11.216 C13.28,11.392 13.824,11.488 14.48,11.488 C14.832,11.488 15.216,11.456 15.632,11.408 C16.032,11.344 16.4,11.248 16.752,11.12 C17.104,11.008 17.392,10.864 17.632,10.672 C17.856,10.48 17.984,10.272 17.984,10.016 Z M16.448,6.608 C16.448,6.768 16.384,6.912 16.272,7.04 C16.144,7.184 16,7.312 15.808,7.408 C15.616,7.504 15.392,7.584 15.152,7.648 C14.896,7.712 14.656,7.744 14.4,7.744 C13.968,7.744 13.632,7.68 13.408,7.536 C13.168,7.408 13.008,7.232 12.928,7.04 C13.056,6.56 13.28,6.16 13.568,5.84 C13.856,5.52 14.176,5.344 14.56,5.344 C14.768,5.344 14.992,5.376 15.216,5.424 C15.44,5.488 15.632,5.568 15.824,5.664 C16,5.776 16.144,5.904 16.272,6.064 C16.384,6.224 16.448,6.4 16.448,6.608 Z" ></path>
                <path d="M25.424,11.088 C25.648,11.088 25.872,11.008 26.08,10.832 C26.272,10.656 26.432,10.416 26.56,10.128 C26.208,10.08 25.856,9.92 25.504,9.648 C25.152,9.392 24.816,9.104 24.512,8.768 C24.304,8.56 24.112,8.352 23.936,8.128 L23.392,7.488 C23.632,7.216 23.872,6.96 24.112,6.704 C24.336,6.48 24.608,6.24 24.896,5.984 C25.184,5.744 25.44,5.504 25.664,5.264 C25.888,5.04 26,4.864 26,4.768 C26,4.544 25.888,4.368 25.696,4.208 C25.52,4.064 25.312,3.984 25.088,3.984 C24.976,3.984 24.832,4.064 24.64,4.208 C24.432,4.352 24.176,4.56 23.888,4.832 C23.6,5.12 23.344,5.376 23.12,5.6 C22.896,5.84 22.672,6.08 22.448,6.336 C22.256,6.096 22.08,5.856 21.888,5.6 C21.696,5.36 21.504,5.104 21.328,4.848 C21.2,4.688 21.04,4.528 20.832,4.368 C20.608,4.208 20.4,4.128 20.192,4.128 C20.096,4.128 20,4.144 19.904,4.176 C19.792,4.224 19.696,4.272 19.616,4.336 C19.52,4.4 19.456,4.464 19.408,4.528 C19.344,4.624 19.328,4.704 19.328,4.784 C19.328,4.992 19.36,5.168 19.456,5.296 C19.488,5.36 19.536,5.424 19.584,5.472 L19.744,5.632 C19.84,5.76 19.952,5.872 20.064,5.968 L20.336,6.24 C20.512,6.448 20.688,6.656 20.88,6.864 L21.44,7.52 L20.384,8.816 C19.888,9.392 19.552,9.824 19.376,10.096 C19.184,10.384 19.104,10.608 19.104,10.736 C19.104,11.248 19.536,11.584 20.432,11.76 C20.656,11.328 20.864,10.96 21.04,10.672 C21.2,10.4 21.376,10.128 21.568,9.84 C21.696,9.648 21.824,9.456 21.968,9.264 C22.096,9.072 22.24,8.864 22.4,8.656 C22.592,8.912 22.8,9.152 23.024,9.392 L23.68,10.176 C23.936,10.496 24.224,10.72 24.544,10.864 C24.864,11.024 25.152,11.088 25.424,11.088 Z" ></path>
                <path d="M32.08,8.128 C32.08,8.064 32.064,8 32.032,7.92 C32,7.856 31.968,7.776 31.936,7.696 C31.888,7.632 31.84,7.568 31.776,7.504 C31.696,7.472 31.616,7.44 31.552,7.44 C31.424,7.44 31.312,7.456 31.2,7.456 C31.088,7.472 30.976,7.472 30.864,7.472 L30.272,7.472 C30.064,7.472 29.888,7.456 29.744,7.44 C29.472,7.44 29.184,7.44 28.896,7.424 C28.608,7.424 28.32,7.408 28.032,7.408 C27.968,7.408 27.92,7.472 27.888,7.568 C27.856,7.68 27.84,7.76 27.84,7.792 C27.84,8.048 27.92,8.272 28.096,8.496 C28.256,8.72 28.496,8.832 28.816,8.832 C28.944,8.832 29.088,8.832 29.216,8.8 C29.344,8.784 29.488,8.768 29.648,8.768 L30.176,8.752 C30.384,8.752 30.592,8.768 30.816,8.784 C31.04,8.816 31.248,8.832 31.472,8.832 C31.648,8.832 31.792,8.752 31.904,8.576 C32.016,8.416 32.08,8.256 32.08,8.128 Z" ></path>
                <path d="M40.272,9.68 C40.272,9.376 40.16,9.104 39.952,8.88 C39.728,8.656 39.472,8.448 39.168,8.288 C38.832,8.112 38.464,7.936 38.08,7.744 C37.68,7.568 37.296,7.392 36.928,7.2 C36.512,7.008 36.208,6.832 36.048,6.672 C35.872,6.544 35.792,6.336 35.792,6.08 C35.792,6.016 35.808,5.952 35.856,5.856 C35.888,5.776 35.968,5.696 36.064,5.616 C36.16,5.536 36.288,5.456 36.448,5.392 C36.608,5.344 36.8,5.312 37.024,5.312 C37.28,5.312 37.504,5.36 37.696,5.44 C37.872,5.536 38.016,5.616 38.112,5.696 C38.256,5.856 38.416,5.984 38.608,6.096 C38.784,6.224 38.992,6.32 39.248,6.352 C39.488,6.352 39.696,6.288 39.856,6.144 C40,6.016 40.08,5.856 40.08,5.68 C40.08,5.472 39.968,5.28 39.776,5.104 C39.568,4.928 39.36,4.768 39.152,4.64 C38.88,4.48 38.56,4.352 38.192,4.224 C37.824,4.112 37.456,4.048 37.104,4.048 C36.464,4.048 35.952,4.128 35.552,4.272 C35.136,4.416 34.832,4.592 34.608,4.8 C34.368,5.024 34.208,5.264 34.128,5.52 C34.032,5.776 33.984,6.016 33.984,6.24 C33.984,6.496 34.032,6.72 34.128,6.912 C34.208,7.104 34.32,7.28 34.48,7.44 C34.624,7.6 34.8,7.744 34.992,7.856 C35.184,7.984 35.392,8.112 35.616,8.208 C35.76,8.288 35.904,8.352 36.064,8.416 C36.208,8.48 36.352,8.56 36.512,8.624 L37.12,8.896 C37.312,8.992 37.488,9.072 37.68,9.168 C37.936,9.312 38.128,9.44 38.24,9.536 C38.336,9.648 38.4,9.744 38.4,9.824 C38.4,9.92 38.352,10.016 38.256,10.08 C38.16,10.16 38.048,10.224 37.92,10.272 C37.776,10.336 37.616,10.368 37.456,10.384 C37.264,10.416 37.104,10.432 36.944,10.432 C36.8,10.432 36.656,10.416 36.496,10.384 C36.336,10.352 36.192,10.32 36.064,10.256 L35.696,10.128 C35.6,10.08 35.536,10.032 35.504,9.984 C35.344,9.792 35.168,9.648 34.992,9.536 C34.8,9.44 34.576,9.376 34.288,9.376 C34.016,9.376 33.824,9.456 33.712,9.584 C33.584,9.728 33.52,9.872 33.52,10 C33.52,10.08 33.536,10.176 33.6,10.288 C33.648,10.4 33.696,10.48 33.76,10.528 C33.904,10.688 34.112,10.832 34.384,10.96 C34.64,11.088 34.912,11.184 35.216,11.28 C35.504,11.36 35.792,11.424 36.08,11.472 C36.368,11.52 36.64,11.552 36.864,11.552 C37.168,11.552 37.52,11.52 37.92,11.472 C38.304,11.408 38.672,11.312 39.024,11.152 C39.376,11.024 39.664,10.832 39.92,10.576 C40.144,10.352 40.272,10.048 40.272,9.68 Z" ></path>
                <path d="M48.88,10.32 L48.88,7.728 C48.88,7.536 48.864,7.344 48.864,7.152 L48.8,6.608 C48.768,6.448 48.736,6.272 48.688,6.096 C48.576,5.776 48.4,5.472 48.176,5.184 C47.952,4.912 47.616,4.672 47.2,4.448 C46.928,4.32 46.672,4.24 46.416,4.192 C46.144,4.16 45.888,4.128 45.664,4.128 C45.488,4.128 45.312,4.176 45.136,4.24 C44.944,4.304 44.752,4.4 44.592,4.496 C44.4,4.624 44.24,4.752 44.08,4.88 C43.904,5.04 43.76,5.184 43.632,5.328 L43.632,4.208 C43.632,3.984 43.648,3.744 43.648,3.504 L43.648,2.816 C43.648,2.56 43.648,2.304 43.664,2.048 L43.664,1.392 C43.664,1.2 43.68,1.04 43.696,0.912 L43.696,0.672 C43.696,0.56 43.632,0.464 43.536,0.368 C43.44,0.272 43.328,0.208 43.216,0.144 C43.088,0.096 42.96,0.064 42.832,0.032 C42.704,0.016 42.592,0 42.512,0 C42.352,0 42.192,0.048 42.064,0.128 C41.92,0.192 41.824,0.272 41.776,0.336 C41.728,0.432 41.712,0.544 41.712,0.688 C41.712,0.752 41.712,0.848 41.744,1.008 C41.776,1.168 41.792,1.296 41.792,1.392 C41.792,1.456 41.792,1.568 41.808,1.744 L41.84,2.336 L41.904,2.944 C41.904,3.136 41.92,3.28 41.92,3.36 C41.92,3.424 41.904,3.568 41.904,3.76 C41.904,3.984 41.888,4.224 41.888,4.496 C41.872,4.784 41.872,5.104 41.872,5.424 L41.84,6.4 L41.808,7.296 L41.808,8.496 L41.84,9.104 L41.84,9.68 C41.84,9.872 41.856,10.048 41.856,10.176 C41.856,10.32 41.872,10.448 41.904,10.56 C41.92,10.688 41.968,10.8 42.064,10.912 C42.096,10.976 42.176,11.04 42.336,11.12 C42.48,11.216 42.624,11.264 42.768,11.264 C42.912,11.264 43.072,11.232 43.264,11.152 C43.44,11.088 43.552,10.992 43.616,10.832 C43.664,10.72 43.696,10.608 43.728,10.496 C43.76,10.4 43.776,10.304 43.776,10.208 C43.744,10.176 43.744,10.128 43.744,10.064 C43.728,10.032 43.728,10 43.728,9.968 L43.664,9.744 C43.664,9.712 43.648,9.664 43.648,9.6 C43.616,9.504 43.616,9.424 43.616,9.36 C43.616,9.328 43.6,9.2 43.6,9.008 L43.6,8.464 C43.6,8 43.664,7.568 43.824,7.168 C43.968,6.784 44.16,6.448 44.384,6.16 C44.608,5.872 44.848,5.648 45.12,5.488 C45.376,5.344 45.632,5.264 45.872,5.264 C46.096,5.264 46.288,5.312 46.448,5.408 C46.608,5.504 46.736,5.68 46.832,5.904 C46.928,6.16 46.992,6.48 47.04,6.896 C47.072,7.312 47.104,7.824 47.104,8.448 L47.104,8.848 C47.104,9.008 47.088,9.184 47.088,9.36 C47.088,9.536 47.072,9.696 47.072,9.84 C47.056,10 47.04,10.128 47.024,10.192 C46.976,10.256 46.928,10.32 46.896,10.384 C46.848,10.48 46.832,10.544 46.832,10.592 C46.832,10.688 46.864,10.768 46.928,10.832 C46.992,10.928 47.072,11.008 47.184,11.088 C47.392,11.248 47.584,11.328 47.76,11.328 C47.888,11.328 48.032,11.312 48.192,11.264 C48.352,11.232 48.48,11.168 48.608,11.072 C48.688,10.992 48.752,10.88 48.816,10.736 C48.848,10.608 48.88,10.48 48.88,10.32 Z" ></path>
                <path d="M56.528,4.768 C56.528,4.64 56.496,4.528 56.432,4.432 C56.352,4.336 56.256,4.24 56.144,4.176 C56.032,4.112 55.904,4.064 55.776,4.016 C55.632,3.984 55.504,3.968 55.376,3.968 C55.056,3.968 54.752,4.048 54.48,4.208 C54.192,4.384 53.92,4.592 53.68,4.832 C53.44,5.088 53.232,5.344 53.04,5.616 C52.848,5.904 52.704,6.176 52.576,6.4 L52.656,5.744 C52.672,5.488 52.688,5.264 52.688,5.072 C52.688,4.8 52.608,4.592 52.48,4.464 C52.336,4.336 52.096,4.256 51.776,4.256 C51.536,4.256 51.344,4.32 51.184,4.448 C51.024,4.576 50.944,4.736 50.912,4.912 C50.88,5.072 50.848,5.216 50.848,5.376 L50.816,5.84 C50.8,6.16 50.8,6.464 50.8,6.752 L50.8,8.208 L50.832,8.864 L50.864,9.488 C50.864,9.696 50.88,9.856 50.88,9.984 C50.88,10.176 50.896,10.368 50.928,10.576 C50.944,10.8 51.008,10.976 51.136,11.12 C51.216,11.232 51.312,11.312 51.44,11.376 C51.552,11.44 51.712,11.488 51.904,11.488 C52.16,11.488 52.384,11.424 52.608,11.296 C52.816,11.168 52.928,10.992 52.928,10.736 C52.928,10.416 52.88,10.08 52.816,9.744 C52.752,9.424 52.72,9.104 52.72,8.768 C52.72,8.64 52.752,8.48 52.832,8.272 C52.896,8.064 52.992,7.856 53.104,7.632 C53.2,7.424 53.296,7.216 53.424,7.008 C53.536,6.816 53.632,6.64 53.728,6.512 C53.792,6.4 53.904,6.272 54.032,6.128 C54.144,6 54.272,5.888 54.432,5.776 C54.576,5.664 54.736,5.568 54.896,5.488 C55.056,5.424 55.232,5.376 55.392,5.376 C55.424,5.376 55.488,5.392 55.584,5.424 L55.696,5.456 C55.728,5.472 55.76,5.472 55.808,5.472 C55.904,5.472 55.984,5.456 56.08,5.392 C56.16,5.36 56.24,5.296 56.304,5.232 C56.368,5.168 56.416,5.088 56.464,4.992 C56.496,4.912 56.528,4.832 56.528,4.768 Z" ></path>
                <path d="M60.32,1.968 C60.32,1.664 60.192,1.408 59.936,1.184 C59.792,1.088 59.648,1.024 59.504,0.96 C59.344,0.912 59.184,0.88 59.008,0.88 C58.736,0.88 58.496,0.976 58.272,1.136 C58.064,1.312 57.968,1.52 57.968,1.776 C57.968,2.096 58.112,2.368 58.416,2.576 C58.672,2.768 58.96,2.864 59.312,2.864 C59.6,2.864 59.84,2.8 60.032,2.64 C60.224,2.48 60.32,2.256 60.32,1.968 Z M59.968,4.976 C59.968,4.864 59.904,4.752 59.808,4.64 C59.696,4.544 59.584,4.464 59.472,4.4 C59.28,4.304 59.072,4.24 58.88,4.24 C58.784,4.24 58.672,4.256 58.56,4.288 C58.432,4.32 58.336,4.384 58.272,4.464 C58.192,4.56 58.144,4.704 58.128,4.88 C58.096,5.072 58.08,5.312 58.08,5.616 L58.048,8.848 L58.048,10.24 C58.048,10.368 58.064,10.512 58.128,10.64 C58.176,10.768 58.256,10.896 58.384,10.992 C58.416,11.024 58.496,11.088 58.64,11.184 C58.784,11.28 58.912,11.328 59.04,11.328 C59.152,11.328 59.28,11.296 59.44,11.216 C59.6,11.152 59.696,11.04 59.76,10.88 C59.856,10.672 59.92,10.464 59.92,10.272 C59.904,10.256 59.904,10.24 59.904,10.208 C59.904,10.192 59.888,10.16 59.888,10.128 C59.872,10.096 59.872,10.064 59.872,10.032 C59.872,10 59.856,9.968 59.856,9.92 C59.808,9.776 59.776,9.616 59.776,9.44 L59.76,8.88 L59.76,7.808 C59.76,7.584 59.76,7.344 59.776,7.088 C59.776,6.848 59.792,6.672 59.792,6.544 L59.792,6.352 L59.824,6.08 L59.856,5.792 C59.856,5.696 59.872,5.616 59.888,5.552 C59.904,5.424 59.92,5.312 59.952,5.2 C59.952,5.088 59.968,5.008 59.968,4.976 Z" ></path>
                <path d="M69.088,8.672 C69.088,8.16 69.072,7.712 69.056,7.296 C69.024,6.896 68.992,6.56 68.928,6.304 C68.816,5.936 68.656,5.584 68.432,5.264 C68.208,4.944 67.872,4.672 67.44,4.416 C67.264,4.32 67.088,4.24 66.912,4.176 C66.72,4.128 66.512,4.096 66.32,4.096 C66.08,4.096 65.856,4.144 65.632,4.208 C65.408,4.304 65.216,4.4 65.024,4.528 C64.832,4.672 64.656,4.832 64.512,4.992 C64.352,5.168 64.208,5.344 64.112,5.504 C64.112,5.392 64.128,5.28 64.128,5.168 C64.128,5.072 64.144,4.96 64.144,4.832 C64.144,4.592 64.08,4.4 63.968,4.24 C63.84,4.112 63.632,4.032 63.344,4.032 C63.088,4.032 62.88,4.112 62.688,4.24 C62.496,4.368 62.4,4.528 62.4,4.688 C62.4,4.784 62.4,4.864 62.416,4.912 C62.448,5.184 62.464,5.52 62.464,5.936 C62.464,6.352 62.48,6.832 62.48,7.36 L62.48,9.712 C62.48,9.936 62.464,10.16 62.464,10.384 L62.432,10.672 C62.4,10.768 62.4,10.864 62.4,10.96 C62.4,11.056 62.432,11.12 62.496,11.184 C62.544,11.248 62.608,11.296 62.704,11.328 C62.784,11.36 62.88,11.392 62.976,11.424 C63.072,11.44 63.152,11.456 63.232,11.456 C63.392,11.456 63.52,11.408 63.616,11.344 C63.712,11.28 63.808,11.216 63.888,11.12 C64,11.008 64.064,10.864 64.096,10.672 C64.112,10.48 64.128,10.32 64.128,10.176 L64.128,9.776 C64.128,9.616 64.144,9.456 64.144,9.296 C64.144,9.136 64.144,8.976 64.16,8.816 L64.16,8.432 C64.16,8.224 64.192,7.952 64.288,7.616 C64.352,7.296 64.48,6.976 64.672,6.656 C64.88,6.272 65.12,5.952 65.376,5.664 C65.632,5.392 65.936,5.248 66.272,5.248 C66.464,5.248 66.64,5.328 66.784,5.456 C66.912,5.616 67.024,5.792 67.12,6.016 C67.2,6.24 67.264,6.496 67.328,6.768 L67.424,7.584 C67.44,7.856 67.456,8.096 67.456,8.304 L67.456,9.488 C67.456,9.728 67.44,9.952 67.424,10.176 C67.424,10.256 67.408,10.336 67.392,10.4 C67.36,10.48 67.36,10.56 67.36,10.624 C67.36,10.72 67.36,10.832 67.392,10.928 C67.392,11.04 67.424,11.136 67.488,11.216 C67.536,11.312 67.6,11.392 67.696,11.456 C67.776,11.52 67.888,11.552 68.048,11.552 C68.384,11.552 68.64,11.44 68.816,11.248 C68.976,11.056 69.072,10.832 69.072,10.544 C69.072,10.24 69.072,9.936 69.088,9.616 L69.088,8.672 Z" ></path>
                <path d="M78.064,10.704 C77.696,10.56 77.344,10.368 76.992,10.112 C76.64,9.872 76.304,9.6 75.968,9.28 C75.744,9.088 75.552,8.912 75.392,8.752 L74.464,7.76 L73.968,7.2 C74.352,6.848 74.752,6.512 75.168,6.192 C75.52,5.92 75.888,5.68 76.256,5.456 C76.608,5.232 76.928,5.056 77.2,4.912 L77.2,4.752 C77.2,4.064 76.896,3.712 76.304,3.712 C76.24,3.712 76.048,3.824 75.76,4.016 C75.456,4.224 75.024,4.544 74.464,4.992 C74.112,5.264 73.792,5.536 73.472,5.792 L72.576,6.56 C72.576,6.048 72.576,5.52 72.608,4.976 C72.64,4.432 72.656,3.84 72.656,3.2 C72.656,3.056 72.656,2.864 72.672,2.64 C72.672,2.416 72.688,2.192 72.72,1.984 C72.72,1.696 72.768,1.44 72.848,1.248 C72.912,1.056 72.944,0.912 72.944,0.816 C72.944,0.736 72.912,0.656 72.848,0.592 C72.784,0.528 72.704,0.48 72.624,0.432 C72.432,0.352 72.24,0.304 72.032,0.304 C71.808,0.304 71.568,0.4 71.312,0.592 C71.184,0.688 71.072,0.768 70.976,0.848 C70.88,0.944 70.848,1.056 70.848,1.152 C70.848,1.216 70.848,1.264 70.88,1.328 L70.944,1.536 L70.992,1.808 C70.992,1.904 71.008,2 71.04,2.096 C71.04,2.192 71.056,2.32 71.072,2.448 C71.072,2.576 71.088,2.72 71.088,2.848 L71.12,7.04 C71.12,7.136 71.104,7.312 71.088,7.6 C71.056,7.888 71.04,8.208 71.024,8.544 L70.96,9.52 C70.928,9.84 70.928,10.08 70.928,10.208 C70.928,10.528 71.008,10.8 71.184,11.024 C71.344,11.248 71.648,11.36 72.064,11.36 C72.144,11.36 72.224,11.344 72.32,11.312 C72.384,11.296 72.464,11.264 72.56,11.232 C72.736,11.136 72.832,10.992 72.832,10.816 C72.832,10.72 72.8,10.608 72.736,10.48 L72.672,10.352 L72.624,10.224 C72.592,10.112 72.576,10 72.576,9.904 C72.544,9.808 72.544,9.712 72.544,9.616 L72.544,8.512 C72.592,8.464 72.64,8.416 72.704,8.368 C72.752,8.32 72.816,8.272 72.88,8.208 C73.328,8.608 73.76,9.024 74.176,9.44 C74.592,9.872 75.008,10.288 75.44,10.688 C76.112,11.328 76.624,11.648 76.976,11.648 C77.264,11.648 77.504,11.552 77.664,11.376 C77.808,11.216 77.936,10.992 78.064,10.704 Z" ></path>
                <path d="M81.936,5.632 C81.936,5.52 81.904,5.408 81.872,5.296 C81.84,5.184 81.776,5.088 81.68,4.992 C81.584,4.912 81.456,4.848 81.296,4.784 C81.136,4.736 80.928,4.704 80.672,4.704 C80.416,4.704 80.192,4.784 79.984,4.944 C79.76,5.12 79.664,5.312 79.664,5.536 C79.664,5.664 79.68,5.776 79.728,5.872 C79.776,5.984 79.872,6.08 80.032,6.16 C80.16,6.256 80.304,6.336 80.432,6.4 C80.56,6.464 80.688,6.496 80.816,6.496 C81.2,6.496 81.472,6.416 81.664,6.224 C81.84,6.064 81.936,5.856 81.936,5.632 Z M81.936,10.56 C81.936,10.448 81.904,10.336 81.872,10.224 C81.84,10.112 81.776,10.016 81.68,9.92 C81.584,9.84 81.456,9.776 81.296,9.712 C81.136,9.664 80.928,9.632 80.672,9.632 C80.416,9.632 80.192,9.712 79.984,9.872 C79.76,10.048 79.664,10.24 79.664,10.464 C79.664,10.592 79.68,10.704 79.728,10.8 C79.776,10.912 79.872,11.008 80.032,11.088 C80.16,11.184 80.304,11.264 80.432,11.328 C80.56,11.392 80.688,11.424 80.816,11.424 C81.2,11.424 81.472,11.328 81.664,11.152 C81.84,10.976 81.936,10.784 81.936,10.56 Z" ></path>
                <path d="M97.632,4.704 C97.632,1.792 96.544,0.336 94.4,0.336 C93.024,0.336 91.936,1.04 91.12,2.432 C90.368,3.712 90,5.232 90,7.008 C90,8.32 90.288,9.312 90.88,10.016 C91.472,10.752 92.352,11.12 93.504,11.12 C94.944,11.12 96.032,10.4 96.768,8.944 C97.344,7.792 97.632,6.384 97.632,4.704 Z M96.08,4.848 C96.08,6.16 95.84,7.28 95.376,8.224 C94.88,9.232 94.256,9.728 93.504,9.728 C92.208,9.728 91.568,8.8 91.568,6.944 C91.568,5.52 91.84,4.288 92.4,3.264 C92.944,2.24 93.584,1.728 94.288,1.728 C95.472,1.728 96.08,2.768 96.08,4.848 Z"></path>
            </g>
        </g>
    </g>
</svg>