
<svg viewBox="0 0 227.069838 165.025492" version="1.1" xmlns="http://www.w3.org/2000/svg" xmlns:xlink="http://www.w3.org/1999/xlink">
    <g stroke="none" stroke-width="1" fill="none" fill-rule="evenodd">
        <g fill-rule="nonzero">
            <path d="M226.801378,78.9037579 C228.101378,56.2337579 224.391378,33.6637579 221.861378,11.1837579 C221.861378,10.8137579 221.771378,10.4637579 221.701378,10.1237579 C221.351378,6.85375789 219.701378,3.97375789 216.061378,3.12375789 C200.161378,-0.876242106 183.901378,0.343757894 167.741378,1.69375789 C151.104487,3.04493409 134.388057,3.10845653 117.741378,1.88375789 C101.281378,0.753757894 84.9713783,2.11375789 68.5113783,2.29375789 C51.3269085,2.45951382 34.1458305,1.70844669 17.0413783,0.043757894 C10.8013783,-0.606242106 5.51137825,6.12375789 3.19137825,11.0237579 C1.85137825,13.8637579 -0.108621747,20.4137579 1.71137825,24.2337579 C0.748709358,26.6071023 0.285737404,29.1534481 0.351378253,31.7137579 C0.821378253,43.3337579 0.621378253,54.7137579 0.121378253,66.3537579 C-0.348621747,77.1737579 0.701378253,87.9937579 0.651378253,98.8137579 C0.651378253,110.023758 0.291378253,121.213758 1.72137825,132.363758 C2.09137825,135.193758 2.49137825,138.023758 3.05137825,140.833758 C3.23137825,141.763758 3.49137825,142.703758 3.69137825,143.633758 C3.69137825,143.863758 3.79137825,144.633758 3.79137825,144.823758 C3.90137825,149.323758 4.58137825,154.203758 7.71137825,157.663758 C13.7913783,164.373758 23.2713783,164.733758 31.7113783,164.833758 C42.2113783,164.953758 52.7113783,165.123758 63.2013783,164.953758 C86.0713783,164.553758 108.921378,163.253758 131.781378,162.453758 C157.841378,161.553758 183.941378,161.383758 209.931378,163.883758 C217.931378,164.653758 224.471378,154.053758 225.601378,147.493758 C227.601378,135.733758 226.971378,124.083758 226.251378,112.253758 C225.561378,101.123758 226.171378,90.1237579 226.801378,78.9037579 Z M203.111378,58.2537579 C203.491378,58.0437579 203.861378,57.8137579 204.231378,57.5637579 C204.231378,57.8637579 204.231378,58.1637579 204.311378,58.4537579 L203.111378,58.2537579 Z M198.201378,29.1737579 C198.201378,29.7337579 198.141378,30.3037579 198.121378,30.8737579 L197.691378,30.7737579 C197.841378,30.1837579 197.961378,29.5937579 198.061378,29.0037579 L198.211378,29.0037579 C198.201687,29.059871 198.198332,29.1168955 198.201378,29.1737579 L198.201378,29.1737579 Z" fill="#995DB5"></path>
            <path d="M217.261378,5.22375789 C203.614489,2.6526301 189.815756,0.965784286 175.951378,0.173757894 C164.331378,-0.406242106 152.651378,0.643757894 141.051378,1.17375789 L99.7313783,3.17375789 C86.6413783,3.79375789 73.1813783,5.29375789 60.1113783,3.74375789 C47.9213783,2.27375789 36.8013783,-1.53624211 24.3613783,0.853757894 C19.7313783,1.75375789 14.1613783,3.05375789 10.3613783,6.05375789 C6.05137825,9.49375789 5.47137825,14.6137579 5.10137825,19.7437579 C4.10137825,33.5837579 3.52137825,47.4737579 3.21137825,61.3537579 C2.52929609,92.4296422 3.43380611,123.520088 5.92137825,154.503758 C6.41137825,160.703758 13.8113783,154.333758 13.4913783,150.293758 C11.4447116,124.593758 10.4680449,98.8337579 10.5613783,73.0137579 C10.6347116,59.7937579 10.9880449,46.5737579 11.6213783,33.3537579 C11.9113783,27.4237579 12.4813783,21.4737579 12.6213783,15.5337579 C12.6713783,14.8737579 12.7113783,14.2137579 12.7613783,13.5337579 L12.5113783,13.3737579 C12.9213783,12.5837579 16.6813783,11.7637579 17.5113783,11.5037579 C20.2513858,10.6757946 23.0588503,10.090209 25.9013783,9.75375789 C37.8113783,8.36375789 49.2113783,12.9937579 61.0013783,13.7037579 C73.2813783,14.4537579 85.7413783,13.2237579 98.0013783,12.6437579 L136.381378,10.8337579 C147.381378,10.3037579 158.551378,9.27375789 169.611378,9.64375789 C184.384311,10.2941024 199.090059,12.0220278 213.611378,14.8137579 C217.611378,15.5537579 221.951378,6.12375789 217.261378,5.22375789 Z" fill="#000000" opacity="0.2"></path>
            <path d="M223.861378,20.1237579 C223.751378,14.2837579 224.811378,7.76375789 219.401378,3.99375789 C217.281378,2.52375789 215.091378,2.51375789 212.591378,2.35375789 C202.251378,1.67375789 191.841378,1.68375789 181.491378,1.57375789 C148.841378,1.22375789 116.181378,1.36375789 83.4913783,1.57375789 C62.9613783,1.68375789 42.4013783,1.57375789 21.8713783,1.98375789 C15.0113783,2.11375789 5.18137825,0.543757894 3.65137825,9.39375789 C3.63628171,9.46631428 3.63628171,9.54120151 3.65137825,9.61375789 C2.97137825,16.9837579 3.45137825,24.6137579 3.40137825,32.0337579 C3.28137825,47.7870912 3.18137825,63.5404246 3.10137825,79.2937579 C2.97137825,101.943758 2.18137825,124.713758 2.76137825,147.373758 C2.85137825,151.003758 3.03137825,155.553758 4.87137825,158.793758 C6.26137825,161.253758 8.15137825,161.513758 10.7613783,161.793758 C16.6586747,162.438388 22.5893121,162.728909 28.5213783,162.663758 C36.8113783,162.663758 45.1013783,162.663758 53.3813783,162.663758 C85.6747116,162.717091 117.961378,162.763758 150.241378,162.803758 L191.891378,162.803758 C199.261378,162.803758 206.971378,163.343758 214.311378,162.423758 C217.841378,161.983758 221.881378,161.233758 222.801378,157.343758 C223.801378,152.983758 223.521378,147.623758 223.661378,143.203758 C223.731378,140.943758 223.661378,138.663758 223.661378,136.403758 C223.661378,123.183758 223.661378,109.960425 223.661378,96.7337579 C223.801378,71.1837579 224.331378,45.6037579 223.861378,20.1237579 Z M221.461378,143.233758 C221.341378,146.553758 220.941378,149.863758 220.831378,153.183758 C220.741378,156.073758 221.311378,157.893758 217.831378,159.463758 C214.931378,160.773758 211.101378,160.513758 207.951378,160.553758 C205.431378,160.553758 202.951378,160.553758 200.371378,160.553758 L166.371378,160.553758 L71.8413783,160.423758 C52.1413783,160.423758 31.8413783,161.633758 12.2013783,159.703758 C9.92137825,159.473758 8.20137825,159.703758 6.79137825,157.643758 C5.38137825,155.583758 5.30137825,152.123758 5.11137825,149.723758 C5.03137825,148.673758 5.00137825,147.633758 4.98137825,146.583758 C4.93137825,143.483758 4.98137825,140.393758 4.98137825,137.293758 C4.98137825,124.233758 4.98137825,111.177091 4.98137825,98.1237579 C4.98137825,70.5637579 4.88137825,43.0037579 4.98137825,15.4437579 C4.98137825,13.5837579 4.89137825,11.6737579 4.98137825,9.82375789 C4.98137825,9.82375789 4.98137825,9.82375789 4.98137825,9.77375789 C6.29137825,3.07375789 12.4413783,4.06375789 17.6813783,3.91375789 C22.3413783,3.77375789 26.9813783,3.84375789 31.6813783,3.84375789 C33.4313783,3.84375789 35.1813783,3.84375789 36.9213783,3.84375789 L66.9213783,3.67375789 C98.3013783,3.50375789 129.681378,3.39375789 161.071378,3.54375789 C173.901378,3.61375789 186.741378,3.69375789 199.571378,4.00375789 C205.571378,4.14375789 217.091378,2.38375789 220.571378,8.25375789 C222.221378,11.0137579 221.571378,16.6637579 221.621378,19.7737579 C221.621378,20.5237579 221.621378,21.2637579 221.621378,22.0137579 C221.621378,25.9237579 221.621378,29.8437579 221.621378,33.7537579 C221.581378,48.0137579 221.548045,62.2737579 221.521378,76.5337579 C221.581378,98.6437579 222.221378,120.983758 221.461378,143.183758 L221.461378,143.233758 Z" fill="#1E1E1E"></path>
            <g transform="translate(9.8726, 83.4895)">
                <g transform="translate(133, 0)">
                    <path d="M51.6887425,6.68426068 C50.7887425,-0.395739322 42.4487425,6.86426068 43.0287425,11.4842607 C45.0287425,27.4842607 44.5787425,43.6542607 44.2487425,59.7642607 C44.2487425,61.5542607 44.1787425,63.3542607 44.1387425,65.1442607 C44.1387425,65.3642607 44.0387425,66.5142607 43.9787425,67.6942607 C43.2787425,67.8742607 42.5687425,68.0442607 41.8687425,68.1942607 C40.0487425,68.6042607 38.2087425,68.9442607 36.3687425,69.2442607 C28.0929556,70.5050452 19.6868263,70.6664429 11.3687425,69.7242607 C6.73874246,69.2342607 1.92874246,80.1342607 7.23874246,80.7242607 C16.8776197,81.7576473 26.614267,81.4209721 36.1587425,79.7242607 C44.2787425,78.2542607 52.0387425,76.0242607 52.6187425,66.4142607 C53.8187425,46.7542607 54.1687425,26.2342607 51.6887425,6.68426068 Z" fill="#000000" opacity="0.15"></path>
                    <path d="M47.3187425,6.37426068 C47.0887425,5.37426068 45.8787425,2.52426068 43.3187425,2.00426068 C42.6787425,1.87426068 7.93874246,1.25426068 6.36874246,1.61426068 C4.8753337,2.22535429 3.48814598,3.06914244 2.25874246,4.11426068 C0.918742462,5.22426068 1.10874246,66.5642607 1.10874246,66.5642607 C1.29874246,68.1242607 2.38874246,73.1942607 3.49874246,73.7942607 C5.49874246,74.8642607 42.2787425,74.8942607 43.4987425,74.5442607 C45.6388536,73.9419818 47.1834507,72.0789111 47.3787425,69.8642607 C47.4987425,68.6342607 47.5487425,7.39426068 47.3187425,6.37426068 Z" fill="#F7941F"></path>
                    <path d="M45.0087425,2.02426068 C34.8601129,1.01286081 24.6450413,0.845619956 14.4687425,1.52426068 C11.4687425,1.71426068 8.07874246,0.904260678 5.54874246,2.83426068 C2.77874246,4.93426068 2.03874246,8.49426068 2.22874246,11.7342607 C3.39874246,31.0942607 -2.37125754,52.0142607 4.42874246,70.8942607 C5.98874246,75.2342607 11.8187425,68.7142607 10.6787425,65.5242607 C7.32874246,56.2242607 7.49874246,44.9842607 7.72874246,35.2042607 C7.83874246,30.0942607 8.34874246,25.0442607 8.72874246,19.9542607 C8.96698286,17.4783784 9.07046885,14.9913765 9.03874246,12.5042607 C9.03874246,11.5042607 8.93874246,10.5842607 8.84874246,9.63426068 C10.3687425,9.63426068 11.9387425,9.70426068 13.2387425,9.63426068 C16.4187425,9.42426068 19.6087425,9.31426068 22.7887425,9.29426068 C29.1621495,9.28219411 35.5315152,9.6160183 41.8687425,10.2942607 C45.3887425,10.6342607 48.9887425,2.43426068 45.0087425,2.02426068 Z" fill="#FFFFFF" opacity="0.25"></path>
                    <path d="M48.4287425,51.3342607 C48.4287425,41.7142607 48.3387425,32.0942607 48.2587425,22.4842607 C48.2587425,17.2842607 48.6887425,11.7342607 48.0387425,6.55426068 C48.0486273,6.4946678 48.0486273,6.43385356 48.0387425,6.37426068 C47.4687425,1.37426068 45.0387425,1.04426068 40.4487425,0.714260678 C35.3387425,0.364260678 30.2087425,0.0942606785 25.0787425,0.00426067846 C25.0222182,-0.00142022615 24.9652667,-0.00142022615 24.9087425,0.00426067846 L22.3387425,0.00426067846 C22.2655179,-0.00138871667 22.191967,-0.00138871667 22.1187425,0.00426067846 C18.1187425,0.0642606785 14.1187425,0.134260678 10.0487425,0.304260678 C7.32874246,0.424260678 3.15874246,0.304260678 1.49874246,2.89426068 C-0.281257538,5.64426068 0.678742462,12.5342607 0.638742462,15.7442607 C0.445409129,31.4309273 0.242075796,47.1209273 0.0287424625,62.8142607 C-0.0312575375,66.7442607 -0.331257538,73.3042607 3.75874246,75.0942607 C6.52874246,76.3042607 10.1587425,75.6542607 13.0887425,75.7042607 C15.6787425,75.7542607 18.2387425,76.2542607 20.8087425,76.3542607 C25.8087425,76.5642607 30.8987425,76.3542607 35.8887425,76.1842607 C38.7387425,76.0942607 43.6287425,76.7542607 46.1987425,75.0442607 C48.7687425,73.3342607 48.1987425,69.1942607 48.3687425,66.6142607 C48.6087425,61.5442607 48.4087425,56.4142607 48.4287425,51.3342607 Z M46.5887425,18.2042607 C46.5087425,25.7842607 46.4187425,33.357594 46.3187425,40.9242607 C46.2254091,47.477594 46.1654091,54.027594 46.1387425,60.5742607 C46.1387425,64.2842607 47.1387425,72.3242607 43.1387425,73.5742607 C39.8687425,74.5742607 35.2087425,73.9442607 31.7587425,74.0142607 C27.5587425,74.0942607 23.3087425,74.1842607 19.1387425,73.8442607 C16.4687425,73.6242607 13.8687425,73.4542607 11.1387425,73.4442607 C6.89874246,73.4442607 3.80874246,73.8342607 2.64874246,69.0942607 C2.28216031,67.5759851 2.12072317,66.0154261 2.16874246,64.4542607 C2.28874246,50.8609273 2.4220758,37.2742607 2.56874246,23.6942607 C2.56874246,18.7542607 2.69874246,13.8142607 2.72874246,8.88426068 C2.72874246,7.64426068 2.35874246,5.66426068 2.98874246,4.58426068 C4.23874246,2.42426068 7.34874246,2.50426068 9.45874246,2.40426068 C14.4587425,2.15426068 19.3787425,2.09426068 24.3287425,2.00426068 C28.3287425,2.06426068 32.3287425,2.24426068 36.2487425,2.41426068 C40.0587425,2.57426068 45.6487425,1.78426068 46.5287425,6.58426068 C46.5287425,6.58426068 46.5287425,6.64426068 46.5287425,6.68426068 C47.1087425,10.2142607 46.6187425,14.5342607 46.5887425,18.2042607 Z" fill="#1E1E1E"></path>
                </g>
                <g transform="translate(70, 0)">
                    <path d="M51.6887425,6.68426068 C50.7887425,-0.395739322 42.4487425,6.86426068 43.0287425,11.4842607 C45.0287425,27.4842607 44.5787425,43.6542607 44.2487425,59.7642607 C44.2487425,61.5542607 44.1787425,63.3542607 44.1387425,65.1442607 C44.1387425,65.3642607 44.0387425,66.5142607 43.9787425,67.6942607 C43.2787425,67.8742607 42.5687425,68.0442607 41.8687425,68.1942607 C40.0487425,68.6042607 38.2087425,68.9442607 36.3687425,69.2442607 C28.0929556,70.5050452 19.6868263,70.6664429 11.3687425,69.7242607 C6.73874246,69.2342607 1.92874246,80.1342607 7.23874246,80.7242607 C16.8776197,81.7576473 26.614267,81.4209721 36.1587425,79.7242607 C44.2787425,78.2542607 52.0387425,76.0242607 52.6187425,66.4142607 C53.8187425,46.7542607 54.1687425,26.2342607 51.6887425,6.68426068 Z" fill="#000000" opacity="0.15"></path>
                    <path d="M47.3187425,6.37426068 C47.0887425,5.37426068 45.8787425,2.52426068 43.3187425,2.00426068 C42.6787425,1.87426068 7.93874246,1.25426068 6.36874246,1.61426068 C4.8753337,2.22535429 3.48814598,3.06914244 2.25874246,4.11426068 C0.918742462,5.22426068 1.10874246,66.5642607 1.10874246,66.5642607 C1.29874246,68.1242607 2.38874246,73.1942607 3.49874246,73.7942607 C5.49874246,74.8642607 42.2787425,74.8942607 43.4987425,74.5442607 C45.6388536,73.9419818 47.1834507,72.0789111 47.3787425,69.8642607 C47.4987425,68.6342607 47.5487425,7.39426068 47.3187425,6.37426068 Z" fill="#F7941F"></path>
                    <path d="M45.0087425,2.02426068 C34.8601129,1.01286081 24.6450413,0.845619956 14.4687425,1.52426068 C11.4687425,1.71426068 8.07874246,0.904260678 5.54874246,2.83426068 C2.77874246,4.93426068 2.03874246,8.49426068 2.22874246,11.7342607 C3.39874246,31.0942607 -2.37125754,52.0142607 4.42874246,70.8942607 C5.98874246,75.2342607 11.8187425,68.7142607 10.6787425,65.5242607 C7.32874246,56.2242607 7.49874246,44.9842607 7.72874246,35.2042607 C7.83874246,30.0942607 8.34874246,25.0442607 8.72874246,19.9542607 C8.96698286,17.4783784 9.07046885,14.9913765 9.03874246,12.5042607 C9.03874246,11.5042607 8.93874246,10.5842607 8.84874246,9.63426068 C10.3687425,9.63426068 11.9387425,9.70426068 13.2387425,9.63426068 C16.4187425,9.42426068 19.6087425,9.31426068 22.7887425,9.29426068 C29.1621495,9.28219411 35.5315152,9.6160183 41.8687425,10.2942607 C45.3887425,10.6342607 48.9887425,2.43426068 45.0087425,2.02426068 Z" fill="#FFFFFF" opacity="0.25"></path>
                    <path d="M48.4287425,51.3342607 C48.4287425,41.7142607 48.3387425,32.0942607 48.2587425,22.4842607 C48.2587425,17.2842607 48.6887425,11.7342607 48.0387425,6.55426068 C48.0486273,6.4946678 48.0486273,6.43385356 48.0387425,6.37426068 C47.4687425,1.37426068 45.0387425,1.04426068 40.4487425,0.714260678 C35.3387425,0.364260678 30.2087425,0.0942606785 25.0787425,0.00426067846 C25.0222182,-0.00142022615 24.9652667,-0.00142022615 24.9087425,0.00426067846 L22.3387425,0.00426067846 C22.2655179,-0.00138871667 22.191967,-0.00138871667 22.1187425,0.00426067846 C18.1187425,0.0642606785 14.1187425,0.134260678 10.0487425,0.304260678 C7.32874246,0.424260678 3.15874246,0.304260678 1.49874246,2.89426068 C-0.281257538,5.64426068 0.678742462,12.5342607 0.638742462,15.7442607 C0.445409129,31.4309273 0.242075796,47.1209273 0.0287424625,62.8142607 C-0.0312575375,66.7442607 -0.331257538,73.3042607 3.75874246,75.0942607 C6.52874246,76.3042607 10.1587425,75.6542607 13.0887425,75.7042607 C15.6787425,75.7542607 18.2387425,76.2542607 20.8087425,76.3542607 C25.8087425,76.5642607 30.8987425,76.3542607 35.8887425,76.1842607 C38.7387425,76.0942607 43.6287425,76.7542607 46.1987425,75.0442607 C48.7687425,73.3342607 48.1987425,69.1942607 48.3687425,66.6142607 C48.6087425,61.5442607 48.4087425,56.4142607 48.4287425,51.3342607 Z M46.5887425,18.2042607 C46.5087425,25.7842607 46.4187425,33.357594 46.3187425,40.9242607 C46.2254091,47.477594 46.1654091,54.027594 46.1387425,60.5742607 C46.1387425,64.2842607 47.1387425,72.3242607 43.1387425,73.5742607 C39.8687425,74.5742607 35.2087425,73.9442607 31.7587425,74.0142607 C27.5587425,74.0942607 23.3087425,74.1842607 19.1387425,73.8442607 C16.4687425,73.6242607 13.8687425,73.4542607 11.1387425,73.4442607 C6.89874246,73.4442607 3.80874246,73.8342607 2.64874246,69.0942607 C2.28216031,67.5759851 2.12072317,66.0154261 2.16874246,64.4542607 C2.28874246,50.8609273 2.4220758,37.2742607 2.56874246,23.6942607 C2.56874246,18.7542607 2.69874246,13.8142607 2.72874246,8.88426068 C2.72874246,7.64426068 2.35874246,5.66426068 2.98874246,4.58426068 C4.23874246,2.42426068 7.34874246,2.50426068 9.45874246,2.40426068 C14.4587425,2.15426068 19.3787425,2.09426068 24.3287425,2.00426068 C28.3287425,2.06426068 32.3287425,2.24426068 36.2487425,2.41426068 C40.0587425,2.57426068 45.6487425,1.78426068 46.5287425,6.58426068 C46.5287425,6.58426068 46.5287425,6.64426068 46.5287425,6.68426068 C47.1087425,10.2142607 46.6187425,14.5342607 46.5887425,18.2042607 Z" fill="#1E1E1E"></path>
                </g>
                <g>
                    <path d="M51.6887425,6.68426068 C50.7887425,-0.395739322 42.4487425,6.86426068 43.0287425,11.4842607 C45.0287425,27.4842607 44.5787425,43.6542607 44.2487425,59.7642607 C44.2487425,61.5542607 44.1787425,63.3542607 44.1387425,65.1442607 C44.1387425,65.3642607 44.0387425,66.5142607 43.9787425,67.6942607 C43.2787425,67.8742607 42.5687425,68.0442607 41.8687425,68.1942607 C40.0487425,68.6042607 38.2087425,68.9442607 36.3687425,69.2442607 C28.0929556,70.5050452 19.6868263,70.6664429 11.3687425,69.7242607 C6.73874246,69.2342607 1.92874246,80.1342607 7.23874246,80.7242607 C16.8776197,81.7576473 26.614267,81.4209721 36.1587425,79.7242607 C44.2787425,78.2542607 52.0387425,76.0242607 52.6187425,66.4142607 C53.8187425,46.7542607 54.1687425,26.2342607 51.6887425,6.68426068 Z" fill="#000000" opacity="0.15"></path>
                    <path d="M47.3187425,6.37426068 C47.0887425,5.37426068 45.8787425,2.52426068 43.3187425,2.00426068 C42.6787425,1.87426068 7.93874246,1.25426068 6.36874246,1.61426068 C4.8753337,2.22535429 3.48814598,3.06914244 2.25874246,4.11426068 C0.918742462,5.22426068 1.10874246,66.5642607 1.10874246,66.5642607 C1.29874246,68.1242607 2.38874246,73.1942607 3.49874246,73.7942607 C5.49874246,74.8642607 42.2787425,74.8942607 43.4987425,74.5442607 C45.6388536,73.9419818 47.1834507,72.0789111 47.3787425,69.8642607 C47.4987425,68.6342607 47.5487425,7.39426068 47.3187425,6.37426068 Z" fill="#F7941F"></path>
                    <path d="M45.0087425,2.02426068 C34.8601129,1.01286081 24.6450413,0.845619956 14.4687425,1.52426068 C11.4687425,1.71426068 8.07874246,0.904260678 5.54874246,2.83426068 C2.77874246,4.93426068 2.03874246,8.49426068 2.22874246,11.7342607 C3.39874246,31.0942607 -2.37125754,52.0142607 4.42874246,70.8942607 C5.98874246,75.2342607 11.8187425,68.7142607 10.6787425,65.5242607 C7.32874246,56.2242607 7.49874246,44.9842607 7.72874246,35.2042607 C7.83874246,30.0942607 8.34874246,25.0442607 8.72874246,19.9542607 C8.96698286,17.4783784 9.07046885,14.9913765 9.03874246,12.5042607 C9.03874246,11.5042607 8.93874246,10.5842607 8.84874246,9.63426068 C10.3687425,9.63426068 11.9387425,9.70426068 13.2387425,9.63426068 C16.4187425,9.42426068 19.6087425,9.31426068 22.7887425,9.29426068 C29.1621495,9.28219411 35.5315152,9.6160183 41.8687425,10.2942607 C45.3887425,10.6342607 48.9887425,2.43426068 45.0087425,2.02426068 Z" fill="#FFFFFF" opacity="0.25"></path>
                    <path d="M48.4287425,51.3342607 C48.4287425,41.7142607 48.3387425,32.0942607 48.2587425,22.4842607 C48.2587425,17.2842607 48.6887425,11.7342607 48.0387425,6.55426068 C48.0486273,6.4946678 48.0486273,6.43385356 48.0387425,6.37426068 C47.4687425,1.37426068 45.0387425,1.04426068 40.4487425,0.714260678 C35.3387425,0.364260678 30.2087425,0.0942606785 25.0787425,0.00426067846 C25.0222182,-0.00142022615 24.9652667,-0.00142022615 24.9087425,0.00426067846 L22.3387425,0.00426067846 C22.2655179,-0.00138871667 22.191967,-0.00138871667 22.1187425,0.00426067846 C18.1187425,0.0642606785 14.1187425,0.134260678 10.0487425,0.304260678 C7.32874246,0.424260678 3.15874246,0.304260678 1.49874246,2.89426068 C-0.281257538,5.64426068 0.678742462,12.5342607 0.638742462,15.7442607 C0.445409129,31.4309273 0.242075796,47.1209273 0.0287424625,62.8142607 C-0.0312575375,66.7442607 -0.331257538,73.3042607 3.75874246,75.0942607 C6.52874246,76.3042607 10.1587425,75.6542607 13.0887425,75.7042607 C15.6787425,75.7542607 18.2387425,76.2542607 20.8087425,76.3542607 C25.8087425,76.5642607 30.8987425,76.3542607 35.8887425,76.1842607 C38.7387425,76.0942607 43.6287425,76.7542607 46.1987425,75.0442607 C48.7687425,73.3342607 48.1987425,69.1942607 48.3687425,66.6142607 C48.6087425,61.5442607 48.4087425,56.4142607 48.4287425,51.3342607 Z M46.5887425,18.2042607 C46.5087425,25.7842607 46.4187425,33.357594 46.3187425,40.9242607 C46.2254091,47.477594 46.1654091,54.027594 46.1387425,60.5742607 C46.1387425,64.2842607 47.1387425,72.3242607 43.1387425,73.5742607 C39.8687425,74.5742607 35.2087425,73.9442607 31.7587425,74.0142607 C27.5587425,74.0942607 23.3087425,74.1842607 19.1387425,73.8442607 C16.4687425,73.6242607 13.8687425,73.4542607 11.1387425,73.4442607 C6.89874246,73.4442607 3.80874246,73.8342607 2.64874246,69.0942607 C2.28216031,67.5759851 2.12072317,66.0154261 2.16874246,64.4542607 C2.28874246,50.8609273 2.4220758,37.2742607 2.56874246,23.6942607 C2.56874246,18.7542607 2.69874246,13.8142607 2.72874246,8.88426068 C2.72874246,7.64426068 2.35874246,5.66426068 2.98874246,4.58426068 C4.23874246,2.42426068 7.34874246,2.50426068 9.45874246,2.40426068 C14.4587425,2.15426068 19.3787425,2.09426068 24.3287425,2.00426068 C28.3287425,2.06426068 32.3287425,2.24426068 36.2487425,2.41426068 C40.0587425,2.57426068 45.6487425,1.78426068 46.5287425,6.58426068 C46.5287425,6.58426068 46.5287425,6.64426068 46.5287425,6.68426068 C47.1087425,10.2142607 46.6187425,14.5342607 46.5887425,18.2042607 Z" fill="#1E1E1E"></path>
                </g>
            </g>
            <g transform="translate(9.8726, 5.4895)">
                <g transform="translate(161, 0)">
                    <path d="M51.6887425,6.68426068 C50.7887425,-0.395739322 42.4487425,6.86426068 43.0287425,11.4842607 C45.0287425,27.4842607 44.5787425,43.6542607 44.2487425,59.7642607 C44.2487425,61.5542607 44.1787425,63.3542607 44.1387425,65.1442607 C44.1387425,65.3642607 44.0387425,66.5142607 43.9787425,67.6942607 C43.2787425,67.8742607 42.5687425,68.0442607 41.8687425,68.1942607 C40.0487425,68.6042607 38.2087425,68.9442607 36.3687425,69.2442607 C28.0929556,70.5050452 19.6868263,70.6664429 11.3687425,69.7242607 C6.73874246,69.2342607 1.92874246,80.1342607 7.23874246,80.7242607 C16.8776197,81.7576473 26.614267,81.4209721 36.1587425,79.7242607 C44.2787425,78.2542607 52.0387425,76.0242607 52.6187425,66.4142607 C53.8187425,46.7542607 54.1687425,26.2342607 51.6887425,6.68426068 Z" fill="#000000" opacity="0.15"></path>
                    <path d="M47.3187425,6.37426068 C47.0887425,5.37426068 45.8787425,2.52426068 43.3187425,2.00426068 C42.6787425,1.87426068 7.93874246,1.25426068 6.36874246,1.61426068 C4.8753337,2.22535429 3.48814598,3.06914244 2.25874246,4.11426068 C0.918742462,5.22426068 1.10874246,66.5642607 1.10874246,66.5642607 C1.29874246,68.1242607 2.38874246,73.1942607 3.49874246,73.7942607 C5.49874246,74.8642607 42.2787425,74.8942607 43.4987425,74.5442607 C45.6388536,73.9419818 47.1834507,72.0789111 47.3787425,69.8642607 C47.4987425,68.6342607 47.5487425,7.39426068 47.3187425,6.37426068 Z" fill="#F7941F"></path>
                    <path d="M45.0087425,2.02426068 C34.8601129,1.01286081 24.6450413,0.845619956 14.4687425,1.52426068 C11.4687425,1.71426068 8.07874246,0.904260678 5.54874246,2.83426068 C2.77874246,4.93426068 2.03874246,8.49426068 2.22874246,11.7342607 C3.39874246,31.0942607 -2.37125754,52.0142607 4.42874246,70.8942607 C5.98874246,75.2342607 11.8187425,68.7142607 10.6787425,65.5242607 C7.32874246,56.2242607 7.49874246,44.9842607 7.72874246,35.2042607 C7.83874246,30.0942607 8.34874246,25.0442607 8.72874246,19.9542607 C8.96698286,17.4783784 9.07046885,14.9913765 9.03874246,12.5042607 C9.03874246,11.5042607 8.93874246,10.5842607 8.84874246,9.63426068 C10.3687425,9.63426068 11.9387425,9.70426068 13.2387425,9.63426068 C16.4187425,9.42426068 19.6087425,9.31426068 22.7887425,9.29426068 C29.1621495,9.28219411 35.5315152,9.6160183 41.8687425,10.2942607 C45.3887425,10.6342607 48.9887425,2.43426068 45.0087425,2.02426068 Z" fill="#FFFFFF" opacity="0.25"></path>
                    <path d="M48.4287425,51.3342607 C48.4287425,41.7142607 48.3387425,32.0942607 48.2587425,22.4842607 C48.2587425,17.2842607 48.6887425,11.7342607 48.0387425,6.55426068 C48.0486273,6.4946678 48.0486273,6.43385356 48.0387425,6.37426068 C47.4687425,1.37426068 45.0387425,1.04426068 40.4487425,0.714260678 C35.3387425,0.364260678 30.2087425,0.0942606785 25.0787425,0.00426067846 C25.0222182,-0.00142022615 24.9652667,-0.00142022615 24.9087425,0.00426067846 L22.3387425,0.00426067846 C22.2655179,-0.00138871667 22.191967,-0.00138871667 22.1187425,0.00426067846 C18.1187425,0.0642606785 14.1187425,0.134260678 10.0487425,0.304260678 C7.32874246,0.424260678 3.15874246,0.304260678 1.49874246,2.89426068 C-0.281257538,5.64426068 0.678742462,12.5342607 0.638742462,15.7442607 C0.445409129,31.4309273 0.242075796,47.1209273 0.0287424625,62.8142607 C-0.0312575375,66.7442607 -0.331257538,73.3042607 3.75874246,75.0942607 C6.52874246,76.3042607 10.1587425,75.6542607 13.0887425,75.7042607 C15.6787425,75.7542607 18.2387425,76.2542607 20.8087425,76.3542607 C25.8087425,76.5642607 30.8987425,76.3542607 35.8887425,76.1842607 C38.7387425,76.0942607 43.6287425,76.7542607 46.1987425,75.0442607 C48.7687425,73.3342607 48.1987425,69.1942607 48.3687425,66.6142607 C48.6087425,61.5442607 48.4087425,56.4142607 48.4287425,51.3342607 Z M46.5887425,18.2042607 C46.5087425,25.7842607 46.4187425,33.357594 46.3187425,40.9242607 C46.2254091,47.477594 46.1654091,54.027594 46.1387425,60.5742607 C46.1387425,64.2842607 47.1387425,72.3242607 43.1387425,73.5742607 C39.8687425,74.5742607 35.2087425,73.9442607 31.7587425,74.0142607 C27.5587425,74.0942607 23.3087425,74.1842607 19.1387425,73.8442607 C16.4687425,73.6242607 13.8687425,73.4542607 11.1387425,73.4442607 C6.89874246,73.4442607 3.80874246,73.8342607 2.64874246,69.0942607 C2.28216031,67.5759851 2.12072317,66.0154261 2.16874246,64.4542607 C2.28874246,50.8609273 2.4220758,37.2742607 2.56874246,23.6942607 C2.56874246,18.7542607 2.69874246,13.8142607 2.72874246,8.88426068 C2.72874246,7.64426068 2.35874246,5.66426068 2.98874246,4.58426068 C4.23874246,2.42426068 7.34874246,2.50426068 9.45874246,2.40426068 C14.4587425,2.15426068 19.3787425,2.09426068 24.3287425,2.00426068 C28.3287425,2.06426068 32.3287425,2.24426068 36.2487425,2.41426068 C40.0587425,2.57426068 45.6487425,1.78426068 46.5287425,6.58426068 C46.5287425,6.58426068 46.5287425,6.64426068 46.5287425,6.68426068 C47.1087425,10.2142607 46.6187425,14.5342607 46.5887425,18.2042607 Z" fill="#1E1E1E"></path>
                </g>
                <g transform="translate(108, 0)">
                    <path d="M51.6887425,6.68426068 C50.7887425,-0.395739322 42.4487425,6.86426068 43.0287425,11.4842607 C45.0287425,27.4842607 44.5787425,43.6542607 44.2487425,59.7642607 C44.2487425,61.5542607 44.1787425,63.3542607 44.1387425,65.1442607 C44.1387425,65.3642607 44.0387425,66.5142607 43.9787425,67.6942607 C43.2787425,67.8742607 42.5687425,68.0442607 41.8687425,68.1942607 C40.0487425,68.6042607 38.2087425,68.9442607 36.3687425,69.2442607 C28.0929556,70.5050452 19.6868263,70.6664429 11.3687425,69.7242607 C6.73874246,69.2342607 1.92874246,80.1342607 7.23874246,80.7242607 C16.8776197,81.7576473 26.614267,81.4209721 36.1587425,79.7242607 C44.2787425,78.2542607 52.0387425,76.0242607 52.6187425,66.4142607 C53.8187425,46.7542607 54.1687425,26.2342607 51.6887425,6.68426068 Z" fill="#000000" opacity="0.15"></path>
                    <path d="M47.3187425,6.37426068 C47.0887425,5.37426068 45.8787425,2.52426068 43.3187425,2.00426068 C42.6787425,1.87426068 7.93874246,1.25426068 6.36874246,1.61426068 C4.8753337,2.22535429 3.48814598,3.06914244 2.25874246,4.11426068 C0.918742462,5.22426068 1.10874246,66.5642607 1.10874246,66.5642607 C1.29874246,68.1242607 2.38874246,73.1942607 3.49874246,73.7942607 C5.49874246,74.8642607 42.2787425,74.8942607 43.4987425,74.5442607 C45.6388536,73.9419818 47.1834507,72.0789111 47.3787425,69.8642607 C47.4987425,68.6342607 47.5487425,7.39426068 47.3187425,6.37426068 Z" fill="#F7941F"></path>
                    <path d="M45.0087425,2.02426068 C34.8601129,1.01286081 24.6450413,0.845619956 14.4687425,1.52426068 C11.4687425,1.71426068 8.07874246,0.904260678 5.54874246,2.83426068 C2.77874246,4.93426068 2.03874246,8.49426068 2.22874246,11.7342607 C3.39874246,31.0942607 -2.37125754,52.0142607 4.42874246,70.8942607 C5.98874246,75.2342607 11.8187425,68.7142607 10.6787425,65.5242607 C7.32874246,56.2242607 7.49874246,44.9842607 7.72874246,35.2042607 C7.83874246,30.0942607 8.34874246,25.0442607 8.72874246,19.9542607 C8.96698286,17.4783784 9.07046885,14.9913765 9.03874246,12.5042607 C9.03874246,11.5042607 8.93874246,10.5842607 8.84874246,9.63426068 C10.3687425,9.63426068 11.9387425,9.70426068 13.2387425,9.63426068 C16.4187425,9.42426068 19.6087425,9.31426068 22.7887425,9.29426068 C29.1621495,9.28219411 35.5315152,9.6160183 41.8687425,10.2942607 C45.3887425,10.6342607 48.9887425,2.43426068 45.0087425,2.02426068 Z" fill="#FFFFFF" opacity="0.25"></path>
                    <path d="M48.4287425,51.3342607 C48.4287425,41.7142607 48.3387425,32.0942607 48.2587425,22.4842607 C48.2587425,17.2842607 48.6887425,11.7342607 48.0387425,6.55426068 C48.0486273,6.4946678 48.0486273,6.43385356 48.0387425,6.37426068 C47.4687425,1.37426068 45.0387425,1.04426068 40.4487425,0.714260678 C35.3387425,0.364260678 30.2087425,0.0942606785 25.0787425,0.00426067846 C25.0222182,-0.00142022615 24.9652667,-0.00142022615 24.9087425,0.00426067846 L22.3387425,0.00426067846 C22.2655179,-0.00138871667 22.191967,-0.00138871667 22.1187425,0.00426067846 C18.1187425,0.0642606785 14.1187425,0.134260678 10.0487425,0.304260678 C7.32874246,0.424260678 3.15874246,0.304260678 1.49874246,2.89426068 C-0.281257538,5.64426068 0.678742462,12.5342607 0.638742462,15.7442607 C0.445409129,31.4309273 0.242075796,47.1209273 0.0287424625,62.8142607 C-0.0312575375,66.7442607 -0.331257538,73.3042607 3.75874246,75.0942607 C6.52874246,76.3042607 10.1587425,75.6542607 13.0887425,75.7042607 C15.6787425,75.7542607 18.2387425,76.2542607 20.8087425,76.3542607 C25.8087425,76.5642607 30.8987425,76.3542607 35.8887425,76.1842607 C38.7387425,76.0942607 43.6287425,76.7542607 46.1987425,75.0442607 C48.7687425,73.3342607 48.1987425,69.1942607 48.3687425,66.6142607 C48.6087425,61.5442607 48.4087425,56.4142607 48.4287425,51.3342607 Z M46.5887425,18.2042607 C46.5087425,25.7842607 46.4187425,33.357594 46.3187425,40.9242607 C46.2254091,47.477594 46.1654091,54.027594 46.1387425,60.5742607 C46.1387425,64.2842607 47.1387425,72.3242607 43.1387425,73.5742607 C39.8687425,74.5742607 35.2087425,73.9442607 31.7587425,74.0142607 C27.5587425,74.0942607 23.3087425,74.1842607 19.1387425,73.8442607 C16.4687425,73.6242607 13.8687425,73.4542607 11.1387425,73.4442607 C6.89874246,73.4442607 3.80874246,73.8342607 2.64874246,69.0942607 C2.28216031,67.5759851 2.12072317,66.0154261 2.16874246,64.4542607 C2.28874246,50.8609273 2.4220758,37.2742607 2.56874246,23.6942607 C2.56874246,18.7542607 2.69874246,13.8142607 2.72874246,8.88426068 C2.72874246,7.64426068 2.35874246,5.66426068 2.98874246,4.58426068 C4.23874246,2.42426068 7.34874246,2.50426068 9.45874246,2.40426068 C14.4587425,2.15426068 19.3787425,2.09426068 24.3287425,2.00426068 C28.3287425,2.06426068 32.3287425,2.24426068 36.2487425,2.41426068 C40.0587425,2.57426068 45.6487425,1.78426068 46.5287425,6.58426068 C46.5287425,6.58426068 46.5287425,6.64426068 46.5287425,6.68426068 C47.1087425,10.2142607 46.6187425,14.5342607 46.5887425,18.2042607 Z" fill="#1E1E1E"></path>
                </g>
                <g transform="translate(54, 0)">
                    <path d="M51.6887425,6.68426068 C50.7887425,-0.395739322 42.4487425,6.86426068 43.0287425,11.4842607 C45.0287425,27.4842607 44.5787425,43.6542607 44.2487425,59.7642607 C44.2487425,61.5542607 44.1787425,63.3542607 44.1387425,65.1442607 C44.1387425,65.3642607 44.0387425,66.5142607 43.9787425,67.6942607 C43.2787425,67.8742607 42.5687425,68.0442607 41.8687425,68.1942607 C40.0487425,68.6042607 38.2087425,68.9442607 36.3687425,69.2442607 C28.0929556,70.5050452 19.6868263,70.6664429 11.3687425,69.7242607 C6.73874246,69.2342607 1.92874246,80.1342607 7.23874246,80.7242607 C16.8776197,81.7576473 26.614267,81.4209721 36.1587425,79.7242607 C44.2787425,78.2542607 52.0387425,76.0242607 52.6187425,66.4142607 C53.8187425,46.7542607 54.1687425,26.2342607 51.6887425,6.68426068 Z" fill="#000000" opacity="0.15"></path>
                    <path d="M47.3187425,6.37426068 C47.0887425,5.37426068 45.8787425,2.52426068 43.3187425,2.00426068 C42.6787425,1.87426068 7.93874246,1.25426068 6.36874246,1.61426068 C4.8753337,2.22535429 3.48814598,3.06914244 2.25874246,4.11426068 C0.918742462,5.22426068 1.10874246,66.5642607 1.10874246,66.5642607 C1.29874246,68.1242607 2.38874246,73.1942607 3.49874246,73.7942607 C5.49874246,74.8642607 42.2787425,74.8942607 43.4987425,74.5442607 C45.6388536,73.9419818 47.1834507,72.0789111 47.3787425,69.8642607 C47.4987425,68.6342607 47.5487425,7.39426068 47.3187425,6.37426068 Z" fill="#F7941F"></path>
                    <path d="M45.0087425,2.02426068 C34.8601129,1.01286081 24.6450413,0.845619956 14.4687425,1.52426068 C11.4687425,1.71426068 8.07874246,0.904260678 5.54874246,2.83426068 C2.77874246,4.93426068 2.03874246,8.49426068 2.22874246,11.7342607 C3.39874246,31.0942607 -2.37125754,52.0142607 4.42874246,70.8942607 C5.98874246,75.2342607 11.8187425,68.7142607 10.6787425,65.5242607 C7.32874246,56.2242607 7.49874246,44.9842607 7.72874246,35.2042607 C7.83874246,30.0942607 8.34874246,25.0442607 8.72874246,19.9542607 C8.96698286,17.4783784 9.07046885,14.9913765 9.03874246,12.5042607 C9.03874246,11.5042607 8.93874246,10.5842607 8.84874246,9.63426068 C10.3687425,9.63426068 11.9387425,9.70426068 13.2387425,9.63426068 C16.4187425,9.42426068 19.6087425,9.31426068 22.7887425,9.29426068 C29.1621495,9.28219411 35.5315152,9.6160183 41.8687425,10.2942607 C45.3887425,10.6342607 48.9887425,2.43426068 45.0087425,2.02426068 Z" fill="#FFFFFF" opacity="0.25"></path>
                    <path d="M48.4287425,51.3342607 C48.4287425,41.7142607 48.3387425,32.0942607 48.2587425,22.4842607 C48.2587425,17.2842607 48.6887425,11.7342607 48.0387425,6.55426068 C48.0486273,6.4946678 48.0486273,6.43385356 48.0387425,6.37426068 C47.4687425,1.37426068 45.0387425,1.04426068 40.4487425,0.714260678 C35.3387425,0.364260678 30.2087425,0.0942606785 25.0787425,0.00426067846 C25.0222182,-0.00142022615 24.9652667,-0.00142022615 24.9087425,0.00426067846 L22.3387425,0.00426067846 C22.2655179,-0.00138871667 22.191967,-0.00138871667 22.1187425,0.00426067846 C18.1187425,0.0642606785 14.1187425,0.134260678 10.0487425,0.304260678 C7.32874246,0.424260678 3.15874246,0.304260678 1.49874246,2.89426068 C-0.281257538,5.64426068 0.678742462,12.5342607 0.638742462,15.7442607 C0.445409129,31.4309273 0.242075796,47.1209273 0.0287424625,62.8142607 C-0.0312575375,66.7442607 -0.331257538,73.3042607 3.75874246,75.0942607 C6.52874246,76.3042607 10.1587425,75.6542607 13.0887425,75.7042607 C15.6787425,75.7542607 18.2387425,76.2542607 20.8087425,76.3542607 C25.8087425,76.5642607 30.8987425,76.3542607 35.8887425,76.1842607 C38.7387425,76.0942607 43.6287425,76.7542607 46.1987425,75.0442607 C48.7687425,73.3342607 48.1987425,69.1942607 48.3687425,66.6142607 C48.6087425,61.5442607 48.4087425,56.4142607 48.4287425,51.3342607 Z M46.5887425,18.2042607 C46.5087425,25.7842607 46.4187425,33.357594 46.3187425,40.9242607 C46.2254091,47.477594 46.1654091,54.027594 46.1387425,60.5742607 C46.1387425,64.2842607 47.1387425,72.3242607 43.1387425,73.5742607 C39.8687425,74.5742607 35.2087425,73.9442607 31.7587425,74.0142607 C27.5587425,74.0942607 23.3087425,74.1842607 19.1387425,73.8442607 C16.4687425,73.6242607 13.8687425,73.4542607 11.1387425,73.4442607 C6.89874246,73.4442607 3.80874246,73.8342607 2.64874246,69.0942607 C2.28216031,67.5759851 2.12072317,66.0154261 2.16874246,64.4542607 C2.28874246,50.8609273 2.4220758,37.2742607 2.56874246,23.6942607 C2.56874246,18.7542607 2.69874246,13.8142607 2.72874246,8.88426068 C2.72874246,7.64426068 2.35874246,5.66426068 2.98874246,4.58426068 C4.23874246,2.42426068 7.34874246,2.50426068 9.45874246,2.40426068 C14.4587425,2.15426068 19.3787425,2.09426068 24.3287425,2.00426068 C28.3287425,2.06426068 32.3287425,2.24426068 36.2487425,2.41426068 C40.0587425,2.57426068 45.6487425,1.78426068 46.5287425,6.58426068 C46.5287425,6.58426068 46.5287425,6.64426068 46.5287425,6.68426068 C47.1087425,10.2142607 46.6187425,14.5342607 46.5887425,18.2042607 Z" fill="#1E1E1E"></path>
                </g>
                <g>
                    <path d="M51.6887425,6.68426068 C50.7887425,-0.395739322 42.4487425,6.86426068 43.0287425,11.4842607 C45.0287425,27.4842607 44.5787425,43.6542607 44.2487425,59.7642607 C44.2487425,61.5542607 44.1787425,63.3542607 44.1387425,65.1442607 C44.1387425,65.3642607 44.0387425,66.5142607 43.9787425,67.6942607 C43.2787425,67.8742607 42.5687425,68.0442607 41.8687425,68.1942607 C40.0487425,68.6042607 38.2087425,68.9442607 36.3687425,69.2442607 C28.0929556,70.5050452 19.6868263,70.6664429 11.3687425,69.7242607 C6.73874246,69.2342607 1.92874246,80.1342607 7.23874246,80.7242607 C16.8776197,81.7576473 26.614267,81.4209721 36.1587425,79.7242607 C44.2787425,78.2542607 52.0387425,76.0242607 52.6187425,66.4142607 C53.8187425,46.7542607 54.1687425,26.2342607 51.6887425,6.68426068 Z" fill="#000000" opacity="0.15"></path>
                    <path d="M47.3187425,6.37426068 C47.0887425,5.37426068 45.8787425,2.52426068 43.3187425,2.00426068 C42.6787425,1.87426068 7.93874246,1.25426068 6.36874246,1.61426068 C4.8753337,2.22535429 3.48814598,3.06914244 2.25874246,4.11426068 C0.918742462,5.22426068 1.10874246,66.5642607 1.10874246,66.5642607 C1.29874246,68.1242607 2.38874246,73.1942607 3.49874246,73.7942607 C5.49874246,74.8642607 42.2787425,74.8942607 43.4987425,74.5442607 C45.6388536,73.9419818 47.1834507,72.0789111 47.3787425,69.8642607 C47.4987425,68.6342607 47.5487425,7.39426068 47.3187425,6.37426068 Z" fill="#F7941F"></path>
                    <path d="M45.0087425,2.02426068 C34.8601129,1.01286081 24.6450413,0.845619956 14.4687425,1.52426068 C11.4687425,1.71426068 8.07874246,0.904260678 5.54874246,2.83426068 C2.77874246,4.93426068 2.03874246,8.49426068 2.22874246,11.7342607 C3.39874246,31.0942607 -2.37125754,52.0142607 4.42874246,70.8942607 C5.98874246,75.2342607 11.8187425,68.7142607 10.6787425,65.5242607 C7.32874246,56.2242607 7.49874246,44.9842607 7.72874246,35.2042607 C7.83874246,30.0942607 8.34874246,25.0442607 8.72874246,19.9542607 C8.96698286,17.4783784 9.07046885,14.9913765 9.03874246,12.5042607 C9.03874246,11.5042607 8.93874246,10.5842607 8.84874246,9.63426068 C10.3687425,9.63426068 11.9387425,9.70426068 13.2387425,9.63426068 C16.4187425,9.42426068 19.6087425,9.31426068 22.7887425,9.29426068 C29.1621495,9.28219411 35.5315152,9.6160183 41.8687425,10.2942607 C45.3887425,10.6342607 48.9887425,2.43426068 45.0087425,2.02426068 Z" fill="#FFFFFF" opacity="0.25"></path>
                    <path d="M48.4287425,51.3342607 C48.4287425,41.7142607 48.3387425,32.0942607 48.2587425,22.4842607 C48.2587425,17.2842607 48.6887425,11.7342607 48.0387425,6.55426068 C48.0486273,6.4946678 48.0486273,6.43385356 48.0387425,6.37426068 C47.4687425,1.37426068 45.0387425,1.04426068 40.4487425,0.714260678 C35.3387425,0.364260678 30.2087425,0.0942606785 25.0787425,0.00426067846 C25.0222182,-0.00142022615 24.9652667,-0.00142022615 24.9087425,0.00426067846 L22.3387425,0.00426067846 C22.2655179,-0.00138871667 22.191967,-0.00138871667 22.1187425,0.00426067846 C18.1187425,0.0642606785 14.1187425,0.134260678 10.0487425,0.304260678 C7.32874246,0.424260678 3.15874246,0.304260678 1.49874246,2.89426068 C-0.281257538,5.64426068 0.678742462,12.5342607 0.638742462,15.7442607 C0.445409129,31.4309273 0.242075796,47.1209273 0.0287424625,62.8142607 C-0.0312575375,66.7442607 -0.331257538,73.3042607 3.75874246,75.0942607 C6.52874246,76.3042607 10.1587425,75.6542607 13.0887425,75.7042607 C15.6787425,75.7542607 18.2387425,76.2542607 20.8087425,76.3542607 C25.8087425,76.5642607 30.8987425,76.3542607 35.8887425,76.1842607 C38.7387425,76.0942607 43.6287425,76.7542607 46.1987425,75.0442607 C48.7687425,73.3342607 48.1987425,69.1942607 48.3687425,66.6142607 C48.6087425,61.5442607 48.4087425,56.4142607 48.4287425,51.3342607 Z M46.5887425,18.2042607 C46.5087425,25.7842607 46.4187425,33.357594 46.3187425,40.9242607 C46.2254091,47.477594 46.1654091,54.027594 46.1387425,60.5742607 C46.1387425,64.2842607 47.1387425,72.3242607 43.1387425,73.5742607 C39.8687425,74.5742607 35.2087425,73.9442607 31.7587425,74.0142607 C27.5587425,74.0942607 23.3087425,74.1842607 19.1387425,73.8442607 C16.4687425,73.6242607 13.8687425,73.4542607 11.1387425,73.4442607 C6.89874246,73.4442607 3.80874246,73.8342607 2.64874246,69.0942607 C2.28216031,67.5759851 2.12072317,66.0154261 2.16874246,64.4542607 C2.28874246,50.8609273 2.4220758,37.2742607 2.56874246,23.6942607 C2.56874246,18.7542607 2.69874246,13.8142607 2.72874246,8.88426068 C2.72874246,7.64426068 2.35874246,5.66426068 2.98874246,4.58426068 C4.23874246,2.42426068 7.34874246,2.50426068 9.45874246,2.40426068 C14.4587425,2.15426068 19.3787425,2.09426068 24.3287425,2.00426068 C28.3287425,2.06426068 32.3287425,2.24426068 36.2487425,2.41426068 C40.0587425,2.57426068 45.6487425,1.78426068 46.5287425,6.58426068 C46.5287425,6.58426068 46.5287425,6.64426068 46.5287425,6.68426068 C47.1087425,10.2142607 46.6187425,14.5342607 46.5887425,18.2042607 Z" fill="#1E1E1E"></path>
                </g>
            </g>
        </g>
    </g>
</svg>